<svg version="1.1" id="Layer_1" xmlns="http://www.w3.org/2000/svg" xmlns:xlink="http://www.w3.org/1999/xlink" x="0px" y="0px"
	 width="100%" viewBox="0 0 4096 1960" enable-background="new 0 0 4096 1960" xml:space="preserve">
<path fill="#000000" opacity="1.000000" stroke="none" 
	d="
M2542.000000,1962.000000 
	C1694.666870,1962.000000 848.333618,1962.000000 2.000340,1962.000000 
	C2.000227,1308.666992 2.000227,655.333862 2.000113,2.000604 
	C1367.332886,2.000402 2732.665771,2.000402 4097.999023,2.000201 
	C4097.999023,655.332703 4097.999023,1308.665405 4097.999512,1961.999023 
	C3579.666748,1962.000000 3061.333252,1962.000000 2542.000000,1962.000000 
M2263.290283,556.819031 
	C2259.958496,548.915710 2256.891602,540.887878 2253.245117,533.132507 
	C2242.534668,510.352814 2231.968994,487.492706 2220.653809,465.012848 
	C2204.752930,433.422485 2189.325684,401.515472 2171.719482,370.879822 
	C2143.849609,322.385162 2114.159668,274.939331 2085.744873,226.751938 
	C2081.921875,220.268707 2077.874268,218.090622 2070.824951,218.231857 
	C2045.839355,218.732513 2020.844482,219.026917 1995.853882,218.987961 
	C1938.194824,218.898102 1880.536011,218.563766 1822.877197,218.342178 
	C1819.545410,218.329376 1816.187256,218.191269 1812.886230,218.538544 
	C1804.818115,219.387344 1802.628174,223.955414 1806.969116,230.584259 
	C1807.874512,231.966919 1808.959473,233.234924 1809.995239,234.528854 
	C1843.826050,276.794128 1877.591431,319.111908 1911.513062,361.304169 
	C1952.290894,412.024445 1992.795044,462.973816 2034.235474,513.148499 
	C2053.641602,536.644836 2074.979492,558.544922 2095.370850,581.232178 
	C2096.087158,582.029236 2096.041992,583.510620 2096.705078,585.998901 
	C2084.526855,585.998901 2073.297119,586.002747 2062.067383,585.998291 
	C1973.080566,585.962769 1884.093750,585.896362 1795.106934,585.897095 
	C1701.451782,585.897827 1607.796631,585.978394 1514.141479,585.994385 
	C1420.484619,586.010376 1326.827881,585.988220 1233.171021,585.986450 
	C1218.796021,585.986206 1217.715576,587.047852 1217.664795,601.098999 
	C1217.658813,602.765625 1217.663940,604.432190 1217.663940,606.098816 
	C1217.663940,734.094360 1217.663940,862.089966 1217.663940,990.085510 
	C1217.663940,993.953735 1217.663940,997.821960 1217.663940,1001.840210 
	C1158.134033,1001.840210 1100.021240,1001.840210 1041.908325,1001.840210 
	C1043.761353,999.512329 1046.043213,998.577942 1048.258057,997.505127 
	C1067.490356,988.189148 1082.489746,974.639893 1088.945190,953.741150 
	C1095.114868,933.767090 1098.303833,913.026001 1098.523193,892.203064 
	C1099.130615,834.552307 1098.388550,776.886169 1099.141602,719.238708 
	C1099.421021,697.844971 1094.284790,677.147827 1093.681274,655.956543 
	C1093.607910,653.377319 1092.622437,650.798462 1091.892334,648.267700 
	C1088.008545,634.805847 1083.053467,621.680298 1073.763916,611.036682 
	C1059.873901,595.121887 1040.808228,588.496399 1020.733765,586.674011 
	C1001.565491,584.933899 982.132812,586.025757 962.816284,586.011597 
	C784.158508,585.880859 605.500793,585.803589 426.843079,585.622559 
	C413.773682,585.609314 401.288727,587.648315 388.682800,591.413513 
	C362.430908,599.254395 347.870331,617.452759 340.375763,642.475098 
	C336.583862,655.135132 333.411682,667.840759 333.643219,681.432678 
	C333.833282,692.588440 330.584564,703.779236 330.497833,714.967224 
	C330.117950,763.962585 330.276428,812.962708 330.440002,861.960449 
	C330.453522,866.017212 331.965332,870.068909 332.760864,874.022949 
	C440.246918,874.022949 546.453125,874.022949 653.355286,874.022949 
	C654.202881,869.993591 655.170776,866.546692 655.592041,863.034180 
	C655.946777,860.076782 655.637146,857.042786 655.670593,854.043274 
	C656.164124,809.771545 656.346619,765.492859 657.313477,721.231384 
	C657.735535,701.908752 670.046387,689.613831 689.256165,688.850464 
	C706.221558,688.176331 723.418091,687.411011 740.193054,689.391541 
	C759.922485,691.720825 767.126343,697.035828 770.906738,713.853943 
	C772.997742,723.156616 774.142517,732.868042 774.188477,742.402466 
	C774.476074,802.065735 774.535095,861.732239 774.149719,921.394409 
	C774.079651,932.237305 772.203369,943.182922 770.074646,953.864685 
	C768.116455,963.690491 761.989929,970.546814 751.483215,972.152161 
	C745.278992,973.100098 739.017395,974.153870 732.768005,974.246887 
	C693.496094,974.831299 654.220093,975.137024 614.946045,975.586182 
	C604.157776,975.709595 602.396729,977.461731 602.360352,988.500000 
	C602.276917,1013.832214 602.230408,1039.165649 602.431702,1064.496582 
	C602.466919,1068.930786 603.783203,1073.354736 604.628967,1078.523560 
	C608.678894,1078.523560 611.620117,1078.523926 614.561340,1078.523560 
	C651.893311,1078.518555 689.225220,1078.491577 726.557190,1078.530884 
	C732.552368,1078.537109 738.632263,1078.256226 744.526062,1079.115601 
	C760.758911,1081.482544 768.528503,1088.298462 770.895752,1101.798950 
	C772.778442,1112.535889 774.108704,1123.515747 774.184692,1134.398438 
	C774.526550,1183.394287 774.346252,1232.393921 774.327271,1281.392212 
	C774.320190,1299.670532 774.698059,1317.927124 771.777100,1336.121826 
	C769.021790,1353.284302 762.653870,1361.017090 745.752441,1361.560059 
	C725.135925,1362.222168 704.480103,1361.828125 683.843506,1361.645508 
	C669.156433,1361.515503 659.308777,1352.840820 657.266602,1336.248047 
	C656.252258,1328.006470 655.768311,1319.651978 655.734924,1311.345825 
	C655.579956,1272.681152 655.764648,1234.014893 655.559875,1195.350708 
	C655.529297,1189.574341 654.075562,1183.805664 653.284363,1178.063721 
	C649.942749,1177.883911 647.967712,1177.685059 645.992676,1177.684814 
	C545.329529,1177.669434 444.666351,1177.662476 344.003174,1177.683105 
	C333.304810,1177.685303 330.342377,1180.299072 330.402649,1191.188477 
	C330.697540,1244.462769 330.934967,1297.740356 331.815247,1351.006592 
	C332.160034,1371.867676 334.398041,1392.673096 341.418030,1412.587646 
	C348.032471,1431.351562 358.449219,1447.092773 377.107635,1455.946899 
	C389.548248,1461.850464 402.683502,1464.528076 416.478027,1464.530029 
	C559.470581,1464.549805 702.463135,1464.709595 845.455688,1464.681885 
	C904.447815,1464.670410 963.442749,1464.544556 1022.428650,1463.831177 
	C1031.416382,1463.722534 1040.890015,1461.394775 1049.221558,1457.904175 
	C1069.035156,1449.602539 1080.791260,1433.607666 1088.322388,1413.803955 
	C1094.913940,1396.470581 1095.299316,1378.142456 1097.931396,1360.218994 
	C1099.609619,1348.790527 1098.854370,1336.976929 1098.864136,1325.335815 
	C1098.922119,1256.674072 1098.873047,1188.012207 1098.911865,1119.350464 
	C1098.913940,1115.839478 1099.395508,1112.328735 1099.638428,1109.027588 
	C1139.347412,1109.027588 1177.833984,1109.027588 1217.663940,1109.027588 
	C1217.663940,1113.598633 1217.663940,1117.503906 1217.663940,1121.409302 
	C1217.663940,1272.070679 1217.661255,1422.732178 1217.668091,1573.393555 
	C1217.668823,1589.136475 1218.891357,1590.327759 1234.760376,1590.328125 
	C1330.090454,1590.330200 1425.420410,1590.329102 1520.750488,1590.329102 
	C1526.998291,1590.329102 1533.246094,1590.329102 1540.757324,1590.329102 
	C1540.757324,1582.834595 1540.752441,1576.286255 1540.758057,1569.737793 
	C1540.863770,1445.409668 1541.052612,1321.081665 1541.057251,1196.753540 
	C1541.063110,1033.759521 1540.917358,870.765503 1540.872192,707.771484 
	C1540.870483,701.596008 1541.237305,695.420410 1541.418579,689.680725 
	C1543.364136,689.138672 1543.998047,688.808044 1544.632324,688.807373 
	C1581.962646,688.766724 1619.293213,688.707642 1656.623169,688.821594 
	C1659.711548,688.831055 1662.796143,690.029907 1665.663940,690.630371 
	C1665.663940,698.069763 1665.663818,704.367554 1665.663818,710.665344 
	C1665.663818,863.326721 1665.415039,1015.988708 1665.822388,1168.649048 
	C1665.937622,1211.832153 1663.279785,1255.082520 1669.349854,1298.218018 
	C1671.930664,1316.558472 1675.698730,1334.173340 1685.427856,1349.824585 
	C1693.787720,1363.273315 1705.362061,1373.555542 1721.086060,1378.298462 
	C1737.386719,1383.215210 1754.074951,1385.468628 1771.032104,1385.982544 
	C1779.833496,1386.249512 1788.692139,1385.554810 1798.713257,1386.992798 
	C1740.692139,1501.458496 1682.132446,1614.211548 1625.885620,1727.433228 
	C1629.495239,1733.384521 1634.296875,1731.629150 1638.300171,1731.640625 
	C1686.964722,1731.781128 1735.629761,1731.766113 1784.294678,1731.766357 
	C1835.625732,1731.766724 1886.957642,1731.606812 1938.287109,1731.880859 
	C1945.291992,1731.918213 1948.981812,1729.748413 1951.781860,1723.286987 
	C1959.405518,1705.695312 1967.648071,1688.368408 1975.812988,1671.015503 
	C1989.630249,1641.649658 2003.717896,1612.410645 2017.433105,1582.997681 
	C2035.909790,1543.374023 2054.127441,1503.629639 2072.483154,1463.949219 
	C2082.918945,1441.389404 2093.327881,1418.816284 2103.981201,1396.359253 
	C2105.214844,1393.758545 2105.451416,1389.804932 2110.333252,1388.746216 
	C2110.333252,1392.600708 2110.333252,1395.863892 2110.333252,1399.127197 
	C2110.333252,1430.126099 2110.333252,1461.125122 2110.333252,1492.124023 
	C2110.333252,1520.123047 2110.308838,1548.122070 2110.344482,1576.121094 
	C2110.360596,1588.735718 2111.959473,1590.246094 2124.862793,1590.328247 
	C2125.529297,1590.332520 2126.196045,1590.329102 2126.862549,1590.329102 
	C2214.859619,1590.328857 2302.856445,1590.334961 2390.853516,1590.321655 
	C2403.183838,1590.319824 2415.515869,1590.338501 2427.843506,1590.121826 
	C2434.029541,1590.013306 2435.466797,1588.476074 2435.947021,1582.494141 
	C2436.106445,1580.509766 2435.903564,1578.498169 2435.903564,1576.499023 
	C2435.899658,1284.842529 2435.898682,993.185974 2435.897949,701.529419 
	C2435.897949,697.628113 2435.897949,693.726807 2435.897949,688.572815 
	C2448.347168,688.572815 2459.597412,688.572937 2470.847656,688.572754 
	C2778.170166,688.569153 3085.492676,688.563782 3392.815186,688.568787 
	C3403.147705,688.568909 3413.482910,688.552307 3423.810791,688.801331 
	C3426.941162,688.876770 3430.050781,689.820618 3433.145508,690.362488 
	C3433.145508,728.576233 3433.145508,765.775024 3433.145508,804.333740 
	C3429.097656,804.333740 3425.553955,804.333740 3422.010010,804.333740 
	C3366.011963,804.333740 3310.013672,804.403992 3254.015869,804.286987 
	C3239.010010,804.255615 3224.386475,805.783020 3209.888916,810.109253 
	C3184.789062,817.599060 3169.241211,833.999512 3161.925293,858.738281 
	C3158.944336,868.818542 3156.120361,878.945312 3152.831543,890.423950 
	C3151.236572,885.597900 3149.224609,881.948303 3148.917725,878.160522 
	C3147.566406,861.491089 3141.220459,846.646606 3132.184814,833.031128 
	C3128.635742,827.683167 3123.418945,822.867615 3117.927979,819.489807 
	C3101.183838,809.189697 3082.663818,804.342957 3062.962646,804.341003 
	C2922.634033,804.327393 2782.305664,804.311462 2641.977051,804.364746 
	C2626.200684,804.370728 2610.920410,807.423523 2596.706299,814.335205 
	C2588.735840,818.210754 2580.748779,821.981140 2574.641113,829.224976 
	C2558.483887,848.388367 2553.272705,871.556641 2549.924561,895.228271 
	C2548.167236,907.651794 2548.371582,920.412354 2548.395752,933.019409 
	C2548.748291,1115.288696 2549.334473,1297.557739 2549.495361,1479.827148 
	C2549.512207,1498.950317 2551.738525,1517.503296 2557.722412,1535.498779 
	C2565.566162,1559.089233 2580.093994,1576.532593 2604.906250,1583.879028 
	C2621.959961,1588.928589 2639.424805,1590.307251 2657.057861,1590.311768 
	C2783.053467,1590.343994 2909.049072,1590.330566 3035.044678,1590.321899 
	C3039.043213,1590.321533 3043.045654,1590.310059 3047.039307,1590.138794 
	C3055.188232,1589.789307 3055.842529,1589.061157 3055.847168,1580.589233 
	C3055.861572,1552.923706 3055.854004,1525.258179 3055.851807,1497.592651 
	C3055.851562,1495.926514 3055.798828,1494.260376 3055.806885,1492.594360 
	C3055.827881,1488.148926 3053.726318,1485.745972 3049.188232,1485.691528 
	C3046.855225,1485.663574 3044.521973,1485.671631 3042.188721,1485.671509 
	C2998.523438,1485.670532 2954.858398,1485.671143 2911.193115,1485.670654 
	C2908.859863,1485.670654 2906.480225,1485.964722 2904.201172,1485.612183 
	C2891.923096,1483.713013 2881.441650,1480.146118 2877.495117,1465.907593 
	C2875.142334,1457.418823 2873.871338,1449.126831 2873.872314,1440.479370 
	C2873.887939,1280.152100 2873.905273,1119.824829 2873.941895,959.497559 
	C2873.943359,953.166870 2873.406250,946.716492 2874.414062,940.532654 
	C2876.074463,930.341797 2879.141113,920.218506 2888.468506,914.301697 
	C2894.503906,910.473328 2901.306152,907.686951 2908.883545,907.765808 
	C2922.548096,907.908081 2936.222412,908.123230 2949.877686,907.758057 
	C2957.762695,907.547058 2964.942871,909.724915 2972.217529,912.113403 
	C2981.121094,915.036560 2985.893066,921.977173 2987.433838,930.319885 
	C2989.648438,942.311401 2991.454102,954.583069 2991.487793,966.740601 
	C2991.789795,1075.402588 2991.657959,1184.065918 2991.691650,1292.728760 
	C2991.692871,1296.578247 2992.095215,1300.427734 2992.295410,1304.000244 
	C3006.997070,1306.328491 3308.311523,1305.476318 3315.864014,1303.160400 
	C3315.864014,1300.615356 3315.864258,1297.964600 3315.864258,1295.313721 
	C3315.863037,1196.983887 3315.844482,1098.654053 3315.877441,1000.324158 
	C3315.883057,983.660400 3315.380615,966.946960 3316.515137,950.352356 
	C3317.159180,940.930115 3320.471924,931.653381 3323.004150,922.426758 
	C3323.539795,920.475464 3325.679932,918.707886 3327.478516,917.404114 
	C3335.723145,911.427795 3344.942139,907.939697 3355.200928,907.885315 
	C3376.865967,907.770508 3398.531982,907.783447 3420.197510,907.821899 
	C3433.662109,907.845825 3433.663574,907.909851 3433.663818,921.718872 
	C3433.664307,1138.711304 3433.664307,1355.703735 3433.665283,1572.696167 
	C3433.665283,1575.696045 3433.534912,1578.704346 3433.713623,1581.693848 
	C3434.014160,1586.728271 3436.793457,1589.620361 3441.814697,1590.167114 
	C3443.794922,1590.382812 3445.809326,1590.323242 3447.808350,1590.323364 
	C3547.138184,1590.329590 3646.468262,1590.334473 3745.798096,1590.305786 
	C3749.664307,1590.304688 3753.530273,1589.972534 3758.135986,1589.760620 
	C3758.688965,1580.053711 3759.281250,1571.495850 3759.605713,1562.927856 
	C3759.715088,1560.036621 3758.852539,1557.111694 3758.931396,1554.215698 
	C3759.546631,1531.671265 3761.382080,1509.119629 3757.859863,1486.627930 
	C3757.458008,1484.062012 3757.997803,1481.327393 3758.249756,1478.685181 
	C3758.656982,1474.420532 3759.553467,1470.171875 3759.600830,1465.909302 
	C3759.769531,1450.748901 3759.666504,1435.585693 3759.666504,1420.423462 
	C3759.666504,1258.429077 3759.706055,1096.434692 3759.554932,934.440491 
	C3759.546875,925.937439 3761.656250,917.137451 3757.591797,908.861450 
	C3757.249268,908.164062 3757.831787,907.017578 3757.970215,906.077576 
	C3758.538574,902.213501 3759.577148,898.350464 3759.591797,894.483704 
	C3759.720703,860.635437 3759.666504,826.786438 3759.666504,792.937683 
	C3759.666504,761.605408 3759.645752,730.273193 3759.678467,698.940918 
	C3759.688721,689.056702 3759.955566,688.796265 3769.661621,688.744751 
	C3792.659668,688.622803 3815.657715,688.585510 3838.655273,688.439453 
	C3842.203613,688.416931 3845.749268,687.999817 3849.704590,687.738159 
	C3849.958740,684.255371 3850.307129,681.673523 3850.310791,679.091125 
	C3850.348633,652.092102 3850.332031,625.093079 3850.327148,598.093994 
	C3850.326904,596.427734 3850.357666,594.758179 3850.267334,593.095886 
	C3850.005371,588.280151 3847.373047,585.801453 3842.603516,585.759521 
	C3838.608154,585.724426 3834.610596,585.987000 3830.614014,585.987549 
	C3721.297852,586.001587 3611.981689,585.998901 3502.665527,585.998901 
	C3181.010010,585.998901 2859.354492,585.998962 2537.698975,585.998962 
	C2507.707520,585.998962 2477.715576,586.049500 2447.724609,585.944031 
	C2443.247070,585.928223 2438.772461,585.179749 2434.006104,584.743713 
	C2432.695068,573.252502 2431.612793,563.063538 2430.339111,552.898560 
	C2429.688477,547.703796 2428.543945,542.570801 2427.895508,537.375793 
	C2427.197754,531.784912 2427.027344,526.125488 2426.260010,520.546387 
	C2424.548828,508.102692 2422.562500,495.697083 2420.805420,483.259369 
	C2420.481934,480.968872 2420.921631,478.574982 2420.645264,476.272522 
	C2419.975586,470.699554 2419.141357,465.144470 2418.271973,459.598083 
	C2417.862305,456.982117 2416.843750,454.417145 2416.742676,451.804230 
	C2416.025391,433.243805 2414.298828,414.821777 2410.111084,396.678375 
	C2409.669678,394.765869 2410.018066,392.685364 2409.793701,390.706146 
	C2408.007568,374.945221 2406.170166,359.190063 2404.356934,343.432159 
	C2404.281006,342.771271 2404.346924,342.091156 2404.241211,341.437073 
	C2403.461914,336.614136 2402.577148,331.806824 2401.883057,326.971985 
	C2401.318604,323.040039 2401.061279,319.064453 2400.513672,315.129608 
	C2398.645752,301.703247 2396.460938,288.315826 2394.866699,274.857941 
	C2393.114746,260.067383 2391.915283,245.211945 2390.412354,230.391144 
	C2389.276855,219.193573 2388.302002,218.342407 2376.732178,218.339844 
	C2317.734131,218.326767 2258.736328,218.332474 2199.738281,218.338730 
	C2197.405762,218.338989 2195.048340,218.208298 2192.745117,218.487656 
	C2185.658447,219.347076 2183.608154,222.025040 2184.905273,229.242249 
	C2186.301025,237.008270 2187.954590,244.733398 2189.701904,252.429611 
	C2192.404297,264.333405 2195.184814,276.221466 2198.111328,288.071960 
	C2201.185547,300.520050 2204.579102,312.889374 2207.633789,325.342041 
	C2210.935059,338.799469 2213.890625,352.341797 2217.204834,365.795837 
	C2221.305176,382.440521 2225.687744,399.015564 2229.819336,415.652710 
	C2232.843994,427.832458 2235.510498,440.102112 2238.612549,452.261322 
	C2241.781006,464.681152 2245.186768,477.043243 2248.668457,489.379822 
	C2253.237793,505.570099 2258.053467,521.690918 2262.618408,537.882324 
	C2264.485107,544.503357 2265.973877,551.230896 2266.482422,557.808472 
	C2265.713135,557.852478 2264.943604,557.896484 2263.290283,556.819031 
z"/>
<path fill="#FEFEFE" opacity="1.000000" stroke="none" 
	d="
M2267.634521,557.909973 
	C2265.973877,551.230896 2264.485107,544.503357 2262.618408,537.882324 
	C2258.053467,521.690918 2253.237793,505.570099 2248.668457,489.379822 
	C2245.186768,477.043243 2241.781006,464.681152 2238.612549,452.261322 
	C2235.510498,440.102112 2232.843994,427.832458 2229.819336,415.652710 
	C2225.687744,399.015564 2221.305176,382.440521 2217.204834,365.795837 
	C2213.890625,352.341797 2210.935059,338.799469 2207.633789,325.342041 
	C2204.579102,312.889374 2201.185547,300.520050 2198.111328,288.071960 
	C2195.184814,276.221466 2192.404297,264.333405 2189.701904,252.429611 
	C2187.954590,244.733398 2186.301025,237.008270 2184.905273,229.242249 
	C2183.608154,222.025040 2185.658447,219.347076 2192.745117,218.487656 
	C2195.048340,218.208298 2197.405762,218.338989 2199.738281,218.338730 
	C2258.736328,218.332474 2317.734131,218.326767 2376.732178,218.339844 
	C2388.302002,218.342407 2389.276855,219.193573 2390.412354,230.391144 
	C2391.915283,245.211945 2393.114746,260.067383 2394.866699,274.857941 
	C2396.460938,288.315826 2398.645752,301.703247 2400.513672,315.129608 
	C2401.061279,319.064453 2401.318604,323.040039 2401.883057,326.971985 
	C2402.577148,331.806824 2403.461914,336.614136 2404.241211,341.437073 
	C2404.346924,342.091156 2404.281006,342.771271 2404.356934,343.432159 
	C2406.170166,359.190063 2408.007568,374.945221 2409.793701,390.706146 
	C2410.018066,392.685364 2409.669678,394.765869 2410.111084,396.678375 
	C2414.298828,414.821777 2416.025391,433.243805 2416.742676,451.804230 
	C2416.843750,454.417145 2417.862305,456.982117 2418.271973,459.598083 
	C2419.141357,465.144470 2419.975586,470.699554 2420.645264,476.272522 
	C2420.921631,478.574982 2420.481934,480.968872 2420.805420,483.259369 
	C2422.562500,495.697083 2424.548828,508.102692 2426.260010,520.546387 
	C2427.027344,526.125488 2427.197754,531.784912 2427.895508,537.375793 
	C2428.543945,542.570801 2429.688477,547.703796 2430.339111,552.898560 
	C2431.612793,563.063538 2432.695068,573.252502 2434.006104,584.743713 
	C2438.772461,585.179749 2443.247070,585.928223 2447.724609,585.944031 
	C2477.715576,586.049500 2507.707520,585.998962 2537.698975,585.998962 
	C2859.354492,585.998962 3181.010010,585.998901 3502.665527,585.998901 
	C3611.981689,585.998901 3721.297852,586.001587 3830.614014,585.987549 
	C3834.610596,585.987000 3838.608154,585.724426 3842.603516,585.759521 
	C3847.373047,585.801453 3850.005371,588.280151 3850.267334,593.095886 
	C3850.357666,594.758179 3850.326904,596.427734 3850.327148,598.093994 
	C3850.332031,625.093079 3850.348633,652.092102 3850.310791,679.091125 
	C3850.307129,681.673523 3849.958740,684.255371 3849.704590,687.738159 
	C3845.749268,687.999817 3842.203613,688.416931 3838.655273,688.439453 
	C3815.657715,688.585510 3792.659668,688.622803 3769.661621,688.744751 
	C3759.955566,688.796265 3759.688721,689.056702 3759.678467,698.940918 
	C3759.645752,730.273193 3759.666504,761.605408 3759.666504,792.937683 
	C3759.666504,826.786438 3759.720703,860.635437 3759.591797,894.483704 
	C3759.577148,898.350464 3758.538574,902.213501 3757.970215,906.077576 
	C3757.831787,907.017578 3757.249268,908.164062 3757.591797,908.861450 
	C3761.656250,917.137451 3759.546875,925.937439 3759.554932,934.440491 
	C3759.706055,1096.434692 3759.666504,1258.429077 3759.666504,1420.423462 
	C3759.666504,1435.585693 3759.769531,1450.748901 3759.600830,1465.909302 
	C3759.553467,1470.171875 3758.656982,1474.420532 3758.249756,1478.685181 
	C3757.997803,1481.327393 3757.458008,1484.062012 3757.859863,1486.627930 
	C3761.382080,1509.119629 3759.546631,1531.671265 3758.931396,1554.215698 
	C3758.852539,1557.111694 3759.715088,1560.036621 3759.605713,1562.927856 
	C3759.281250,1571.495850 3758.688965,1580.053711 3758.135986,1589.760620 
	C3753.530273,1589.972534 3749.664307,1590.304688 3745.798096,1590.305786 
	C3646.468262,1590.334473 3547.138184,1590.329590 3447.808350,1590.323364 
	C3445.809326,1590.323242 3443.794922,1590.382812 3441.814697,1590.167114 
	C3436.793457,1589.620361 3434.014160,1586.728271 3433.713623,1581.693848 
	C3433.534912,1578.704346 3433.665283,1575.696045 3433.665283,1572.696167 
	C3433.664307,1355.703735 3433.664307,1138.711304 3433.663818,921.718872 
	C3433.663574,907.909851 3433.662109,907.845825 3420.197510,907.821899 
	C3398.531982,907.783447 3376.865967,907.770508 3355.200928,907.885315 
	C3344.942139,907.939697 3335.723145,911.427795 3327.478516,917.404114 
	C3325.679932,918.707886 3323.539795,920.475464 3323.004150,922.426758 
	C3320.471924,931.653381 3317.159180,940.930115 3316.515137,950.352356 
	C3315.380615,966.946960 3315.883057,983.660400 3315.877441,1000.324158 
	C3315.844482,1098.654053 3315.863037,1196.983887 3315.864258,1295.313721 
	C3315.864258,1297.964600 3315.864014,1300.615356 3315.864014,1303.160400 
	C3308.311523,1305.476318 3006.997070,1306.328491 2992.295410,1304.000244 
	C2992.095215,1300.427734 2991.692871,1296.578247 2991.691650,1292.728760 
	C2991.657959,1184.065918 2991.789795,1075.402588 2991.487793,966.740601 
	C2991.454102,954.583069 2989.648438,942.311401 2987.433838,930.319885 
	C2985.893066,921.977173 2981.121094,915.036560 2972.217529,912.113403 
	C2964.942871,909.724915 2957.762695,907.547058 2949.877686,907.758057 
	C2936.222412,908.123230 2922.548096,907.908081 2908.883545,907.765808 
	C2901.306152,907.686951 2894.503906,910.473328 2888.468506,914.301697 
	C2879.141113,920.218506 2876.074463,930.341797 2874.414062,940.532654 
	C2873.406250,946.716492 2873.943359,953.166870 2873.941895,959.497559 
	C2873.905273,1119.824829 2873.887939,1280.152100 2873.872314,1440.479370 
	C2873.871338,1449.126831 2875.142334,1457.418823 2877.495117,1465.907593 
	C2881.441650,1480.146118 2891.923096,1483.713013 2904.201172,1485.612183 
	C2906.480225,1485.964722 2908.859863,1485.670654 2911.193115,1485.670654 
	C2954.858398,1485.671143 2998.523438,1485.670532 3042.188721,1485.671509 
	C3044.521973,1485.671631 3046.855225,1485.663574 3049.188232,1485.691528 
	C3053.726318,1485.745972 3055.827881,1488.148926 3055.806885,1492.594360 
	C3055.798828,1494.260376 3055.851562,1495.926514 3055.851807,1497.592651 
	C3055.854004,1525.258179 3055.861572,1552.923706 3055.847168,1580.589233 
	C3055.842529,1589.061157 3055.188232,1589.789307 3047.039307,1590.138794 
	C3043.045654,1590.310059 3039.043213,1590.321533 3035.044678,1590.321899 
	C2909.049072,1590.330566 2783.053467,1590.343994 2657.057861,1590.311768 
	C2639.424805,1590.307251 2621.959961,1588.928589 2604.906250,1583.879028 
	C2580.093994,1576.532593 2565.566162,1559.089233 2557.722412,1535.498779 
	C2551.738525,1517.503296 2549.512207,1498.950317 2549.495361,1479.827148 
	C2549.334473,1297.557739 2548.748291,1115.288696 2548.395752,933.019409 
	C2548.371582,920.412354 2548.167236,907.651794 2549.924561,895.228271 
	C2553.272705,871.556641 2558.483887,848.388367 2574.641113,829.224976 
	C2580.748779,821.981140 2588.735840,818.210754 2596.706299,814.335205 
	C2610.920410,807.423523 2626.200684,804.370728 2641.977051,804.364746 
	C2782.305664,804.311462 2922.634033,804.327393 3062.962646,804.341003 
	C3082.663818,804.342957 3101.183838,809.189697 3117.927979,819.489807 
	C3123.418945,822.867615 3128.635742,827.683167 3132.184814,833.031128 
	C3141.220459,846.646606 3147.566406,861.491089 3148.917725,878.160522 
	C3149.224609,881.948303 3151.236572,885.597900 3152.831543,890.423950 
	C3156.120361,878.945312 3158.944336,868.818542 3161.925293,858.738281 
	C3169.241211,833.999512 3184.789062,817.599060 3209.888916,810.109253 
	C3224.386475,805.783020 3239.010010,804.255615 3254.015869,804.286987 
	C3310.013672,804.403992 3366.011963,804.333740 3422.010010,804.333740 
	C3425.553955,804.333740 3429.097656,804.333740 3433.145508,804.333740 
	C3433.145508,765.775024 3433.145508,728.576233 3433.145508,690.362488 
	C3430.050781,689.820618 3426.941162,688.876770 3423.810791,688.801331 
	C3413.482910,688.552307 3403.147705,688.568909 3392.815186,688.568787 
	C3085.492676,688.563782 2778.170166,688.569153 2470.847656,688.572754 
	C2459.597412,688.572937 2448.347168,688.572815 2435.897949,688.572815 
	C2435.897949,693.726807 2435.897949,697.628113 2435.897949,701.529419 
	C2435.898682,993.185974 2435.899658,1284.842529 2435.903564,1576.499023 
	C2435.903564,1578.498169 2436.106445,1580.509766 2435.947021,1582.494141 
	C2435.466797,1588.476074 2434.029541,1590.013306 2427.843506,1590.121826 
	C2415.515869,1590.338501 2403.183838,1590.319824 2390.853516,1590.321655 
	C2302.856445,1590.334961 2214.859619,1590.328857 2126.862549,1590.329102 
	C2126.196045,1590.329102 2125.529297,1590.332520 2124.862793,1590.328247 
	C2111.959473,1590.246094 2110.360596,1588.735718 2110.344482,1576.121094 
	C2110.308838,1548.122070 2110.333252,1520.123047 2110.333252,1492.124023 
	C2110.333252,1461.125122 2110.333252,1430.126099 2110.333252,1399.127197 
	C2110.333252,1395.863892 2110.333252,1392.600708 2110.333252,1388.746216 
	C2105.451416,1389.804932 2105.214844,1393.758545 2103.981201,1396.359253 
	C2093.327881,1418.816284 2082.918945,1441.389404 2072.483154,1463.949219 
	C2054.127441,1503.629639 2035.909790,1543.374023 2017.433105,1582.997681 
	C2003.717896,1612.410645 1989.630249,1641.649658 1975.812988,1671.015503 
	C1967.648071,1688.368408 1959.405518,1705.695312 1951.781860,1723.286987 
	C1948.981812,1729.748413 1945.291992,1731.918213 1938.287109,1731.880859 
	C1886.957642,1731.606812 1835.625732,1731.766724 1784.294678,1731.766357 
	C1735.629761,1731.766113 1686.964722,1731.781128 1638.300171,1731.640625 
	C1634.296875,1731.629150 1629.495239,1733.384521 1625.885620,1727.433228 
	C1682.132446,1614.211548 1740.692139,1501.458496 1798.713257,1386.992798 
	C1788.692139,1385.554810 1779.833496,1386.249512 1771.032104,1385.982544 
	C1754.074951,1385.468628 1737.386719,1383.215210 1721.086060,1378.298462 
	C1705.362061,1373.555542 1693.787720,1363.273315 1685.427856,1349.824585 
	C1675.698730,1334.173340 1671.930664,1316.558472 1669.349854,1298.218018 
	C1663.279785,1255.082520 1665.937622,1211.832153 1665.822388,1168.649048 
	C1665.415039,1015.988708 1665.663818,863.326721 1665.663818,710.665344 
	C1665.663818,704.367554 1665.663940,698.069763 1665.663940,690.630371 
	C1662.796143,690.029907 1659.711548,688.831055 1656.623169,688.821594 
	C1619.293213,688.707642 1581.962646,688.766724 1544.632324,688.807373 
	C1543.998047,688.808044 1543.364136,689.138672 1541.418579,689.680725 
	C1541.237305,695.420410 1540.870483,701.596008 1540.872192,707.771484 
	C1540.917358,870.765503 1541.063110,1033.759521 1541.057251,1196.753540 
	C1541.052612,1321.081665 1540.863770,1445.409668 1540.758057,1569.737793 
	C1540.752441,1576.286255 1540.757324,1582.834595 1540.757324,1590.329102 
	C1533.246094,1590.329102 1526.998291,1590.329102 1520.750488,1590.329102 
	C1425.420410,1590.329102 1330.090454,1590.330200 1234.760376,1590.328125 
	C1218.891357,1590.327759 1217.668823,1589.136475 1217.668091,1573.393555 
	C1217.661255,1422.732178 1217.663940,1272.070679 1217.663940,1121.409302 
	C1217.663940,1117.503906 1217.663940,1113.598633 1217.663940,1109.027588 
	C1177.833984,1109.027588 1139.347412,1109.027588 1099.638428,1109.027588 
	C1099.395508,1112.328735 1098.913940,1115.839478 1098.911865,1119.350464 
	C1098.873047,1188.012207 1098.922119,1256.674072 1098.864136,1325.335815 
	C1098.854370,1336.976929 1099.609619,1348.790527 1097.931396,1360.218994 
	C1095.299316,1378.142456 1094.913940,1396.470581 1088.322388,1413.803955 
	C1080.791260,1433.607666 1069.035156,1449.602539 1049.221558,1457.904175 
	C1040.890015,1461.394775 1031.416382,1463.722534 1022.428650,1463.831177 
	C963.442749,1464.544556 904.447815,1464.670410 845.455688,1464.681885 
	C702.463135,1464.709595 559.470581,1464.549805 416.478027,1464.530029 
	C402.683502,1464.528076 389.548248,1461.850464 377.107635,1455.946899 
	C358.449219,1447.092773 348.032471,1431.351562 341.418030,1412.587646 
	C334.398041,1392.673096 332.160034,1371.867676 331.815247,1351.006592 
	C330.934967,1297.740356 330.697540,1244.462769 330.402649,1191.188477 
	C330.342377,1180.299072 333.304810,1177.685303 344.003174,1177.683105 
	C444.666351,1177.662476 545.329529,1177.669434 645.992676,1177.684814 
	C647.967712,1177.685059 649.942749,1177.883911 653.284363,1178.063721 
	C654.075562,1183.805664 655.529297,1189.574341 655.559875,1195.350708 
	C655.764648,1234.014893 655.579956,1272.681152 655.734924,1311.345825 
	C655.768311,1319.651978 656.252258,1328.006470 657.266602,1336.248047 
	C659.308777,1352.840820 669.156433,1361.515503 683.843506,1361.645508 
	C704.480103,1361.828125 725.135925,1362.222168 745.752441,1361.560059 
	C762.653870,1361.017090 769.021790,1353.284302 771.777100,1336.121826 
	C774.698059,1317.927124 774.320190,1299.670532 774.327271,1281.392212 
	C774.346252,1232.393921 774.526550,1183.394287 774.184692,1134.398438 
	C774.108704,1123.515747 772.778442,1112.535889 770.895752,1101.798950 
	C768.528503,1088.298462 760.758911,1081.482544 744.526062,1079.115601 
	C738.632263,1078.256226 732.552368,1078.537109 726.557190,1078.530884 
	C689.225220,1078.491577 651.893311,1078.518555 614.561340,1078.523560 
	C611.620117,1078.523926 608.678894,1078.523560 604.628967,1078.523560 
	C603.783203,1073.354736 602.466919,1068.930786 602.431702,1064.496582 
	C602.230408,1039.165649 602.276917,1013.832214 602.360352,988.500000 
	C602.396729,977.461731 604.157776,975.709595 614.946045,975.586182 
	C654.220093,975.137024 693.496094,974.831299 732.768005,974.246887 
	C739.017395,974.153870 745.278992,973.100098 751.483215,972.152161 
	C761.989929,970.546814 768.116455,963.690491 770.074646,953.864685 
	C772.203369,943.182922 774.079651,932.237305 774.149719,921.394409 
	C774.535095,861.732239 774.476074,802.065735 774.188477,742.402466 
	C774.142517,732.868042 772.997742,723.156616 770.906738,713.853943 
	C767.126343,697.035828 759.922485,691.720825 740.193054,689.391541 
	C723.418091,687.411011 706.221558,688.176331 689.256165,688.850464 
	C670.046387,689.613831 657.735535,701.908752 657.313477,721.231384 
	C656.346619,765.492859 656.164124,809.771545 655.670593,854.043274 
	C655.637146,857.042786 655.946777,860.076782 655.592041,863.034180 
	C655.170776,866.546692 654.202881,869.993591 653.355286,874.022949 
	C546.453125,874.022949 440.246918,874.022949 332.760864,874.022949 
	C331.965332,870.068909 330.453522,866.017212 330.440002,861.960449 
	C330.276428,812.962708 330.117950,763.962585 330.497833,714.967224 
	C330.584564,703.779236 333.833282,692.588440 333.643219,681.432678 
	C333.411682,667.840759 336.583862,655.135132 340.375763,642.475098 
	C347.870331,617.452759 362.430908,599.254395 388.682800,591.413513 
	C401.288727,587.648315 413.773682,585.609314 426.843079,585.622559 
	C605.500793,585.803589 784.158508,585.880859 962.816284,586.011597 
	C982.132812,586.025757 1001.565491,584.933899 1020.733765,586.674011 
	C1040.808228,588.496399 1059.873901,595.121887 1073.763916,611.036682 
	C1083.053467,621.680298 1088.008545,634.805847 1091.892334,648.267700 
	C1092.622437,650.798462 1093.607910,653.377319 1093.681274,655.956543 
	C1094.284790,677.147827 1099.421021,697.844971 1099.141602,719.238708 
	C1098.388550,776.886169 1099.130615,834.552307 1098.523193,892.203064 
	C1098.303833,913.026001 1095.114868,933.767090 1088.945190,953.741150 
	C1082.489746,974.639893 1067.490356,988.189148 1048.258057,997.505127 
	C1046.043213,998.577942 1043.761353,999.512329 1041.908325,1001.840210 
	C1100.021240,1001.840210 1158.134033,1001.840210 1217.663940,1001.840210 
	C1217.663940,997.821960 1217.663940,993.953735 1217.663940,990.085510 
	C1217.663940,862.089966 1217.663940,734.094360 1217.663940,606.098816 
	C1217.663940,604.432190 1217.658813,602.765625 1217.664795,601.098999 
	C1217.715576,587.047852 1218.796021,585.986206 1233.171021,585.986450 
	C1326.827881,585.988220 1420.484619,586.010376 1514.141479,585.994385 
	C1607.796631,585.978394 1701.451782,585.897827 1795.106934,585.897095 
	C1884.093750,585.896362 1973.080566,585.962769 2062.067383,585.998291 
	C2073.297119,586.002747 2084.526855,585.998901 2096.705078,585.998901 
	C2096.041992,583.510620 2096.087158,582.029236 2095.370850,581.232178 
	C2074.979492,558.544922 2053.641602,536.644836 2034.235474,513.148499 
	C1992.795044,462.973816 1952.290894,412.024445 1911.513062,361.304169 
	C1877.591431,319.111908 1843.826050,276.794128 1809.995239,234.528854 
	C1808.959473,233.234924 1807.874512,231.966919 1806.969116,230.584259 
	C1802.628174,223.955414 1804.818115,219.387344 1812.886230,218.538544 
	C1816.187256,218.191269 1819.545410,218.329376 1822.877197,218.342178 
	C1880.536011,218.563766 1938.194824,218.898102 1995.853882,218.987961 
	C2020.844482,219.026917 2045.839355,218.732513 2070.824951,218.231857 
	C2077.874268,218.090622 2081.921875,220.268707 2085.744873,226.751938 
	C2114.159668,274.939331 2143.849609,322.385162 2171.719482,370.879822 
	C2189.325684,401.515472 2204.752930,433.422485 2220.653809,465.012848 
	C2231.968994,487.492706 2242.534668,510.352814 2253.245117,533.132507 
	C2256.891602,540.887878 2259.958496,548.915710 2263.851074,558.109497 
	C2267.188477,566.325012 2269.965088,573.250183 2272.741455,580.175293 
	C2273.458008,579.915161 2274.174561,579.654968 2274.890869,579.394775 
	C2272.786377,572.144714 2271.693359,564.609741 2267.634521,557.909973 
M2110.339844,1033.000122 
	C2110.339844,918.800110 2110.339844,804.600098 2110.339844,689.103149 
	C2066.351562,688.114807 2023.281860,688.602478 1978.980835,688.800720 
	C1978.980835,695.356812 1978.982422,700.951782 1978.980469,706.546753 
	C1978.921509,877.763245 1978.879028,1048.979736 1978.768188,1220.196167 
	C1978.760254,1232.538696 1979.974121,1244.635254 1982.108276,1256.840698 
	C1984.388916,1269.884277 1994.573486,1278.169067 2006.281982,1279.637207 
	C2033.090454,1282.999023 2059.947510,1282.751099 2086.745605,1279.559082 
	C2097.969238,1278.222168 2106.398926,1269.776978 2107.519531,1258.560181 
	C2108.870361,1245.040161 2110.153320,1231.444580 2110.216309,1217.875977 
	C2110.499756,1156.918579 2110.339844,1095.958984 2110.339844,1033.000122 
z"/>
<path fill="#363636" opacity="1.000000" stroke="none" 
	d="
M2267.058594,557.859253 
	C2271.693359,564.609741 2272.786377,572.144714 2274.890869,579.394775 
	C2274.174561,579.654968 2273.458008,579.915161 2272.741455,580.175293 
	C2269.965088,573.250183 2267.188477,566.325012 2264.293213,558.670166 
	C2264.943604,557.896484 2265.713135,557.852478 2267.058594,557.859253 
z"/>
<path fill="#020202" opacity="1.000000" stroke="none" 
	d="
M2110.339844,1034.000244 
	C2110.339844,1095.958984 2110.499756,1156.918579 2110.216309,1217.875977 
	C2110.153320,1231.444580 2108.870361,1245.040161 2107.519531,1258.560181 
	C2106.398926,1269.776978 2097.969238,1278.222168 2086.745605,1279.559082 
	C2059.947510,1282.751099 2033.090454,1282.999023 2006.281982,1279.637207 
	C1994.573486,1278.169067 1984.388916,1269.884277 1982.108276,1256.840698 
	C1979.974121,1244.635254 1978.760254,1232.538696 1978.768188,1220.196167 
	C1978.879028,1048.979736 1978.921509,877.763245 1978.980469,706.546753 
	C1978.982422,700.951782 1978.980835,695.356812 1978.980835,688.800720 
	C2023.281860,688.602478 2066.351562,688.114807 2110.339844,689.103149 
	C2110.339844,804.600098 2110.339844,918.800110 2110.339844,1034.000244 
z"/>
</svg>