<svg width="331" height="110" viewBox="0 0 331 110" fill="none" xmlns="http://www.w3.org/2000/svg">
<path d="M1 109.5L31.5 60.75L46.75 36.375H330.5" stroke="white"/>
<path d="M150.734 16.08C150.734 18.58 148.794 20.12 145.814 20.12C143.694 20.12 142.274 19.58 140.954 18.24L141.974 17.22C143.154 18.4 144.254 18.76 145.854 18.76C147.954 18.76 149.234 17.8 149.234 16.12C149.234 15.36 149.014 14.76 148.534 14.34C148.094 13.94 147.694 13.8 146.674 13.64L145.014 13.4C143.894 13.22 143.054 12.88 142.414 12.32C141.694 11.68 141.314 10.8 141.314 9.64C141.314 7.22 143.054 5.64 145.874 5.64C147.694 5.64 148.894 6.12 150.114 7.2L149.134 8.18C148.274 7.36 147.294 6.94 145.814 6.94C143.894 6.94 142.794 8 142.794 9.6C142.794 10.3 142.994 10.88 143.434 11.26C143.874 11.64 144.554 11.88 145.294 12L146.954 12.26C148.274 12.46 148.894 12.7 149.534 13.28C150.294 13.94 150.734 14.9 150.734 16.08ZM163.612 9.94C163.612 12.48 161.792 14.14 159.212 14.14H155.432V20H153.912V5.76H159.212C161.792 5.76 163.612 7.4 163.612 9.94ZM162.092 9.94C162.092 8.06 160.872 7.12 159.092 7.12H155.432V12.78H159.092C160.872 12.78 162.092 11.82 162.092 9.94ZM175.349 20H166.509V5.76H175.349V7.12H168.029V12.14H174.269V13.5H168.029V18.64H175.349V20ZM188.421 20H186.801L185.661 16.78H179.441L178.301 20H176.681L181.921 5.76H183.201L188.421 20ZM185.221 15.46L182.581 7.94L179.901 15.46H185.221ZM201.388 20H199.588L195.248 12.42L192.248 16.02V20H190.728V5.76H192.248V13.94L198.888 5.76H200.748L196.268 11.26L201.388 20ZM212.576 20H203.736V5.76H212.576V7.12H205.256V12.14H211.496V13.5H205.256V18.64H212.576V20ZM225.688 20H223.908L220.668 13.68H217.248V20H215.728V5.76H221.188C223.668 5.76 225.408 7.26 225.408 9.72C225.408 11.8 224.148 13.16 222.308 13.54L225.688 20ZM223.888 9.74C223.888 8 222.708 7.12 221.048 7.12H217.248V12.34H221.048C222.708 12.34 223.888 11.48 223.888 9.74ZM237.433 16.08C237.433 18.58 235.493 20.12 232.513 20.12C230.393 20.12 228.973 19.58 227.653 18.24L228.673 17.22C229.853 18.4 230.953 18.76 232.553 18.76C234.653 18.76 235.933 17.8 235.933 16.12C235.933 15.36 235.713 14.76 235.233 14.34C234.793 13.94 234.393 13.8 233.373 13.64L231.713 13.4C230.593 13.22 229.753 12.88 229.113 12.32C228.393 11.68 228.013 10.8 228.013 9.64C228.013 7.22 229.753 5.64 232.573 5.64C234.393 5.64 235.593 6.12 236.813 7.2L235.833 8.18C234.973 7.36 233.993 6.94 232.513 6.94C230.593 6.94 229.493 8 229.493 9.6C229.493 10.3 229.693 10.88 230.133 11.26C230.573 11.64 231.253 11.88 231.993 12L233.653 12.26C234.973 12.46 235.593 12.7 236.233 13.28C236.993 13.94 237.433 14.9 237.433 16.08ZM254.171 16.08C254.171 18.58 252.231 20.12 249.251 20.12C247.131 20.12 245.711 19.58 244.391 18.24L245.411 17.22C246.591 18.4 247.691 18.76 249.291 18.76C251.391 18.76 252.671 17.8 252.671 16.12C252.671 15.36 252.451 14.76 251.971 14.34C251.531 13.94 251.131 13.8 250.111 13.64L248.451 13.4C247.331 13.22 246.491 12.88 245.851 12.32C245.131 11.68 244.751 10.8 244.751 9.64C244.751 7.22 246.491 5.64 249.311 5.64C251.131 5.64 252.331 6.12 253.551 7.2L252.571 8.18C251.711 7.36 250.731 6.94 249.251 6.94C247.331 6.94 246.231 8 246.231 9.6C246.231 10.3 246.431 10.88 246.871 11.26C247.311 11.64 247.991 11.88 248.731 12L250.391 12.26C251.711 12.46 252.331 12.7 252.971 13.28C253.731 13.94 254.171 14.9 254.171 16.08ZM266.189 20H257.349V5.76H266.189V7.12H258.869V12.14H265.109V13.5H258.869V18.64H266.189V20ZM277.921 16.08C277.921 18.58 275.981 20.12 273.001 20.12C270.881 20.12 269.461 19.58 268.141 18.24L269.161 17.22C270.341 18.4 271.441 18.76 273.041 18.76C275.141 18.76 276.421 17.8 276.421 16.12C276.421 15.36 276.201 14.76 275.721 14.34C275.281 13.94 274.881 13.8 273.861 13.64L272.201 13.4C271.081 13.22 270.241 12.88 269.601 12.32C268.881 11.68 268.501 10.8 268.501 9.64C268.501 7.22 270.241 5.64 273.061 5.64C274.881 5.64 276.081 6.12 277.301 7.2L276.321 8.18C275.461 7.36 274.481 6.94 273.001 6.94C271.081 6.94 269.981 8 269.981 9.6C269.981 10.3 270.181 10.88 270.621 11.26C271.061 11.64 271.741 11.88 272.481 12L274.141 12.26C275.461 12.46 276.081 12.7 276.721 13.28C277.481 13.94 277.921 14.9 277.921 16.08ZM289.581 16.08C289.581 18.58 287.641 20.12 284.661 20.12C282.541 20.12 281.121 19.58 279.801 18.24L280.821 17.22C282.001 18.4 283.101 18.76 284.701 18.76C286.801 18.76 288.081 17.8 288.081 16.12C288.081 15.36 287.861 14.76 287.381 14.34C286.941 13.94 286.541 13.8 285.521 13.64L283.861 13.4C282.741 13.22 281.901 12.88 281.261 12.32C280.541 11.68 280.161 10.8 280.161 9.64C280.161 7.22 281.901 5.64 284.721 5.64C286.541 5.64 287.741 6.12 288.961 7.2L287.981 8.18C287.121 7.36 286.141 6.94 284.661 6.94C282.741 6.94 281.641 8 281.641 9.6C281.641 10.3 281.841 10.88 282.281 11.26C282.721 11.64 283.401 11.88 284.141 12L285.801 12.26C287.121 12.46 287.741 12.7 288.381 13.28C289.141 13.94 289.581 14.9 289.581 16.08ZM294.279 20H292.759V5.76H294.279V20ZM307.824 12.88C307.824 16.14 307.724 17.38 306.384 18.72C305.504 19.6 304.324 20.12 302.844 20.12C301.364 20.12 300.164 19.6 299.284 18.72C297.944 17.38 297.864 16.14 297.864 12.88C297.864 9.62 297.944 8.38 299.284 7.04C300.164 6.16 301.364 5.64 302.844 5.64C304.324 5.64 305.504 6.16 306.384 7.04C307.724 8.38 307.824 9.62 307.824 12.88ZM306.304 12.88C306.304 9.96 306.204 8.92 305.304 8C304.644 7.34 303.804 7 302.844 7C301.884 7 301.044 7.34 300.384 8C299.484 8.92 299.384 9.96 299.384 12.88C299.384 15.8 299.484 16.84 300.384 17.76C301.044 18.42 301.884 18.76 302.844 18.76C303.804 18.76 304.644 18.42 305.304 17.76C306.204 16.84 306.304 15.8 306.304 12.88ZM321.932 20H320.492L312.932 8.58V20H311.412V5.76H312.852L320.412 17.14V5.76H321.932V20Z" fill="white"/>
</svg>
