<svg width="473" height="388" viewBox="0 0 473 388" fill="none" xmlns="http://www.w3.org/2000/svg">
<path fill-rule="evenodd" clip-rule="evenodd" d="M294.96 136.153L293.905 137.91L283.605 154.94C297.519 161.293 305.328 175.105 305.328 193.33C305.328 206.2 301.038 216.43 292.128 227.98L199.398 345.79V366.91H329.088V345.79H228.108L310.278 240.85C323.148 224.35 329.088 212.14 329.088 193.33C329.088 166.111 316.132 145.78 294.96 136.153ZM457.281 250.42C467.181 230.62 472.131 214.45 472.131 197.62C472.131 157.03 446.721 129.97 406.791 129.97C366.861 129.97 341.781 159.67 341.781 199.6C341.781 238.21 365.871 266.26 402.501 266.26C411.741 266.26 420.321 264.61 427.581 261.31L374.781 366.91H399.531L457.281 250.42ZM406.791 151.09C431.871 151.09 448.371 169.9 448.371 198.61C448.371 227.65 431.871 246.13 406.791 246.13C379.731 246.13 365.541 224.68 365.541 198.61C365.541 169.9 381.711 151.09 406.791 151.09Z" fill="white"/>
<path fill-rule="evenodd" clip-rule="evenodd" d="M0 242.91H129.69V221.79H28.71L110.88 116.85C123.75 100.35 129.69 88.14 129.69 69.33C129.69 30.72 103.62 5.96997 65.01 5.96997C25.74 5.96997 0.330002 32.7 0.330002 69.66H24.09C24.09 39.3 43.23 27.09 65.01 27.09C90.75 27.09 105.93 43.92 105.93 69.33C105.93 82.2 101.64 92.43 92.73 103.98L0 221.79V242.91ZM264.197 139.372L260.871 144.91L250.788 161.534C244.46 143.979 228.048 132.03 208.052 132.03C182.312 132.03 162.512 151.83 162.512 177.9C162.512 203.97 182.312 223.77 208.052 223.77C209.799 223.77 211.519 223.679 213.207 223.501L200.447 244.539C165.23 241.257 138.752 215.212 138.752 178.23C138.752 150.84 154.262 132.36 174.062 121.14C155.582 110.58 143.372 93.42 143.372 69C143.372 32.37 170.762 5.96997 208.052 5.96997C245.342 5.96997 272.732 32.37 272.732 69C272.732 93.42 260.852 110.58 242.372 121.14C250.737 125.88 258.277 131.916 264.197 139.372ZM208.052 27.09C232.142 27.09 248.972 44.91 248.972 69.33C248.972 94.08 232.142 111.24 208.052 111.24C183.962 111.24 167.132 94.08 167.132 69.33C167.132 44.91 183.962 27.09 208.052 27.09Z" fill="white"/>
<path d="M115.229 377.901L111.561 383.97H118.652H147.43H149.686L150.853 382.039L375.076 11.039L378.744 4.96997H371.652H342.875H340.619L339.452 6.90099L115.229 377.901Z" fill="white" stroke="black" stroke-width="8"/>
</svg>
