<svg width="344" height="99" viewBox="0 0 344 99" fill="none" xmlns="http://www.w3.org/2000/svg">
<path d="M343 1L282 98.5H0.5" stroke="white"/>
<path d="M12.44 80.88C11.94 83.54 10.06 85.12 7.5 85.12C6.02 85.12 4.82 84.6 3.94 83.72C2.6 82.38 2.52 81.14 2.52 77.88C2.52 74.62 2.6 73.38 3.94 72.04C4.82 71.16 6.02 70.64 7.5 70.64C10.08 70.64 11.94 72.22 12.44 74.88H10.88C10.5 73.12 9.28 72 7.5 72C6.54 72 5.7 72.34 5.04 73C4.14 73.92 4.04 74.96 4.04 77.88C4.04 80.8 4.14 81.84 5.04 82.76C5.7 83.42 6.54 83.76 7.5 83.76C9.28 83.76 10.54 82.64 10.92 80.88H12.44ZM25.5344 80.3C25.5344 83.14 23.4344 85.12 20.5544 85.12C17.6744 85.12 15.5944 83.14 15.5944 80.3V70.76H17.1144V80.18C17.1144 82.34 18.4744 83.76 20.5544 83.76C22.6344 83.76 24.0144 82.34 24.0144 80.18V70.76H25.5344V80.3ZM38.2467 85H29.4467V70.76H30.9667V83.64H38.2467V85ZM47.61 72.12H43.49V85H41.97V72.12H37.85V70.76H47.61V72.12ZM60.007 80.3C60.007 83.14 57.907 85.12 55.027 85.12C52.147 85.12 50.067 83.14 50.067 80.3V70.76H51.587V80.18C51.587 82.34 52.947 83.76 55.027 83.76C57.107 83.76 58.487 82.34 58.487 80.18V70.76H60.007V80.3ZM73.8794 85H72.0994L68.8594 78.68H65.4394V85H63.9194V70.76H69.3794C71.8594 70.76 73.5994 72.26 73.5994 74.72C73.5994 76.8 72.3394 78.16 70.4994 78.54L73.8794 85ZM72.0794 74.74C72.0794 73 70.8994 72.12 69.2394 72.12H65.4394V77.34H69.2394C70.8994 77.34 72.0794 76.48 72.0794 74.74ZM86.9644 85H85.3444L84.2044 81.78H77.9844L76.8444 85H75.2244L80.4644 70.76H81.7444L86.9644 85ZM83.7644 80.46L81.1244 72.94L78.4444 80.46H83.7644ZM98.0709 85H89.2709V70.76H90.7909V83.64H98.0709V85ZM114.556 72.12H107.236V77.36H113.476V78.72H107.236V85H105.716V70.76H114.556V72.12ZM126.158 85H117.318V70.76H126.158V72.12H118.838V77.14H125.078V78.5H118.838V83.64H126.158V85ZM137.89 81.08C137.89 83.58 135.95 85.12 132.97 85.12C130.85 85.12 129.43 84.58 128.11 83.24L129.13 82.22C130.31 83.4 131.41 83.76 133.01 83.76C135.11 83.76 136.39 82.8 136.39 81.12C136.39 80.36 136.17 79.76 135.69 79.34C135.25 78.94 134.85 78.8 133.83 78.64L132.17 78.4C131.05 78.22 130.21 77.88 129.57 77.32C128.85 76.68 128.47 75.8 128.47 74.64C128.47 72.22 130.21 70.64 133.03 70.64C134.85 70.64 136.05 71.12 137.27 72.2L136.29 73.18C135.43 72.36 134.45 71.94 132.97 71.94C131.05 71.94 129.95 73 129.95 74.6C129.95 75.3 130.15 75.88 130.59 76.26C131.03 76.64 131.71 76.88 132.45 77L134.11 77.26C135.43 77.46 136.05 77.7 136.69 78.28C137.45 78.94 137.89 79.9 137.89 81.08ZM149.27 72.12H145.15V85H143.63V72.12H139.51V70.76H149.27V72.12Z" fill="white"/>
</svg>
