<svg version="1.1" id="Layer_1" xmlns="http://www.w3.org/2000/svg" xmlns:xlink="http://www.w3.org/1999/xlink" x="0px" y="0px"
	 width="100%" viewBox="0 0 4096 1774" enable-background="new 0 0 4096 1774" xml:space="preserve">
<path fill="#000000" opacity="1.000000" stroke="none" 
	d="
M2.000000,1086.000000 
	C2.000000,724.691406 2.000000,363.382874 2.000000,2.074303 
	C2.308543,2.049536 2.617085,2.003055 2.925628,2.003054 
	C1367.832031,1.999995 2732.738525,2.000000 4097.822266,2.000000 
	C4097.822266,593.174377 4097.822266,1184.348877 4097.822266,1775.761719 
	C2732.666748,1775.761719 1367.333374,1775.761719 2.000007,1775.759521 
	C2.000000,1556.439453 2.000000,1337.121582 2.904663,1117.083984 
	C14.806239,1116.366089 25.803154,1116.368896 36.800068,1116.368896 
	C1053.211548,1116.369141 2069.623047,1116.371216 3086.034668,1116.356812 
	C3111.356689,1116.356445 3136.678955,1116.173584 3162.732422,1116.330078 
	C3165.109375,1116.814209 3166.782715,1116.923706 3168.395996,1117.294556 
	C3176.142822,1119.074951 3181.849121,1116.305298 3186.321777,1109.905884 
	C3188.202148,1107.215210 3190.772705,1104.979736 3193.165283,1102.678467 
	C3210.371582,1086.129272 3227.658203,1069.663696 3244.815186,1053.063721 
	C3250.318848,1047.738892 3255.354248,1041.929688 3260.869385,1036.617798 
	C3285.246582,1013.138672 3309.736816,989.776794 3334.143311,966.327881 
	C3337.983398,962.638428 3341.455322,958.560791 3345.349854,954.933899 
	C3362.588623,938.879272 3380.068115,923.080627 3397.177002,906.889526 
	C3415.738281,889.323608 3434.032959,871.474609 3452.357178,853.659790 
	C3475.426025,831.232117 3498.312256,808.615845 3521.461914,786.272644 
	C3535.061279,773.147034 3549.157227,760.536804 3562.783691,747.438843 
	C3582.873535,728.127380 3602.724854,708.567627 3622.715088,689.152100 
	C3639.861572,672.498474 3657.108887,655.948486 3674.215332,639.254150 
	C3682.790283,630.885986 3690.993896,622.134216 3699.639893,613.842529 
	C3718.530029,595.726990 3737.678955,577.881836 3756.562256,559.759521 
	C3771.662109,545.268127 3786.448242,530.450256 3801.516113,515.925171 
	C3817.255127,500.753174 3833.152344,485.744843 3849.003906,470.690002 
	C3862.720459,457.663055 3876.581543,444.785919 3890.165771,431.622772 
	C3899.143799,422.923004 3907.745361,413.834839 3917.330566,404.091980 
	C3913.010986,401.137970 3909.413330,398.677795 3905.159668,396.015625 
	C3901.708984,394.430939 3898.914795,393.048279 3895.875732,390.991577 
	C3893.060303,391.358948 3889.964600,391.808167 3888.007324,393.542114 
	C3878.307861,402.135376 3868.746094,410.899323 3859.433350,419.910492 
	C3824.086426,454.113495 3788.917969,488.501465 3753.555420,522.688171 
	C3731.086426,544.409973 3708.338623,565.843201 3685.818604,587.512573 
	C3672.639648,600.193604 3659.762939,613.188843 3646.575439,625.860596 
	C3614.939697,656.258423 3583.157471,686.503723 3551.519287,716.898865 
	C3530.900635,736.707458 3510.497070,756.739929 3489.879395,776.549683 
	C3449.394531,815.447632 3408.807373,854.239014 3368.301758,893.115540 
	C3341.456787,918.880859 3314.635254,944.671143 3287.883545,970.533386 
	C3255.123291,1002.203918 3222.476318,1033.991699 3189.710938,1065.657104 
	C3182.575684,1072.553101 3175.146973,1079.145630 3166.925537,1085.863525 
	C3158.399902,1085.916260 3150.802490,1086.025024 3143.204834,1086.042358 
	C3117.445068,1086.100952 3091.685547,1086.127319 3065.001953,1086.031006 
	C3040.706055,1086.000244 3017.333496,1086.104614 2993.037109,1086.056030 
	C2827.739502,1085.888306 2663.365967,1085.871582 2498.992188,1085.874756 
	C2496.005615,1085.874756 2493.019287,1086.111084 2489.108398,1086.055908 
	C2468.800537,1085.967529 2449.416992,1086.060425 2429.108887,1085.971924 
	C2403.517334,1085.948242 2378.850098,1086.105957 2353.249023,1086.081177 
	C2339.887939,1085.858887 2327.459229,1085.716675 2315.034180,1085.869507 
	C2312.656250,1085.898682 2310.292725,1087.090088 2307.194092,1087.841309 
	C2305.000977,1087.868530 2303.536133,1087.800049 2301.713379,1087.129761 
	C2299.542236,1086.466309 2297.729004,1086.404541 2294.990479,1086.228516 
	C2185.374512,1086.101685 2076.684326,1086.086792 1967.993896,1086.090698 
	C1966.006226,1086.090698 1964.018677,1086.313110 1961.516846,1086.291016 
	C1960.659790,1086.242920 1960.316772,1086.335693 1959.320068,1086.310425 
	C1957.788208,1086.270996 1956.909668,1086.349609 1955.517090,1086.288330 
	C1954.659912,1086.240967 1954.316895,1086.333252 1953.109863,1086.294189 
	C1948.174072,1086.251587 1944.102539,1086.340332 1939.517090,1086.287231 
	C1938.660278,1086.237793 1938.317261,1086.330078 1937.180664,1086.294678 
	C1934.252197,1086.267578 1932.117065,1086.368164 1929.207031,1086.234619 
	C1926.296143,1086.145874 1924.160400,1086.291260 1921.280518,1086.310059 
	C1919.034546,1086.266235 1917.532593,1086.348999 1915.516846,1086.290527 
	C1914.659912,1086.241211 1914.316895,1086.333252 1913.320190,1086.306763 
	C1911.788208,1086.267090 1910.909668,1086.345825 1909.516357,1086.286865 
	C1908.659058,1086.243896 1908.316528,1086.338623 1907.047363,1086.299561 
	C1887.424072,1086.250854 1868.727539,1086.335938 1849.515991,1086.283813 
	C1848.658691,1086.241821 1848.316406,1086.337036 1847.084351,1086.302490 
	C1840.806763,1086.263428 1835.419067,1086.354248 1829.516968,1086.306763 
	C1828.659790,1086.260010 1828.316772,1086.351562 1827.051270,1086.304688 
	C1816.096313,1086.248535 1806.064087,1086.330933 1795.515381,1086.281250 
	C1794.657471,1086.246826 1794.315918,1086.344482 1793.314087,1086.326050 
	C1791.767090,1086.288818 1790.880371,1086.367554 1789.260986,1086.231689 
	C1787.024780,1086.161133 1785.520996,1086.305298 1783.348389,1086.329834 
	C1781.779541,1086.285522 1780.879883,1086.361084 1779.145996,1086.219971 
	C1774.885376,1086.148315 1771.458984,1086.293091 1767.287598,1086.311279 
	C1765.038696,1086.266846 1763.534790,1086.349121 1761.517090,1086.289551 
	C1760.659912,1086.240723 1760.316895,1086.333740 1759.046631,1086.296387 
	C1720.647827,1086.126221 1683.176270,1086.043701 1645.704712,1086.062134 
	C1622.496826,1086.073486 1599.288940,1086.238037 1575.157227,1086.126465 
	C1486.441040,1085.876343 1398.648560,1085.830566 1310.856079,1085.813843 
	C1309.210083,1085.813599 1307.564087,1086.157471 1304.992432,1086.226929 
	C1289.406250,1086.192383 1274.745728,1086.271729 1259.254150,1086.142456 
	C1255.586914,1086.074829 1252.750610,1086.215942 1248.989014,1086.241699 
	C1218.053101,1086.222046 1188.042358,1086.317627 1157.515625,1086.279297 
	C1156.657715,1086.243042 1156.315918,1086.340698 1155.320312,1086.323242 
	C1153.788208,1086.281372 1152.909546,1086.354492 1151.517578,1086.281494 
	C1150.660645,1086.227783 1150.316895,1086.320312 1149.184326,1086.287598 
	C1146.274048,1086.256836 1144.152710,1086.351318 1141.516113,1086.308960 
	C1140.658569,1086.266846 1140.316040,1086.361572 1139.320312,1086.334717 
	C1137.788208,1086.294067 1136.909668,1086.375122 1135.517456,1086.313721 
	C1134.660400,1086.262085 1134.316895,1086.352661 1133.185669,1086.307983 
	C1130.275757,1086.267822 1128.153320,1086.362915 1125.516602,1086.317139 
	C1124.659302,1086.270264 1124.316406,1086.364258 1123.320679,1086.336426 
	C1121.788696,1086.290161 1120.909790,1086.365723 1119.517456,1086.296875 
	C1118.660889,1086.244873 1118.317627,1086.337402 1117.047363,1086.298096 
	C1102.109375,1086.234253 1088.098389,1086.302246 1073.164062,1086.158936 
	C985.112915,1085.897095 897.985107,1085.843750 810.857300,1085.819336 
	C809.211304,1085.818970 807.565125,1086.161011 805.032959,1086.229858 
	C798.791870,1086.191772 793.436829,1086.267090 787.158325,1086.133301 
	C731.093811,1085.823975 675.952637,1085.719116 620.811523,1085.645630 
	C619.166626,1085.643433 617.521301,1085.969360 614.951050,1086.057861 
	C579.340271,1086.049805 544.654602,1086.125977 509.043030,1086.059814 
	C339.411469,1085.945068 170.705734,1085.972534 2.000000,1086.000000 
M799.558105,833.892212 
	C795.388672,832.921326 791.223999,831.134277 787.049133,831.110291 
	C757.083374,830.938110 727.115479,831.114563 697.148560,831.243958 
	C696.284180,831.247681 695.422852,831.957642 694.113953,832.535156 
	C694.240479,834.749573 694.365112,836.929993 694.484985,839.027649 
	C696.052307,839.477844 697.012390,840.049255 697.911499,839.965515 
	C705.826965,839.228638 709.554504,843.944885 711.134155,850.644714 
	C712.266785,855.448242 712.902100,860.482727 712.921204,865.417419 
	C713.100098,911.705627 713.229675,957.995239 712.997925,1004.282532 
	C712.965454,1010.777283 711.241699,1017.343262 709.691589,1023.728394 
	C708.139221,1030.122925 704.108948,1034.170898 696.967651,1034.198608 
	C696.110901,1034.201904 695.257324,1035.026245 694.398621,1035.472046 
	C694.276306,1036.593140 693.960510,1037.607910 694.114563,1038.545532 
	C694.312439,1039.749023 694.887939,1040.890381 695.218567,1041.825928 
	C721.563904,1041.825928 747.359192,1041.825928 773.762878,1041.825928 
	C773.556030,1038.916016 773.405090,1036.792725 773.206909,1034.004517 
	C769.583679,1034.004517 766.637573,1033.898193 763.701538,1034.024902 
	C755.891663,1034.362061 751.166687,1030.066040 748.510986,1023.393677 
	C747.187866,1020.069397 746.491638,1016.295654 746.421387,1012.707397 
	C746.121826,997.408691 746.157654,982.103394 746.080811,966.800476 
	C746.061401,962.925415 746.077942,959.050232 746.077942,954.546143 
	C749.866455,954.261169 752.761719,953.891541 755.661133,953.855103 
	C762.985596,953.763000 770.318054,954.013489 777.636230,953.779358 
	C794.393494,953.243347 810.697571,950.666992 825.399841,941.864868 
	C839.615784,933.353882 847.206055,920.790466 847.720825,904.210144 
	C847.999756,895.227234 847.908020,886.226624 847.728699,877.239136 
	C847.670471,874.322449 847.250427,871.254883 846.235596,868.540588 
	C838.445618,847.705139 822.069763,837.887146 799.558105,833.892212 
M1385.001953,830.943054 
	C1370.830322,831.051941 1356.658691,831.160828 1341.951050,831.273804 
	C1342.128784,834.782288 1342.239014,836.959412 1342.340820,838.969482 
	C1357.266357,841.805176 1360.045898,845.189026 1360.535400,860.411865 
	C1360.546021,860.744873 1360.567627,861.077820 1360.567871,861.410828 
	C1360.601685,910.722046 1360.723022,960.033447 1360.615479,1009.344360 
	C1360.580933,1025.217773 1356.531982,1030.685913 1342.045532,1035.951172 
	C1342.185913,1037.741577 1342.334106,1039.631836 1342.518921,1041.989502 
	C1368.897217,1041.989502 1394.762695,1041.989502 1421.148071,1041.989502 
	C1421.148071,1039.298096 1421.148071,1036.915161 1421.148071,1034.008301 
	C1418.831177,1034.008301 1417.213989,1034.014526 1415.596802,1034.007324 
	C1401.214355,1033.942505 1394.649292,1027.491821 1394.117676,1012.843140 
	C1393.539795,996.922485 1392.979736,981.001099 1392.456177,965.078613 
	C1392.349976,961.849365 1392.440674,958.613647 1392.440674,954.286987 
	C1397.213989,954.111755 1400.754395,953.870850 1404.294922,953.870728 
	C1420.597900,953.870300 1436.922852,954.345703 1452.929565,950.254883 
	C1468.233032,946.343811 1481.665039,939.373840 1489.862305,925.334290 
	C1499.941284,908.072510 1495.023682,889.000061 1495.240723,870.589844 
	C1495.254639,869.414795 1493.999268,868.269470 1493.525269,867.036987 
	C1488.741333,854.600098 1479.940552,846.026245 1468.173828,840.114685 
	C1456.132202,834.064941 1443.270142,831.358459 1429.978882,830.992859 
	C1415.663452,830.599182 1401.328247,830.923584 1385.001953,830.943054 
M2149.054688,1042.511230 
	C2158.229736,1042.511230 2167.404785,1042.511230 2178.556641,1042.511230 
	C2176.799805,1038.457397 2176.432617,1035.085815 2174.829102,1034.326904 
	C2165.606201,1029.962158 2164.688232,1022.017578 2164.727539,1013.388428 
	C2164.824219,992.079956 2164.949707,970.771179 2164.897461,949.462891 
	C2164.878174,941.564392 2164.036865,933.884033 2162.336914,925.964478 
	C2159.519531,912.837952 2152.556885,904.467163 2140.622559,900.312134 
	C2135.191895,898.421326 2128.897217,899.016663 2122.995850,898.471924 
	C2108.986572,897.178772 2097.768555,902.715149 2088.217041,912.519592 
	C2086.016113,914.778809 2083.470703,916.702087 2079.402344,920.243530 
	C2078.912109,911.795349 2078.544189,905.459534 2078.189941,899.357178 
	C2063.238770,896.978943 2050.775391,904.307678 2037.354370,905.808777 
	C2036.235352,905.933899 2034.340820,908.386658 2034.559814,909.365845 
	C2035.085571,911.718201 2036.126831,914.540649 2037.923950,915.888611 
	C2040.735596,917.997620 2044.343140,919.045715 2047.198608,920.353271 
	C2047.581299,921.662292 2047.927368,922.296631 2047.929443,922.932007 
	C2048.035400,956.219299 2048.060791,989.506958 2048.250488,1022.793640 
	C2048.276367,1027.355713 2046.243896,1030.351685 2042.683594,1032.627197 
	C2039.133301,1034.895996 2037.385864,1037.612183 2040.483643,1042.615601 
	C2056.995117,1041.912354 2074.059326,1043.931641 2093.431885,1041.358887 
	C2090.497314,1037.526978 2089.327881,1034.594238 2087.206787,1033.492554 
	C2080.739258,1030.133423 2078.551758,1025.133301 2078.656738,1018.088135 
	C2079.009277,994.452942 2078.934814,970.811646 2079.180908,947.174377 
	C2079.304199,935.324280 2087.587402,923.580627 2098.820068,919.827942 
	C2103.314453,918.326477 2107.518066,916.100647 2113.151123,917.790894 
	C2128.978027,922.539856 2135.984619,932.332886 2136.859619,947.318115 
	C2138.196533,970.216797 2137.816650,993.261292 2137.064697,1016.207825 
	C2136.846924,1022.849976 2136.410156,1031.127808 2127.441406,1034.289551 
	C2123.742188,1035.593628 2124.513672,1038.901978 2126.666016,1042.505981 
	C2133.220703,1042.505981 2140.162598,1042.505981 2149.054688,1042.511230 
M936.159851,1045.862671 
	C939.488464,1045.866089 942.818542,1045.808594 946.145508,1045.884155 
	C956.151245,1046.111450 963.101257,1040.796509 968.642334,1033.242676 
	C972.043213,1028.606445 971.485291,1025.824463 966.832886,1020.437073 
	C966.122986,1021.077332 965.350769,1021.656128 964.719788,1022.361328 
	C959.169495,1028.563599 952.981384,1028.486328 949.057129,1021.407532 
	C947.073914,1017.830017 946.070740,1013.271423 946.014648,1009.137573 
	C945.739502,988.836609 946.220398,968.524109 945.850647,948.226257 
	C945.625671,935.876465 942.589355,924.030884 936.229492,913.238708 
	C931.771484,905.673645 925.292114,899.953125 916.691223,899.045166 
	C897.284607,896.996582 878.268555,897.210876 862.214172,911.609131 
	C853.185364,919.706543 849.473267,929.040710 851.112854,940.688110 
	C851.402588,942.746521 852.854431,944.949219 854.382751,946.468567 
	C859.288635,951.346069 865.231689,952.368652 870.835510,949.746521 
	C876.921875,946.898499 881.081543,939.309570 880.278137,932.441711 
	C879.507996,925.858704 876.439026,920.751953 868.074280,917.797729 
	C874.171143,914.681885 878.061951,912.218628 882.281250,910.624939 
	C895.692322,905.559326 906.897583,910.902222 912.454407,924.409607 
	C917.337280,936.278748 914.773010,948.421387 915.557922,960.412537 
	C912.154907,961.602173 910.016968,962.464172 907.814087,963.101440 
	C891.028870,967.957520 873.935425,971.794739 858.535278,980.707397 
	C847.886414,986.870422 841.225281,994.937500 841.927612,1007.842102 
	C842.108154,1011.159668 841.892761,1014.497620 841.893738,1017.826233 
	C841.898315,1033.279907 853.909912,1045.582031 869.323059,1045.878418 
	C873.315857,1045.955200 877.312439,1045.826538 881.305725,1045.889771 
	C892.881348,1046.072876 902.782104,1042.331909 910.725403,1033.699585 
	C912.588501,1031.674927 914.809509,1029.979492 917.002075,1028.010254 
	C924.359558,1040.913330 924.359558,1040.913330 936.159851,1045.862671 
M1919.226318,1031.833252 
	C1930.102783,1041.376587 1942.469360,1046.074829 1957.243042,1046.125854 
	C1970.567261,1046.171753 1983.017212,1044.595459 1994.472046,1037.434692 
	C2006.686523,1029.798828 2013.797241,1018.834290 2016.985474,1004.259155 
	C2014.340698,1003.763489 2012.236694,1003.369202 2011.024658,1003.142090 
	C2000.025391,1018.223328 1986.510254,1026.671021 1968.357544,1025.205933 
	C1952.562256,1023.931152 1939.436157,1017.937744 1933.793213,1001.422363 
	C1933.048828,999.243469 1931.279541,997.367798 1930.757812,995.168335 
	C1928.994019,987.731262 1924.766235,980.647217 1926.652710,971.748901 
	C1958.012085,971.748901 1988.871704,971.748901 2019.489624,971.748901 
	C2023.847046,956.713562 2017.988281,933.085266 2010.622559,922.268921 
	C2001.481201,908.845093 1989.639893,899.682190 1972.494141,897.937195 
	C1964.828735,897.156982 1957.586426,897.253967 1950.028931,898.280945 
	C1938.463135,899.852539 1928.588379,904.108093 1919.704712,911.855469 
	C1907.373169,922.609924 1900.579224,935.916687 1897.333374,951.737061 
	C1891.189575,981.682129 1896.009155,1008.479980 1919.226318,1031.833252 
M1689.028442,1045.905273 
	C1701.381958,1047.215576 1712.678711,1044.150024 1723.341919,1037.966919 
	C1736.289917,1030.458984 1743.291504,1019.174438 1746.476318,1002.732300 
	C1742.767578,1003.740051 1739.158691,1003.761963 1738.671021,1005.006592 
	C1735.134033,1014.035034 1726.828125,1017.338318 1719.429199,1021.412598 
	C1708.628906,1027.359985 1696.989380,1026.357910 1685.691772,1022.964050 
	C1669.375488,1018.062500 1663.460449,1004.018372 1658.418335,989.769470 
	C1656.528931,984.430115 1656.260010,978.517456 1654.989014,971.389221 
	C1687.482300,971.389221 1718.578125,971.389221 1749.798950,971.389221 
	C1752.211792,956.719177 1750.006714,943.893738 1744.939697,931.450623 
	C1740.021973,919.374084 1732.446533,909.415344 1720.510010,903.641296 
	C1698.912964,893.194092 1677.631348,895.404297 1656.777832,906.126648 
	C1655.611694,906.726257 1654.543945,907.538818 1653.490601,908.332336 
	C1636.262451,921.310791 1627.917480,939.609924 1625.089600,960.075500 
	C1622.509521,978.747498 1625.127197,997.236511 1634.980591,1013.945496 
	C1646.678467,1033.781860 1662.713379,1046.724487 1689.028442,1045.905273 
M1804.218628,1031.346680 
	C1800.668091,1028.053101 1796.782104,1025.048584 1793.639038,1021.403625 
	C1787.684326,1014.498047 1784.615112,1006.342651 1783.798950,997.153137 
	C1783.422241,992.909973 1781.196289,989.484436 1775.091919,992.296509 
	C1775.091919,1002.094849 1775.135010,1012.041687 1775.081543,1021.987976 
	C1775.003540,1036.508179 1776.053467,1037.927734 1790.191772,1041.755737 
	C1791.154419,1042.016235 1792.184082,1042.047485 1793.129761,1042.350220 
	C1809.396118,1047.556152 1826.159790,1046.092285 1842.732300,1045.392700 
	C1848.373657,1045.154541 1854.491821,1042.624634 1859.337402,1039.504150 
	C1879.110474,1026.770630 1880.079956,1002.346741 1866.948120,983.741638 
	C1862.627197,977.619995 1856.537598,972.473938 1850.476807,967.920044 
	C1842.287964,961.767090 1833.245972,956.763611 1824.756226,950.992981 
	C1816.591431,945.443176 1807.856323,940.680420 1802.684448,931.447510 
	C1796.407227,920.241333 1800.968994,909.726196 1813.820679,908.023010 
	C1818.727661,907.372742 1823.848877,907.322815 1828.760498,907.919861 
	C1842.097046,909.540955 1852.713501,915.455811 1858.055786,928.559570 
	C1860.183472,933.778687 1861.889404,939.178101 1864.201294,944.308899 
	C1864.932251,945.930725 1867.006714,946.947205 1869.633789,949.275452 
	C1869.633789,933.758484 1869.633789,920.224121 1869.633789,906.555725 
	C1857.488770,901.832825 1845.693726,897.722717 1832.720703,898.416565 
	C1826.072144,898.772278 1819.366821,898.893616 1812.730835,898.456848 
	C1803.936279,897.878113 1796.461426,900.804321 1789.289551,905.450317 
	C1775.096069,914.644958 1769.044189,940.648499 1778.873901,954.424866 
	C1783.822998,961.360840 1789.997803,967.855652 1796.825439,972.923523 
	C1809.320679,982.198364 1822.668823,990.332642 1835.746704,998.810486 
	C1842.773193,1003.365479 1847.573608,1009.538879 1849.440430,1017.636475 
	C1851.715210,1027.504150 1846.711426,1034.862549 1836.650391,1036.228516 
	C1826.003174,1037.673950 1815.405396,1037.542603 1804.218628,1031.346680 
M986.031860,927.852295 
	C986.019348,931.517517 986.236084,935.200989 985.947021,938.844238 
	C985.327698,946.650085 987.865540,953.367004 993.031494,958.955994 
	C997.517700,963.809753 1002.080750,968.793030 1007.390686,972.641724 
	C1017.291992,979.818054 1027.707642,986.294373 1038.010132,992.904724 
	C1045.840576,997.929016 1053.446289,1002.931030 1058.148071,1011.519104 
	C1063.794312,1021.832031 1060.674927,1033.072510 1050.289185,1035.680786 
	C1033.665283,1039.855591 1009.299683,1034.205566 1002.064880,1018.616089 
	C998.692078,1011.348389 995.301025,1004.439514 994.350769,996.475525 
	C993.701599,991.035095 991.085510,989.718384 986.023743,992.549744 
	C986.023743,1003.032532 986.051941,1013.344788 986.016296,1023.656799 
	C985.975220,1035.537109 986.333557,1036.161621 997.289246,1040.398560 
	C999.442627,1041.231445 1001.768433,1041.606201 1003.970886,1042.326172 
	C1017.563965,1046.769775 1031.611206,1045.640503 1045.567261,1045.916870 
	C1052.675537,1046.057739 1059.343506,1044.894165 1065.929932,1042.194092 
	C1078.073730,1037.215942 1089.055786,1019.190308 1086.714478,1006.604858 
	C1084.307251,993.665161 1079.755371,981.593994 1068.501099,973.523743 
	C1058.006714,965.998352 1047.280518,958.794312 1036.601807,951.528931 
	C1028.143311,945.773987 1019.069336,940.886963 1013.692261,931.464539 
	C1007.447144,920.521057 1012.287598,909.427551 1024.832520,908.069275 
	C1031.378052,907.360657 1038.338013,907.231079 1044.686279,908.688782 
	C1054.989380,911.054688 1063.927246,916.167358 1068.041382,926.993225 
	C1070.161255,932.571594 1072.388794,938.118347 1074.842773,943.555237 
	C1075.644775,945.332336 1077.315063,946.717529 1080.134766,950.182251 
	C1080.134766,933.831055 1080.134766,920.068848 1080.134766,906.527466 
	C1066.824097,900.577209 1053.731323,897.607483 1039.830811,898.376465 
	C1033.848999,898.707458 1027.837402,898.457581 1021.842041,898.593628 
	C1003.585632,899.007812 991.203552,908.571716 986.031860,927.852295 
M2238.970215,910.593933 
	C2247.296143,910.508484 2255.623047,910.472168 2263.947754,910.320435 
	C2269.557129,910.218140 2270.308838,907.126648 2268.792480,901.491455 
	C2257.664062,901.491455 2246.842529,901.491455 2235.371094,901.491455 
	C2235.371094,885.856934 2235.371094,871.312134 2235.371094,856.486328 
	C2224.946777,854.838867 2215.652588,856.515503 2205.146240,860.137817 
	C2205.146240,873.585876 2205.146240,887.351990 2205.146240,901.438293 
	C2199.330811,901.915283 2194.857422,902.282166 2190.228760,902.661804 
	C2189.746338,914.085815 2200.077881,907.898987 2204.502441,912.511658 
	C2204.502441,915.189026 2204.501953,918.490784 2204.502686,921.792542 
	C2204.506836,943.116882 2204.048340,964.455261 2204.690674,985.760315 
	C2205.069092,998.305786 2206.568115,1010.913452 2208.832520,1023.260315 
	C2209.781006,1028.432007 2213.446777,1033.458740 2216.882080,1037.746094 
	C2223.694336,1046.247681 2233.592041,1045.663086 2243.395264,1046.050903 
	C2259.212158,1046.676636 2268.802002,1038.151611 2276.296631,1025.824341 
	C2278.391357,1022.378723 2279.671875,1018.737305 2276.261230,1014.186768 
	C2272.954102,1017.085205 2270.060303,1019.714905 2267.066895,1022.226013 
	C2260.589844,1027.659546 2253.978760,1029.332397 2246.283691,1024.061279 
	C2239.399658,1019.345398 2235.715088,1013.221436 2235.709961,1004.986572 
	C2235.694824,981.335999 2235.697510,957.684570 2235.901611,934.035278 
	C2235.967041,926.465820 2236.682617,918.901978 2238.970215,910.593933 
M1134.217651,1043.438110 
	C1141.421265,1047.198975 1149.203003,1045.851196 1156.772095,1045.768555 
	C1169.514038,1045.629517 1184.060669,1034.801392 1187.697388,1022.845947 
	C1188.386963,1020.579163 1187.796265,1017.922974 1187.796265,1015.502808 
	C1186.330200,1015.419006 1185.468628,1015.098267 1185.100830,1015.393127 
	C1182.779541,1017.254944 1180.567627,1019.253174 1178.319824,1021.206665 
	C1169.923096,1028.504150 1164.484741,1029.396729 1155.968384,1023.937378 
	C1149.115967,1019.544617 1145.629028,1012.973083 1145.666870,1004.660339 
	C1145.801270,975.037354 1145.880371,945.414062 1146.045288,915.791260 
	C1146.053955,914.237915 1146.658813,912.687927 1147.175903,910.236816 
	C1157.629272,910.236816 1167.840942,910.236816 1178.520386,910.236816 
	C1178.681274,907.139282 1178.792114,905.006897 1178.969971,901.582275 
	C1167.544678,901.582275 1156.772583,901.582275 1145.350586,901.582275 
	C1145.350586,885.802917 1145.350586,871.272766 1145.350586,856.316833 
	C1134.954346,855.153625 1125.608521,856.313293 1115.144043,860.232117 
	C1115.144043,873.600708 1115.144043,887.355713 1115.144043,901.430359 
	C1109.340698,901.915527 1104.870972,902.289185 1100.217041,902.678223 
	C1099.806885,914.043762 1110.066772,907.890564 1114.515503,912.529358 
	C1114.515503,916.144714 1114.401367,920.445435 1114.533813,924.738525 
	C1115.484619,955.578796 1112.397583,986.497925 1117.694702,1017.287354 
	C1119.590576,1028.307129 1123.749146,1036.680908 1134.217651,1043.438110 
M1518.589478,1042.542236 
	C1534.139160,1042.542236 1549.688721,1042.542236 1567.280518,1042.542236 
	C1565.486206,1038.571533 1565.068726,1035.134277 1563.278442,1034.119629 
	C1555.477173,1029.698975 1553.721680,1022.860596 1553.799927,1014.735840 
	C1554.011230,992.768127 1554.008179,970.798462 1554.198853,948.830505 
	C1554.323975,934.410217 1564.397949,922.435486 1579.419556,918.793457 
	C1579.977295,920.664368 1580.421265,922.592468 1581.119629,924.423523 
	C1584.909546,934.358459 1592.160645,938.072937 1602.581299,935.492371 
	C1611.499390,933.283875 1616.627808,924.459106 1615.333252,913.549561 
	C1614.388794,905.589355 1606.660889,899.069397 1598.182861,898.550964 
	C1581.524048,897.532410 1570.139771,906.650635 1559.768555,917.961060 
	C1558.423706,919.427795 1556.745361,920.588806 1553.341675,923.498657 
	C1553.341675,913.655457 1553.341675,906.239258 1553.341675,897.327087 
	C1538.456665,900.407410 1525.009766,903.190125 1511.040283,906.080994 
	C1511.364136,909.630249 1511.623901,912.477417 1511.853882,914.998413 
	C1523.628540,919.453857 1526.082275,922.737854 1526.118530,934.231018 
	C1526.204712,961.526001 1526.180420,988.821350 1526.210815,1016.116516 
	C1526.219482,1023.829285 1524.302246,1030.335938 1516.803467,1034.388916 
	C1512.657593,1036.629639 1512.543823,1039.834839 1518.589478,1042.542236 
M2330.447266,1016.851196 
	C2328.148193,1008.651489 2322.676270,1003.818298 2314.348877,1002.786621 
	C2306.960693,1001.871399 2298.558105,1006.551270 2295.670654,1013.373291 
	C2292.261719,1021.427429 2293.262939,1029.552246 2297.334229,1037.227173 
	C2297.906738,1038.306274 2299.194092,1039.110352 2300.307373,1039.781738 
	C2307.395020,1044.056519 2314.822998,1044.117432 2322.210693,1040.875000 
	C2329.334229,1037.748535 2330.697998,1031.234497 2330.981934,1024.345093 
	C2331.063477,1022.367615 2330.805420,1020.376282 2330.447266,1016.851196 
M1225.215942,1002.748901 
	C1207.118530,1004.275696 1203.932495,1020.923523 1208.689209,1032.776489 
	C1211.481934,1039.735352 1216.612427,1043.058594 1224.845215,1043.082886 
	C1233.910889,1043.109619 1239.728760,1039.766724 1242.567505,1032.899780 
	C1248.363892,1018.878967 1241.839600,1006.432800 1225.215942,1002.748901 
z"/>
<path fill="#DEDEDE" opacity="1.000000" stroke="none" 
	d="
M3162.000977,1116.075928 
	C3136.678955,1116.173584 3111.356689,1116.356445 3086.034668,1116.356812 
	C2069.623047,1116.371216 1053.211548,1116.369141 36.800068,1116.368896 
	C25.803154,1116.368896 14.806239,1116.366089 2.904663,1116.182251 
	C2.000000,1112.572266 2.000000,1109.144531 2.897425,1104.880371 
	C14.050590,1104.692993 24.306274,1105.909668 34.562077,1105.910645 
	C906.844788,1105.994995 1779.127441,1105.984863 2651.410156,1105.982300 
	C2815.733887,1105.981812 2980.057617,1106.000732 3144.381348,1105.903442 
	C3148.928711,1105.900757 3153.475586,1104.670532 3158.527100,1104.483887 
	C3160.073975,1108.101685 3161.116699,1111.248413 3162.111084,1114.814575 
	C3162.062744,1115.234009 3162.000977,1116.075928 3162.000977,1116.075928 
z"/>
<path fill="#F2F6F9" opacity="1.000000" stroke="none" 
	d="
M3158.022705,1104.012695 
	C3153.475586,1104.670532 3148.928711,1105.900757 3144.381348,1105.903442 
	C2980.057617,1106.000732 2815.733887,1105.981812 2651.410156,1105.982300 
	C1779.127441,1105.984863 906.844788,1105.994995 34.562077,1105.910645 
	C24.306274,1105.909668 14.050590,1104.692993 2.897425,1104.021973 
	C2.000000,1101.866577 2.000000,1099.733276 2.424479,1096.597168 
	C3.368476,1095.213989 3.754896,1094.727783 4.933713,1094.005249 
	C15.290734,1093.636597 24.722261,1093.398560 35.069534,1093.311035 
	C211.277344,1093.471313 386.569397,1093.482544 561.861450,1093.473633 
	C563.850769,1093.473511 565.840149,1093.210815 568.734497,1093.358887 
	C580.412476,1093.831177 591.185425,1094.015259 602.209961,1094.945557 
	C604.867432,1096.430420 607.262207,1097.772827 609.681091,1097.817871 
	C651.587097,1098.598389 693.507202,1098.849854 735.410461,1099.428467 
	C841.334351,1100.891113 947.294434,1100.387207 1053.235107,1099.792236 
	C1159.109863,1099.197754 1265.002319,1102.213745 1370.866211,1098.164185 
	C1385.409790,1097.607666 1400.048340,1099.970581 1414.625854,1099.766968 
	C1444.874146,1099.344238 1475.109741,1101.011963 1505.402222,1098.375122 
	C1522.141235,1096.917969 1539.212158,1099.819946 1556.133789,1099.828979 
	C1787.678101,1099.952026 2019.222534,1099.923584 2250.766846,1099.851807 
	C2256.369629,1099.850098 2261.978271,1098.453979 2267.573486,1098.526855 
	C2277.427979,1098.654907 2287.281006,1099.937012 2297.123291,1099.817505 
	C2331.704346,1099.397583 2366.280762,1098.593628 2400.858154,1097.904297 
	C2402.499756,1097.871704 2404.277832,1097.869507 2405.725586,1097.239868 
	C2406.738037,1096.799561 2407.295166,1095.312622 2408.977051,1094.130859 
	C2423.988037,1093.666382 2438.077393,1093.364136 2453.078613,1093.231201 
	C2455.322266,1093.429321 2456.654297,1093.482666 2457.986572,1093.482788 
	C2634.231445,1093.506836 2810.476074,1093.528442 2986.720947,1093.535522 
	C2989.715088,1093.535645 2992.708984,1093.355347 2996.612793,1093.573242 
	C3018.313965,1094.075317 3039.105713,1094.263184 3060.171875,1095.185669 
	C3064.194336,1096.596069 3067.938477,1097.828125 3071.691895,1097.857788 
	C3096.934570,1098.057617 3122.179443,1097.986328 3147.423584,1098.044067 
	C3152.019043,1098.054565 3157.196533,1097.223267 3158.022705,1104.012695 
z"/>
<path fill="#A5B1B1" opacity="1.000000" stroke="none" 
	d="
M2.000000,1086.500000 
	C170.705734,1085.972534 339.411469,1085.945068 509.043793,1086.601562 
	C509.976196,1087.646484 509.981964,1088.007568 509.052979,1088.449463 
	C387.487030,1088.546143 266.855804,1088.547119 146.224564,1088.586060 
	C108.908928,1088.598145 71.593323,1088.713867 33.359528,1088.519775 
	C22.294235,1088.171509 12.147119,1088.085693 2.000000,1088.000000 
	C2.000000,1088.000000 2.000000,1087.000000 2.000000,1086.500000 
z"/>
<path fill="#686663" opacity="1.000000" stroke="none" 
	d="
M2.000000,1088.750000 
	C12.147119,1088.085693 22.294235,1088.171509 33.313934,1089.061646 
	C34.175610,1090.964111 34.164696,1092.062134 34.153786,1093.160400 
	C24.722261,1093.398560 15.290734,1093.636597 4.440979,1093.833618 
	C2.681834,1093.861694 2.340917,1093.930786 2.000000,1094.000000 
	C2.000000,1092.500000 2.000000,1091.000000 2.000000,1088.750000 
z"/>
<path fill="#D9DDE1" opacity="1.000000" stroke="none" 
	d="
M2.000000,1094.500000 
	C2.340917,1093.930786 2.681834,1093.861694 3.515485,1093.964111 
	C3.754896,1094.727783 3.368476,1095.213989 2.424479,1095.797241 
	C2.000000,1096.000000 2.000000,1095.000000 2.000000,1094.500000 
z"/>
<path fill="#989999" opacity="1.000000" stroke="none" 
	d="
M800.396240,833.914307 
	C822.069763,837.887146 838.445618,847.705139 846.235596,868.540588 
	C847.250427,871.254883 847.670471,874.322449 847.728699,877.239136 
	C847.908020,886.226624 847.999756,895.227234 847.720825,904.210144 
	C847.206055,920.790466 839.615784,933.353882 825.399841,941.864868 
	C810.697571,950.666992 794.393494,953.243347 777.636230,953.779358 
	C770.318054,954.013489 762.985596,953.763000 755.661133,953.855103 
	C752.761719,953.891541 749.866455,954.261169 746.077942,954.546143 
	C746.077942,959.050232 746.061401,962.925415 746.080811,966.800476 
	C746.157654,982.103394 746.121826,997.408691 746.421387,1012.707397 
	C746.491638,1016.295654 747.187866,1020.069397 748.510986,1023.393677 
	C751.166687,1030.066040 755.891663,1034.362061 763.701538,1034.024902 
	C766.637573,1033.898193 769.583679,1034.004517 773.206909,1034.004517 
	C773.405090,1036.792725 773.556030,1038.916016 773.762878,1041.825928 
	C747.359192,1041.825928 721.563904,1041.825928 695.218567,1041.825928 
	C694.887939,1040.890381 694.312439,1039.749023 694.114563,1038.545532 
	C693.960510,1037.607910 694.276306,1036.593140 694.398621,1035.472046 
	C695.257324,1035.026245 696.110901,1034.201904 696.967651,1034.198608 
	C704.108948,1034.170898 708.139221,1030.122925 709.691589,1023.728394 
	C711.241699,1017.343262 712.965454,1010.777283 712.997925,1004.282532 
	C713.229675,957.995239 713.100098,911.705627 712.921204,865.417419 
	C712.902100,860.482727 712.266785,855.448242 711.134155,850.644714 
	C709.554504,843.944885 705.826965,839.228638 697.911499,839.965515 
	C697.012390,840.049255 696.052307,839.477844 694.484985,839.027649 
	C694.365112,836.929993 694.240479,834.749573 694.113953,832.535156 
	C695.422852,831.957642 696.284180,831.247681 697.148560,831.243958 
	C727.115479,831.114563 757.083374,830.938110 787.049133,831.110291 
	C791.223999,831.134277 795.388672,832.921326 800.396240,833.914307 
M746.063416,859.063843 
	C746.063416,887.278870 746.063416,915.493958 746.063416,944.223572 
	C757.072144,946.000488 767.731750,945.906982 778.107544,944.064453 
	C787.566650,942.384705 796.419006,938.493774 803.042358,930.814514 
	C808.443909,924.551819 810.535278,917.147400 812.319580,909.224792 
	C815.784241,893.841248 814.937439,878.821472 809.200806,864.412476 
	C806.855469,858.521545 802.783325,852.235168 797.703979,848.717712 
	C782.140503,837.940186 764.158752,839.475098 746.063965,840.071838 
	C746.063965,846.510376 746.063965,851.797180 746.063416,859.063843 
z"/>
<path fill="#989999" opacity="1.000000" stroke="none" 
	d="
M1386.001709,830.938843 
	C1401.328247,830.923584 1415.663452,830.599182 1429.978882,830.992859 
	C1443.270142,831.358459 1456.132202,834.064941 1468.173828,840.114685 
	C1479.940552,846.026245 1488.741333,854.600098 1493.525269,867.036987 
	C1493.999268,868.269470 1495.254639,869.414795 1495.240723,870.589844 
	C1495.023682,889.000061 1499.941284,908.072510 1489.862305,925.334290 
	C1481.665039,939.373840 1468.233032,946.343811 1452.929565,950.254883 
	C1436.922852,954.345703 1420.597900,953.870300 1404.294922,953.870728 
	C1400.754395,953.870850 1397.213989,954.111755 1392.440674,954.286987 
	C1392.440674,958.613647 1392.349976,961.849365 1392.456177,965.078613 
	C1392.979736,981.001099 1393.539795,996.922485 1394.117676,1012.843140 
	C1394.649292,1027.491821 1401.214355,1033.942505 1415.596802,1034.007324 
	C1417.213989,1034.014526 1418.831177,1034.008301 1421.148071,1034.008301 
	C1421.148071,1036.915161 1421.148071,1039.298096 1421.148071,1041.989502 
	C1394.762695,1041.989502 1368.897217,1041.989502 1342.518921,1041.989502 
	C1342.334106,1039.631836 1342.185913,1037.741577 1342.045532,1035.951172 
	C1356.531982,1030.685913 1360.580933,1025.217773 1360.615479,1009.344360 
	C1360.723022,960.033447 1360.601685,910.722046 1360.567871,861.410828 
	C1360.567627,861.077820 1360.546021,860.744873 1360.535400,860.411865 
	C1360.045898,845.189026 1357.266357,841.805176 1342.340820,838.969482 
	C1342.239014,836.959412 1342.128784,834.782288 1341.951050,831.273804 
	C1356.658691,831.160828 1370.830322,831.051941 1386.001709,830.938843 
M1426.089722,944.256226 
	C1428.947510,943.380737 1431.828491,942.573975 1434.659058,941.617493 
	C1446.142944,937.737061 1454.064453,929.889709 1457.953735,918.630310 
	C1464.119995,900.779297 1463.983276,882.612793 1457.489746,864.899902 
	C1454.520264,856.799622 1449.451050,850.024658 1441.009644,845.907837 
	C1425.638428,838.411438 1409.659302,839.721619 1393.065186,840.187195 
	C1393.065186,875.280762 1393.065186,909.378723 1393.065186,943.732300 
	C1403.897461,946.343750 1414.151855,944.947144 1426.089722,944.256226 
z"/>
<path fill="#7B7B7A" opacity="1.000000" stroke="none" 
	d="
M3162.732422,1116.330078 
	C3162.000977,1116.075928 3162.062744,1115.234009 3162.764648,1114.629883 
	C3165.632324,1112.434326 3167.798096,1110.842773 3170.619141,1109.498657 
	C3172.188477,1109.620483 3173.102539,1109.494995 3174.696289,1109.541260 
	C3176.251709,1107.810669 3177.127686,1105.908325 3178.363281,1103.450439 
	C3179.971924,1101.348389 3181.062744,1099.634155 3182.495117,1098.281982 
	C3193.626953,1087.771484 3204.935791,1077.446777 3215.982666,1066.848633 
	C3269.096436,1015.892700 3322.185059,964.910217 3375.205322,913.857178 
	C3428.239990,862.790771 3481.209961,811.656982 3534.155518,760.498291 
	C3558.582031,736.896545 3582.782959,713.060547 3607.266113,689.518066 
	C3638.481201,659.502991 3669.964355,629.766907 3701.174072,599.746216 
	C3735.244629,566.973572 3769.108398,533.986267 3803.110107,501.141998 
	C3835.465332,469.887756 3867.891602,438.707275 3900.251221,407.457550 
	C3902.397949,405.384583 3904.511719,403.171753 3906.102295,400.679840 
	C3906.749268,399.666260 3905.954834,397.732635 3905.815918,396.217590 
	C3909.413330,398.677795 3913.010986,401.137970 3917.330566,404.091980 
	C3907.745361,413.834839 3899.143799,422.923004 3890.165771,431.622772 
	C3876.581543,444.785919 3862.720459,457.663055 3849.003906,470.690002 
	C3833.152344,485.744843 3817.255127,500.753174 3801.516113,515.925171 
	C3786.448242,530.450256 3771.662109,545.268127 3756.562256,559.759521 
	C3737.678955,577.881836 3718.530029,595.726990 3699.639893,613.842529 
	C3690.993896,622.134216 3682.790283,630.885986 3674.215332,639.254150 
	C3657.108887,655.948486 3639.861572,672.498474 3622.715088,689.152100 
	C3602.724854,708.567627 3582.873535,728.127380 3562.783691,747.438843 
	C3549.157227,760.536804 3535.061279,773.147034 3521.461914,786.272644 
	C3498.312256,808.615845 3475.426025,831.232117 3452.357178,853.659790 
	C3434.032959,871.474609 3415.738281,889.323608 3397.177002,906.889526 
	C3380.068115,923.080627 3362.588623,938.879272 3345.349854,954.933899 
	C3341.455322,958.560791 3337.983398,962.638428 3334.143311,966.327881 
	C3309.736816,989.776794 3285.246582,1013.138672 3260.869385,1036.617798 
	C3255.354248,1041.929688 3250.318848,1047.738892 3244.815186,1053.063721 
	C3227.658203,1069.663696 3210.371582,1086.129272 3193.165283,1102.678467 
	C3190.772705,1104.979736 3188.202148,1107.215210 3186.321777,1109.905884 
	C3181.849121,1116.305298 3176.142822,1119.074951 3168.395996,1117.294556 
	C3166.782715,1116.923706 3165.109375,1116.814209 3162.732422,1116.330078 
z"/>
<path fill="#989999" opacity="1.000000" stroke="none" 
	d="
M2148.079590,1042.508545 
	C2140.162598,1042.505981 2133.220703,1042.505981 2126.666016,1042.505981 
	C2124.513672,1038.901978 2123.742188,1035.593628 2127.441406,1034.289551 
	C2136.410156,1031.127808 2136.846924,1022.849976 2137.064697,1016.207825 
	C2137.816650,993.261292 2138.196533,970.216797 2136.859619,947.318115 
	C2135.984619,932.332886 2128.978027,922.539856 2113.151123,917.790894 
	C2107.518066,916.100647 2103.314453,918.326477 2098.820068,919.827942 
	C2087.587402,923.580627 2079.304199,935.324280 2079.180908,947.174377 
	C2078.934814,970.811646 2079.009277,994.452942 2078.656738,1018.088135 
	C2078.551758,1025.133301 2080.739258,1030.133423 2087.206787,1033.492554 
	C2089.327881,1034.594238 2090.497314,1037.526978 2093.431885,1041.358887 
	C2074.059326,1043.931641 2056.995117,1041.912354 2040.483643,1042.615601 
	C2037.385864,1037.612183 2039.133301,1034.895996 2042.683594,1032.627197 
	C2046.243896,1030.351685 2048.276367,1027.355713 2048.250488,1022.793640 
	C2048.060791,989.506958 2048.035400,956.219299 2047.929443,922.932007 
	C2047.927368,922.296631 2047.581299,921.662292 2047.198608,920.353271 
	C2044.343140,919.045715 2040.735596,917.997620 2037.923950,915.888611 
	C2036.126831,914.540649 2035.085571,911.718201 2034.559814,909.365845 
	C2034.340820,908.386658 2036.235352,905.933899 2037.354370,905.808777 
	C2050.775391,904.307678 2063.238770,896.978943 2078.189941,899.357178 
	C2078.544189,905.459534 2078.912109,911.795349 2079.402344,920.243530 
	C2083.470703,916.702087 2086.016113,914.778809 2088.217041,912.519592 
	C2097.768555,902.715149 2108.986572,897.178772 2122.995850,898.471924 
	C2128.897217,899.016663 2135.191895,898.421326 2140.622559,900.312134 
	C2152.556885,904.467163 2159.519531,912.837952 2162.336914,925.964478 
	C2164.036865,933.884033 2164.878174,941.564392 2164.897461,949.462891 
	C2164.949707,970.771179 2164.824219,992.079956 2164.727539,1013.388428 
	C2164.688232,1022.017578 2165.606201,1029.962158 2174.829102,1034.326904 
	C2176.432617,1035.085815 2176.799805,1038.457397 2178.556641,1042.511230 
	C2167.404785,1042.511230 2158.229736,1042.511230 2148.079590,1042.508545 
z"/>
<path fill="#81807E" opacity="1.000000" stroke="none" 
	d="
M2302.071533,1087.731445 
	C2303.536133,1087.800049 2305.000977,1087.868530 2307.778320,1088.456787 
	C2312.339355,1089.328735 2315.585938,1089.960693 2318.837158,1089.986450 
	C2336.050293,1090.122437 2353.265625,1090.029541 2370.478271,1090.207886 
	C2373.856445,1090.242798 2377.999268,1088.664185 2379.197998,1093.447998 
	C2373.958740,1093.805664 2369.629639,1093.958008 2365.300293,1093.959839 
	C2301.319336,1093.987549 2237.338135,1094.007080 2173.357178,1094.005737 
	C1682.169678,1093.995483 1190.982056,1093.982300 699.794556,1093.930664 
	C695.831848,1093.930176 691.869141,1093.385864 688.245728,1092.416260 
	C692.090576,1091.193604 695.593140,1090.200562 699.101929,1090.178101 
	C725.702637,1090.007935 752.304749,1090.074219 778.905701,1089.930908 
	C782.274170,1089.912720 786.561890,1091.429810 788.081787,1086.342407 
	C793.436829,1086.267090 798.791870,1086.191772 805.294617,1086.971191 
	C809.517090,1088.544312 812.591064,1089.885132 815.666870,1089.889404 
	C898.409973,1090.001831 981.153320,1089.979126 1063.896606,1089.966309 
	C1066.218994,1089.965942 1068.642944,1090.198608 1070.825317,1089.606689 
	C1072.110718,1089.258057 1073.012817,1087.496460 1074.087280,1086.370361 
	C1088.098389,1086.302246 1102.109375,1086.234253 1117.247559,1086.571777 
	C1118.926758,1086.798706 1119.478760,1086.619995 1120.030762,1086.441284 
	C1120.909790,1086.365723 1121.788696,1086.290161 1123.521729,1086.609253 
	C1124.927490,1086.822021 1125.479248,1086.640015 1126.031006,1086.458008 
	C1128.153320,1086.362915 1130.275757,1086.267822 1133.385498,1086.582764 
	C1134.925659,1086.813965 1135.478271,1086.635010 1136.031006,1086.456055 
	C1136.909668,1086.375122 1137.788208,1086.294067 1139.522217,1086.607666 
	C1140.928711,1086.816772 1141.480103,1086.631226 1142.031372,1086.445801 
	C1144.152710,1086.351318 1146.274048,1086.256836 1149.384521,1086.561523 
	C1150.926147,1086.783081 1151.478638,1086.605347 1152.031006,1086.427612 
	C1152.909546,1086.354492 1153.788208,1086.281372 1155.523926,1086.595215 
	C1156.931274,1086.792480 1157.481445,1086.602783 1158.031738,1086.413208 
	C1188.042358,1086.317627 1218.053101,1086.222046 1249.176147,1086.914429 
	C1255.476807,1091.208130 1256.815308,1091.023560 1260.085205,1086.351074 
	C1274.745728,1086.271729 1289.406250,1086.192383 1305.242432,1086.977295 
	C1309.485229,1088.570679 1312.551514,1089.932495 1315.619507,1089.936890 
	C1399.071655,1090.057617 1482.524048,1090.041748 1565.976318,1090.034668 
	C1568.299316,1090.034424 1570.729370,1090.263428 1572.904785,1089.654175 
	C1574.173950,1089.298828 1575.035889,1087.489136 1576.081055,1086.333740 
	C1599.288940,1086.238037 1622.496826,1086.073486 1645.704712,1086.062134 
	C1683.176270,1086.043701 1720.647827,1086.126221 1759.247314,1086.570068 
	C1760.927246,1086.793213 1761.479126,1086.612305 1762.031006,1086.431396 
	C1763.534790,1086.349121 1765.038696,1086.266846 1767.830688,1086.768188 
	C1772.739258,1087.046753 1776.359741,1086.741699 1779.980103,1086.436523 
	C1780.879883,1086.361084 1781.779541,1086.285522 1783.750732,1086.745117 
	C1786.545898,1087.002197 1788.269775,1086.724365 1789.993530,1086.446411 
	C1790.880371,1086.367554 1791.767090,1086.288818 1793.517822,1086.597656 
	C1794.931641,1086.794800 1795.481689,1086.604004 1796.031738,1086.413330 
	C1806.064087,1086.330933 1816.096313,1086.248535 1827.251953,1086.578979 
	C1828.927124,1086.809570 1829.479126,1086.627197 1830.031250,1086.444946 
	C1835.419067,1086.354248 1840.806763,1086.263428 1847.286621,1086.575195 
	C1848.929321,1086.792114 1849.480225,1086.606567 1850.031006,1086.421021 
	C1868.727539,1086.335938 1887.424072,1086.250854 1907.249268,1086.572510 
	C1908.929077,1086.794434 1909.480103,1086.609497 1910.031250,1086.424561 
	C1910.909668,1086.345825 1911.788208,1086.267090 1913.520752,1086.581055 
	C1914.926758,1086.793213 1915.478760,1086.612549 1916.030762,1086.431885 
	C1917.532593,1086.348999 1919.034546,1086.266235 1921.741211,1086.745605 
	C1925.291382,1087.028198 1927.636597,1086.748535 1929.981934,1086.468750 
	C1932.117065,1086.368164 1934.252197,1086.267578 1937.381348,1086.568848 
	C1938.927124,1086.790161 1939.479004,1086.609619 1940.030884,1086.428955 
	C1944.102539,1086.340332 1948.174072,1086.251587 1953.310669,1086.568604 
	C1954.927490,1086.792236 1955.479370,1086.610229 1956.031250,1086.428223 
	C1956.909668,1086.349609 1957.788208,1086.270996 1959.520996,1086.584229 
	C1960.927124,1086.794678 1961.479126,1086.613281 1962.031006,1086.431763 
	C1964.018677,1086.313110 1966.006226,1086.090698 1967.993896,1086.090698 
	C2076.684326,1086.086792 2185.374512,1086.101685 2295.128906,1086.849854 
	C2298.076904,1090.665649 2300.046387,1090.315186 2302.071533,1087.731445 
z"/>
<path fill="#E4E5E4" opacity="1.000000" stroke="none" 
	d="
M3167.853516,1085.877930 
	C3175.146973,1079.145630 3182.575684,1072.553101 3189.710938,1065.657104 
	C3222.476318,1033.991699 3255.123291,1002.203918 3287.883545,970.533386 
	C3314.635254,944.671143 3341.456787,918.880859 3368.301758,893.115540 
	C3408.807373,854.239014 3449.394531,815.447632 3489.879395,776.549683 
	C3510.497070,756.739929 3530.900635,736.707458 3551.519287,716.898865 
	C3583.157471,686.503723 3614.939697,656.258423 3646.575439,625.860596 
	C3659.762939,613.188843 3672.639648,600.193604 3685.818604,587.512573 
	C3708.338623,565.843201 3731.086426,544.409973 3753.555420,522.688171 
	C3788.917969,488.501465 3824.086426,454.113495 3859.433350,419.910492 
	C3868.746094,410.899323 3878.307861,402.135376 3888.007324,393.542114 
	C3889.964600,391.808167 3893.060303,391.358948 3895.821777,391.771362 
	C3896.165283,397.136169 3895.145752,400.247009 3891.402100,402.428741 
	C3888.869873,403.904358 3886.810547,406.241974 3884.666016,408.324219 
	C3860.549561,431.740631 3836.497314,455.223267 3812.344971,478.602509 
	C3796.331055,494.103943 3780.147705,509.430084 3764.104004,524.900818 
	C3743.264160,544.996277 3722.496338,565.166809 3701.680420,585.287109 
	C3682.541260,603.786560 3663.399414,622.283508 3644.222168,640.743591 
	C3609.460205,674.205139 3574.659424,707.626404 3539.897705,741.088196 
	C3520.720703,759.548462 3501.618652,778.087036 3482.428467,796.534058 
	C3467.801758,810.594849 3453.044434,824.520020 3438.427002,838.590759 
	C3418.049561,858.205872 3397.751709,877.903809 3377.414062,897.560303 
	C3357.795166,916.522278 3338.190918,935.499451 3318.539062,954.427246 
	C3302.246338,970.119629 3285.820801,985.674927 3269.584717,1001.425049 
	C3243.065430,1027.150269 3216.738525,1053.074707 3190.100342,1078.675293 
	C3186.143066,1082.478516 3180.927490,1084.972412 3175.753906,1088.231201 
	C3174.210938,1088.848999 3173.208008,1089.307861 3171.979004,1089.443115 
	C3171.111816,1088.728149 3170.470703,1088.336792 3169.350586,1087.413818 
	C3168.532471,1086.547485 3168.193115,1086.212769 3167.853516,1085.877930 
z"/>
<path fill="#969796" opacity="1.000000" stroke="none" 
	d="
M935.317749,1045.813721 
	C924.359558,1040.913330 924.359558,1040.913330 917.002075,1028.010254 
	C914.809509,1029.979492 912.588501,1031.674927 910.725403,1033.699585 
	C902.782104,1042.331909 892.881348,1046.072876 881.305725,1045.889771 
	C877.312439,1045.826538 873.315857,1045.955200 869.323059,1045.878418 
	C853.909912,1045.582031 841.898315,1033.279907 841.893738,1017.826233 
	C841.892761,1014.497620 842.108154,1011.159668 841.927612,1007.842102 
	C841.225281,994.937500 847.886414,986.870422 858.535278,980.707397 
	C873.935425,971.794739 891.028870,967.957520 907.814087,963.101440 
	C910.016968,962.464172 912.154907,961.602173 915.557922,960.412537 
	C914.773010,948.421387 917.337280,936.278748 912.454407,924.409607 
	C906.897583,910.902222 895.692322,905.559326 882.281250,910.624939 
	C878.061951,912.218628 874.171143,914.681885 868.074280,917.797729 
	C876.439026,920.751953 879.507996,925.858704 880.278137,932.441711 
	C881.081543,939.309570 876.921875,946.898499 870.835510,949.746521 
	C865.231689,952.368652 859.288635,951.346069 854.382751,946.468567 
	C852.854431,944.949219 851.402588,942.746521 851.112854,940.688110 
	C849.473267,929.040710 853.185364,919.706543 862.214172,911.609131 
	C878.268555,897.210876 897.284607,896.996582 916.691223,899.045166 
	C925.292114,899.953125 931.771484,905.673645 936.229492,913.238708 
	C942.589355,924.030884 945.625671,935.876465 945.850647,948.226257 
	C946.220398,968.524109 945.739502,988.836609 946.014648,1009.137573 
	C946.070740,1013.271423 947.073914,1017.830017 949.057129,1021.407532 
	C952.981384,1028.486328 959.169495,1028.563599 964.719788,1022.361328 
	C965.350769,1021.656128 966.122986,1021.077332 966.832886,1020.437073 
	C971.485291,1025.824463 972.043213,1028.606445 968.642334,1033.242676 
	C963.101257,1040.796509 956.151245,1046.111450 946.145508,1045.884155 
	C942.818542,1045.808594 939.488464,1045.866089 935.317749,1045.813721 
M869.432434,1008.611328 
	C874.985840,1024.150513 882.122131,1029.461792 895.129150,1027.736450 
	C903.834412,1026.581665 914.984314,1018.140259 915.349426,1010.956055 
	C915.998291,998.187866 915.531677,985.362915 915.531677,972.493958 
	C899.176270,973.742615 870.446655,986.190613 869.432434,1008.611328 
z"/>
<path fill="#F9FAFA" opacity="1.000000" stroke="none" 
	d="
M3176.294189,1088.072266 
	C3180.927490,1084.972412 3186.143066,1082.478516 3190.100342,1078.675293 
	C3216.738525,1053.074707 3243.065430,1027.150269 3269.584717,1001.425049 
	C3285.820801,985.674927 3302.246338,970.119629 3318.539062,954.427246 
	C3338.190918,935.499451 3357.795166,916.522278 3377.414062,897.560303 
	C3397.751709,877.903809 3418.049561,858.205872 3438.427002,838.590759 
	C3453.044434,824.520020 3467.801758,810.594849 3482.428467,796.534058 
	C3501.618652,778.087036 3520.720703,759.548462 3539.897705,741.088196 
	C3574.659424,707.626404 3609.460205,674.205139 3644.222168,640.743591 
	C3663.399414,622.283508 3682.541260,603.786560 3701.680420,585.287109 
	C3722.496338,565.166809 3743.264160,544.996277 3764.104004,524.900818 
	C3780.147705,509.430084 3796.331055,494.103943 3812.344971,478.602509 
	C3836.497314,455.223267 3860.549561,431.740631 3884.666016,408.324219 
	C3886.810547,406.241974 3888.869873,403.904358 3891.402100,402.428741 
	C3895.145752,400.247009 3896.165283,397.136169 3896.066406,392.445435 
	C3898.914795,393.048279 3901.708984,394.430939 3905.159668,396.015564 
	C3905.954834,397.732635 3906.749268,399.666260 3906.102295,400.679840 
	C3904.511719,403.171753 3902.397949,405.384583 3900.251221,407.457550 
	C3867.891602,438.707275 3835.465332,469.887756 3803.110107,501.141998 
	C3769.108398,533.986267 3735.244629,566.973572 3701.174072,599.746216 
	C3669.964355,629.766907 3638.481201,659.502991 3607.266113,689.518066 
	C3582.782959,713.060547 3558.582031,736.896545 3534.155518,760.498291 
	C3481.209961,811.656982 3428.239990,862.790771 3375.205322,913.857178 
	C3322.185059,964.910217 3269.096436,1015.892700 3215.982666,1066.848633 
	C3204.935791,1077.446777 3193.626953,1087.771484 3182.495117,1098.281982 
	C3181.062744,1099.634155 3179.971924,1101.348389 3177.874268,1103.379883 
	C3177.025635,1103.864746 3176.037109,1103.878784 3175.234375,1103.922729 
	C3172.288086,1103.970459 3170.144775,1103.974365 3167.988770,1103.204346 
	C3168.012207,1100.366699 3168.048096,1098.302979 3168.818848,1096.160645 
	C3174.633545,1095.795898 3176.022949,1092.404541 3176.294189,1088.072266 
z"/>
<path fill="#969796" opacity="1.000000" stroke="none" 
	d="
M1918.738770,1031.314209 
	C1896.009155,1008.479980 1891.189575,981.682129 1897.333374,951.737061 
	C1900.579224,935.916687 1907.373169,922.609924 1919.704712,911.855469 
	C1928.588379,904.108093 1938.463135,899.852539 1950.028931,898.280945 
	C1957.586426,897.253967 1964.828735,897.156982 1972.494141,897.937195 
	C1989.639893,899.682190 2001.481201,908.845093 2010.622559,922.268921 
	C2017.988281,933.085266 2023.847046,956.713562 2019.489624,971.748901 
	C1988.871704,971.748901 1958.012085,971.748901 1926.652710,971.748901 
	C1924.766235,980.647217 1928.994019,987.731262 1930.757812,995.168335 
	C1931.279541,997.367798 1933.048828,999.243469 1933.793213,1001.422363 
	C1939.436157,1017.937744 1952.562256,1023.931152 1968.357544,1025.205933 
	C1986.510254,1026.671021 2000.025391,1018.223328 2011.024658,1003.142090 
	C2012.236694,1003.369202 2014.340698,1003.763489 2016.985474,1004.259155 
	C2013.797241,1018.834290 2006.686523,1029.798828 1994.472046,1037.434692 
	C1983.017212,1044.595459 1970.567261,1046.171753 1957.243042,1046.125854 
	C1942.469360,1046.074829 1930.102783,1041.376587 1918.738770,1031.314209 
M1939.973877,919.049255 
	C1930.731934,931.904480 1925.977417,946.082153 1926.116699,962.913818 
	C1949.033813,962.668884 1970.766235,963.262817 1993.547241,962.437622 
	C1991.129761,944.821350 1988.784424,928.913940 1977.921875,915.832520 
	C1976.067383,913.599243 1973.562744,911.696838 1971.000366,910.297302 
	C1960.776978,904.713684 1951.291992,907.269592 1939.973877,919.049255 
z"/>
<path fill="#969796" opacity="1.000000" stroke="none" 
	d="
M1688.078003,1045.900391 
	C1662.713379,1046.724487 1646.678467,1033.781860 1634.980591,1013.945496 
	C1625.127197,997.236511 1622.509521,978.747498 1625.089600,960.075500 
	C1627.917480,939.609924 1636.262451,921.310791 1653.490601,908.332336 
	C1654.543945,907.538818 1655.611694,906.726257 1656.777832,906.126648 
	C1677.631348,895.404297 1698.912964,893.194092 1720.510010,903.641296 
	C1732.446533,909.415344 1740.021973,919.374084 1744.939697,931.450623 
	C1750.006714,943.893738 1752.211792,956.719177 1749.798950,971.389221 
	C1718.578125,971.389221 1687.482300,971.389221 1654.989014,971.389221 
	C1656.260010,978.517456 1656.528931,984.430115 1658.418335,989.769470 
	C1663.460449,1004.018372 1669.375488,1018.062500 1685.691772,1022.964050 
	C1696.989380,1026.357910 1708.628906,1027.359985 1719.429199,1021.412598 
	C1726.828125,1017.338318 1735.134033,1014.035034 1738.671021,1005.006592 
	C1739.158691,1003.761963 1742.767578,1003.740051 1746.476318,1002.732300 
	C1743.291504,1019.174438 1736.289917,1030.458984 1723.341919,1037.966919 
	C1712.678711,1044.150024 1701.381958,1047.215576 1688.078003,1045.900391 
M1694.160034,907.818726 
	C1685.437622,906.376099 1678.718872,910.079956 1672.709595,915.939270 
	C1665.347290,923.117676 1660.827026,932.209351 1658.745728,941.770569 
	C1657.368896,948.095581 1652.689819,954.631287 1656.632324,962.167603 
	C1678.337769,962.167603 1700.098755,962.167603 1723.438843,962.167603 
	C1722.148438,954.180359 1721.778198,946.922974 1719.717529,940.182312 
	C1715.621582,926.784058 1710.957520,913.396912 1694.160034,907.818726 
z"/>
<path fill="#969796" opacity="1.000000" stroke="none" 
	d="
M1804.917969,1031.695557 
	C1815.405396,1037.542603 1826.003174,1037.673950 1836.650391,1036.228516 
	C1846.711426,1034.862549 1851.715210,1027.504150 1849.440430,1017.636475 
	C1847.573608,1009.538879 1842.773193,1003.365479 1835.746704,998.810486 
	C1822.668823,990.332642 1809.320679,982.198364 1796.825439,972.923523 
	C1789.997803,967.855652 1783.822998,961.360840 1778.873901,954.424866 
	C1769.044189,940.648499 1775.096069,914.644958 1789.289551,905.450317 
	C1796.461426,900.804321 1803.936279,897.878113 1812.730835,898.456848 
	C1819.366821,898.893616 1826.072144,898.772278 1832.720703,898.416565 
	C1845.693726,897.722717 1857.488770,901.832825 1869.633789,906.555725 
	C1869.633789,920.224121 1869.633789,933.758484 1869.633789,949.275452 
	C1867.006714,946.947205 1864.932251,945.930725 1864.201294,944.308899 
	C1861.889404,939.178101 1860.183472,933.778687 1858.055786,928.559570 
	C1852.713501,915.455811 1842.097046,909.540955 1828.760498,907.919861 
	C1823.848877,907.322815 1818.727661,907.372742 1813.820679,908.023010 
	C1800.968994,909.726196 1796.407227,920.241333 1802.684448,931.447510 
	C1807.856323,940.680420 1816.591431,945.443176 1824.756226,950.992981 
	C1833.245972,956.763611 1842.287964,961.767090 1850.476807,967.920044 
	C1856.537598,972.473938 1862.627197,977.619995 1866.948120,983.741638 
	C1880.079956,1002.346741 1879.110474,1026.770630 1859.337402,1039.504150 
	C1854.491821,1042.624634 1848.373657,1045.154541 1842.732300,1045.392700 
	C1826.159790,1046.092285 1809.396118,1047.556152 1793.129761,1042.350220 
	C1792.184082,1042.047485 1791.154419,1042.016235 1790.191772,1041.755737 
	C1776.053467,1037.927734 1775.003540,1036.508179 1775.081543,1021.987976 
	C1775.135010,1012.041687 1775.091919,1002.094849 1775.091919,992.296509 
	C1781.196289,989.484436 1783.422241,992.909973 1783.798950,997.153137 
	C1784.615112,1006.342651 1787.684326,1014.498047 1793.639038,1021.403625 
	C1796.782104,1025.048584 1800.668091,1028.053101 1804.917969,1031.695557 
z"/>
<path fill="#969796" opacity="1.000000" stroke="none" 
	d="
M986.071472,926.981567 
	C991.203552,908.571716 1003.585632,899.007812 1021.842041,898.593628 
	C1027.837402,898.457581 1033.848999,898.707458 1039.830811,898.376465 
	C1053.731323,897.607483 1066.824097,900.577209 1080.134766,906.527466 
	C1080.134766,920.068848 1080.134766,933.831055 1080.134766,950.182251 
	C1077.315063,946.717529 1075.644775,945.332336 1074.842773,943.555237 
	C1072.388794,938.118347 1070.161255,932.571594 1068.041382,926.993225 
	C1063.927246,916.167358 1054.989380,911.054688 1044.686279,908.688782 
	C1038.338013,907.231079 1031.378052,907.360657 1024.832520,908.069275 
	C1012.287598,909.427551 1007.447144,920.521057 1013.692261,931.464539 
	C1019.069336,940.886963 1028.143311,945.773987 1036.601807,951.528931 
	C1047.280518,958.794312 1058.006714,965.998352 1068.501099,973.523743 
	C1079.755371,981.593994 1084.307251,993.665161 1086.714478,1006.604858 
	C1089.055786,1019.190308 1078.073730,1037.215942 1065.929932,1042.194092 
	C1059.343506,1044.894165 1052.675537,1046.057739 1045.567261,1045.916870 
	C1031.611206,1045.640503 1017.563965,1046.769775 1003.970886,1042.326172 
	C1001.768433,1041.606201 999.442627,1041.231445 997.289246,1040.398560 
	C986.333557,1036.161621 985.975220,1035.537109 986.016296,1023.656799 
	C986.051941,1013.344788 986.023743,1003.032532 986.023743,992.549744 
	C991.085510,989.718384 993.701599,991.035095 994.350769,996.475525 
	C995.301025,1004.439514 998.692078,1011.348389 1002.064880,1018.616089 
	C1009.299683,1034.205566 1033.665283,1039.855591 1050.289185,1035.680786 
	C1060.674927,1033.072510 1063.794312,1021.832031 1058.148071,1011.519104 
	C1053.446289,1002.931030 1045.840576,997.929016 1038.010132,992.904724 
	C1027.707642,986.294373 1017.291992,979.818054 1007.390686,972.641724 
	C1002.080750,968.793030 997.517700,963.809753 993.031494,958.955994 
	C987.865540,953.367004 985.327698,946.650085 985.947021,938.844238 
	C986.236084,935.200989 986.019348,931.517517 986.071472,926.981567 
z"/>
<path fill="#989999" opacity="1.000000" stroke="none" 
	d="
M2238.035645,910.964722 
	C2236.682617,918.901978 2235.967041,926.465820 2235.901611,934.035278 
	C2235.697510,957.684570 2235.694824,981.335999 2235.709961,1004.986572 
	C2235.715088,1013.221436 2239.399658,1019.345398 2246.283691,1024.061279 
	C2253.978760,1029.332397 2260.589844,1027.659546 2267.066895,1022.226013 
	C2270.060303,1019.714905 2272.954102,1017.085205 2276.261230,1014.186768 
	C2279.671875,1018.737305 2278.391357,1022.378723 2276.296631,1025.824341 
	C2268.802002,1038.151611 2259.212158,1046.676636 2243.395264,1046.050903 
	C2233.592041,1045.663086 2223.694336,1046.247681 2216.882080,1037.746094 
	C2213.446777,1033.458740 2209.781006,1028.432007 2208.832520,1023.260315 
	C2206.568115,1010.913452 2205.069092,998.305786 2204.690674,985.760315 
	C2204.048340,964.455261 2204.506836,943.116882 2204.502686,921.792542 
	C2204.501953,918.490784 2204.502441,915.189026 2204.502441,912.511658 
	C2200.077881,907.898987 2189.746338,914.085815 2190.228760,902.661804 
	C2194.857422,902.282166 2199.330811,901.915283 2205.146240,901.438293 
	C2205.146240,887.351990 2205.146240,873.585876 2205.146240,860.137817 
	C2215.652588,856.515503 2224.946777,854.838867 2235.371094,856.486328 
	C2235.371094,871.312134 2235.371094,885.856934 2235.371094,901.491455 
	C2246.842529,901.491455 2257.664062,901.491455 2268.792480,901.491455 
	C2270.308838,907.126648 2269.557129,910.218140 2263.947754,910.320435 
	C2255.623047,910.472168 2247.296143,910.508484 2238.035645,910.964722 
z"/>
<path fill="#989999" opacity="1.000000" stroke="none" 
	d="
M1133.488281,1043.154541 
	C1123.749146,1036.680908 1119.590576,1028.307129 1117.694702,1017.287354 
	C1112.397583,986.497925 1115.484619,955.578796 1114.533813,924.738525 
	C1114.401367,920.445435 1114.515503,916.144714 1114.515503,912.529358 
	C1110.066772,907.890564 1099.806885,914.043762 1100.217041,902.678223 
	C1104.870972,902.289185 1109.340698,901.915527 1115.144043,901.430359 
	C1115.144043,887.355713 1115.144043,873.600708 1115.144043,860.232117 
	C1125.608521,856.313293 1134.954346,855.153625 1145.350586,856.316833 
	C1145.350586,871.272766 1145.350586,885.802917 1145.350586,901.582275 
	C1156.772583,901.582275 1167.544678,901.582275 1178.969971,901.582275 
	C1178.792114,905.006897 1178.681274,907.139282 1178.520386,910.236816 
	C1167.840942,910.236816 1157.629272,910.236816 1147.175903,910.236816 
	C1146.658813,912.687927 1146.053955,914.237915 1146.045288,915.791260 
	C1145.880371,945.414062 1145.801270,975.037354 1145.666870,1004.660339 
	C1145.629028,1012.973083 1149.115967,1019.544617 1155.968384,1023.937378 
	C1164.484741,1029.396729 1169.923096,1028.504150 1178.319824,1021.206665 
	C1180.567627,1019.253174 1182.779541,1017.254944 1185.100830,1015.393127 
	C1185.468628,1015.098267 1186.330200,1015.419006 1187.796265,1015.502808 
	C1187.796265,1017.922974 1188.386963,1020.579163 1187.697388,1022.845947 
	C1184.060669,1034.801392 1169.514038,1045.629517 1156.772095,1045.768555 
	C1149.203003,1045.851196 1141.421265,1047.198975 1133.488281,1043.154541 
z"/>
<path fill="#969796" opacity="1.000000" stroke="none" 
	d="
M1517.751953,1042.509766 
	C1512.543823,1039.834839 1512.657593,1036.629639 1516.803467,1034.388916 
	C1524.302246,1030.335938 1526.219482,1023.829285 1526.210815,1016.116516 
	C1526.180420,988.821350 1526.204712,961.526001 1526.118530,934.231018 
	C1526.082275,922.737854 1523.628540,919.453857 1511.853882,914.998413 
	C1511.623901,912.477417 1511.364136,909.630249 1511.040283,906.080994 
	C1525.009766,903.190125 1538.456665,900.407410 1553.341675,897.327087 
	C1553.341675,906.239258 1553.341675,913.655457 1553.341675,923.498657 
	C1556.745361,920.588806 1558.423706,919.427795 1559.768555,917.961060 
	C1570.139771,906.650635 1581.524048,897.532410 1598.182861,898.550964 
	C1606.660889,899.069397 1614.388794,905.589355 1615.333252,913.549561 
	C1616.627808,924.459106 1611.499390,933.283875 1602.581299,935.492371 
	C1592.160645,938.072937 1584.909546,934.358459 1581.119629,924.423523 
	C1580.421265,922.592468 1579.977295,920.664368 1579.419556,918.793457 
	C1564.397949,922.435486 1554.323975,934.410217 1554.198853,948.830505 
	C1554.008179,970.798462 1554.011230,992.768127 1553.799927,1014.735840 
	C1553.721680,1022.860596 1555.477173,1029.698975 1563.278442,1034.119629 
	C1565.068726,1035.134277 1565.486206,1038.571533 1567.280518,1042.542236 
	C1549.688721,1042.542236 1534.139160,1042.542236 1517.751953,1042.509766 
z"/>
<path fill="#989999" opacity="1.000000" stroke="none" 
	d="
M2330.575195,1017.621216 
	C2330.805420,1020.376282 2331.063477,1022.367615 2330.981934,1024.345093 
	C2330.697998,1031.234497 2329.334229,1037.748535 2322.210693,1040.875000 
	C2314.822998,1044.117432 2307.395020,1044.056519 2300.307373,1039.781738 
	C2299.194092,1039.110352 2297.906738,1038.306274 2297.334229,1037.227173 
	C2293.262939,1029.552246 2292.261719,1021.427429 2295.670654,1013.373291 
	C2298.558105,1006.551270 2306.960693,1001.871399 2314.348877,1002.786621 
	C2322.676270,1003.818298 2328.148193,1008.651489 2330.575195,1017.621216 
z"/>
<path fill="#989999" opacity="1.000000" stroke="none" 
	d="
M1225.976562,1002.724731 
	C1241.839600,1006.432800 1248.363892,1018.878967 1242.567505,1032.899780 
	C1239.728760,1039.766724 1233.910889,1043.109619 1224.845215,1043.082886 
	C1216.612427,1043.058594 1211.481934,1039.735352 1208.689209,1032.776489 
	C1203.932495,1020.923523 1207.118530,1004.275696 1225.976562,1002.724731 
z"/>
<path fill="#686663" opacity="1.000000" stroke="none" 
	d="
M787.158325,1086.133301 
	C786.561890,1091.429810 782.274170,1089.912720 778.905701,1089.930908 
	C752.304749,1090.074219 725.702637,1090.007935 699.101929,1090.178101 
	C695.593140,1090.200562 692.090576,1091.193604 687.327271,1092.595215 
	C671.876282,1093.502563 657.682556,1093.492798 643.489990,1093.617920 
	C629.645508,1093.739990 615.802246,1093.999878 601.958435,1094.199219 
	C591.185425,1094.015259 580.412476,1093.831177 568.709595,1092.834717 
	C567.725220,1090.995361 567.670593,1089.968506 568.546936,1088.692871 
	C581.774719,1088.271484 594.074707,1088.209595 606.366089,1087.850952 
	C609.550049,1087.758301 612.706909,1086.737061 615.876221,1086.142334 
	C617.521301,1085.969360 619.166626,1085.643433 620.811523,1085.645630 
	C675.952637,1085.719116 731.093811,1085.823975 787.158325,1086.133301 
z"/>
<path fill="#81807E" opacity="1.000000" stroke="none" 
	d="
M3166.925537,1085.863525 
	C3168.193115,1086.212769 3168.532471,1086.547485 3168.782715,1088.074463 
	C3165.453125,1094.289062 3160.310547,1093.901245 3155.343262,1093.911499 
	C3138.765381,1093.945801 3122.187012,1093.882080 3105.609375,1093.971558 
	C3090.371826,1094.053711 3075.134766,1094.285278 3059.897461,1094.451172 
	C3039.105713,1094.263184 3018.313965,1094.075317 2996.645508,1092.963867 
	C2995.661621,1090.857178 2995.554443,1089.673828 2996.407471,1088.331543 
	C3016.760010,1088.088257 3036.153564,1088.087036 3055.543945,1087.842773 
	C3059.010986,1087.799072 3062.465576,1086.750732 3065.925781,1086.166016 
	C3091.685547,1086.127319 3117.445068,1086.100952 3143.204834,1086.042358 
	C3150.802490,1086.025024 3158.399902,1085.916260 3166.925537,1085.863525 
z"/>
<path fill="#686663" opacity="1.000000" stroke="none" 
	d="
M1575.157349,1086.126465 
	C1575.035889,1087.489136 1574.173950,1089.298828 1572.904785,1089.654175 
	C1570.729370,1090.263428 1568.299316,1090.034424 1565.976318,1090.034668 
	C1482.524048,1090.041748 1399.071655,1090.057617 1315.619507,1089.936890 
	C1312.551514,1089.932495 1309.485229,1088.570679 1306.168213,1087.091064 
	C1307.564087,1086.157471 1309.210083,1085.813599 1310.856079,1085.813843 
	C1398.648560,1085.830566 1486.441040,1085.876343 1575.157349,1086.126465 
z"/>
<path fill="#686663" opacity="1.000000" stroke="none" 
	d="
M1073.164062,1086.158936 
	C1073.012817,1087.496460 1072.110718,1089.258057 1070.825317,1089.606689 
	C1068.642944,1090.198608 1066.218994,1089.965942 1063.896606,1089.966309 
	C981.153320,1089.979126 898.409973,1090.001831 815.666870,1089.889404 
	C812.591064,1089.885132 809.517090,1088.544312 806.180664,1087.084717 
	C807.565125,1086.161011 809.211304,1085.818970 810.857300,1085.819336 
	C897.985107,1085.843750 985.112915,1085.897095 1073.164062,1086.158936 
z"/>
<path fill="#A5B1B1" opacity="1.000000" stroke="none" 
	d="
M2490.032715,1086.237305 
	C2493.019287,1086.111084 2496.005615,1085.874756 2498.992188,1085.874756 
	C2663.365967,1085.871582 2827.739502,1085.888306 2993.060059,1086.549805 
	C2994.006836,1087.196411 2994.075195,1088.182739 2993.137207,1088.301025 
	C2958.258789,1088.473267 2924.318359,1088.566528 2890.377930,1088.574463 
	C2762.203369,1088.604126 2634.028809,1088.610229 2505.854248,1088.603027 
	C2500.531982,1088.602783 2495.209961,1088.381836 2489.934326,1087.757812 
	C2489.998291,1086.913696 2490.015381,1086.575562 2490.032715,1086.237305 
z"/>
<path fill="#686663" opacity="1.000000" stroke="none" 
	d="
M2380.107910,1093.172852 
	C2377.999268,1088.664185 2373.856445,1090.242798 2370.478271,1090.207886 
	C2353.265625,1090.029541 2336.050293,1090.122437 2318.837158,1089.986450 
	C2315.585938,1089.960693 2312.339355,1089.328735 2308.506836,1088.360840 
	C2310.292725,1087.090088 2312.656250,1085.898682 2315.034180,1085.869507 
	C2327.459229,1085.716675 2339.887939,1085.858887 2353.898193,1086.560547 
	C2380.353760,1087.439941 2405.226807,1087.657227 2431.016357,1087.898926 
	C2438.740723,1088.216187 2445.548584,1088.509033 2452.288086,1089.327637 
	C2452.202393,1090.922852 2452.184570,1091.992310 2452.166992,1093.061768 
	C2438.077393,1093.364136 2423.988037,1093.666382 2408.073730,1093.874023 
	C2397.535400,1093.577271 2388.821777,1093.375000 2380.107910,1093.172852 
z"/>
<path fill="#989999" opacity="1.000000" stroke="none" 
	d="
M614.951050,1086.057861 
	C612.706909,1086.737061 609.550049,1087.758301 606.366089,1087.850952 
	C594.074707,1088.209595 581.774719,1088.271484 567.651428,1088.551636 
	C551.071838,1088.949463 536.319641,1089.333252 521.565125,1089.466309 
	C517.709595,1089.501099 513.847046,1088.755615 509.987701,1088.368530 
	C509.981964,1088.007568 509.976196,1087.646484 509.969666,1086.743896 
	C544.654602,1086.125977 579.340271,1086.049805 614.951050,1086.057861 
z"/>
<path fill="#81807E" opacity="1.000000" stroke="none" 
	d="
M2430.099609,1087.874512 
	C2405.226807,1087.657227 2380.353760,1087.439941 2354.832031,1086.743164 
	C2378.850098,1086.105957 2403.517334,1085.948242 2429.103516,1086.403076 
	C2430.022705,1087.015625 2430.099609,1087.874512 2430.099609,1087.874512 
z"/>
<path fill="#969796" opacity="1.000000" stroke="none" 
	d="
M2994.075195,1088.182739 
	C2994.075195,1088.182739 2994.006836,1087.196411 2993.983887,1086.702637 
	C3017.333496,1086.104614 3040.706055,1086.000244 3065.001953,1086.031006 
	C3062.465576,1086.750732 3059.010986,1087.799072 3055.543945,1087.842773 
	C3036.153564,1088.087036 3016.760010,1088.088257 2996.056396,1088.296753 
	C2994.745117,1088.421021 2994.075195,1088.182739 2994.075195,1088.182739 
z"/>
<path fill="#989999" opacity="1.000000" stroke="none" 
	d="
M2431.016357,1087.898926 
	C2430.099609,1087.874512 2430.022705,1087.015625 2430.028076,1086.584473 
	C2449.416992,1086.060425 2468.800537,1085.967529 2489.108398,1086.055908 
	C2490.015381,1086.575562 2489.998291,1086.913696 2489.016113,1087.892090 
	C2476.153076,1088.621948 2464.254639,1088.711914 2452.356201,1088.801880 
	C2445.548584,1088.509033 2438.740723,1088.216187 2431.016357,1087.898926 
z"/>
<path fill="#686663" opacity="1.000000" stroke="none" 
	d="
M1259.254150,1086.142334 
	C1256.815308,1091.023560 1255.476807,1091.208130 1250.101562,1087.029785 
	C1252.750610,1086.215942 1255.586914,1086.074829 1259.254150,1086.142334 
z"/>
<path fill="#686663" opacity="1.000000" stroke="none" 
	d="
M1779.145996,1086.219971 
	C1776.359741,1086.741699 1772.739258,1087.046753 1768.575684,1086.894897 
	C1771.458984,1086.293091 1774.885376,1086.148315 1779.145996,1086.219971 
z"/>
<path fill="#686663" opacity="1.000000" stroke="none" 
	d="
M2301.713379,1087.129761 
	C2300.046387,1090.315186 2298.076904,1090.665649 2296.054199,1086.963867 
	C2297.729004,1086.404541 2299.542236,1086.466309 2301.713379,1087.129761 
z"/>
<path fill="#686663" opacity="1.000000" stroke="none" 
	d="
M1929.207031,1086.234619 
	C1927.636597,1086.748535 1925.291382,1087.028198 1922.485352,1086.872314 
	C1924.160400,1086.291260 1926.296143,1086.145874 1929.207031,1086.234619 
z"/>
<path fill="#686663" opacity="1.000000" stroke="none" 
	d="
M1789.260986,1086.231689 
	C1788.269775,1086.724365 1786.545898,1087.002197 1784.419678,1086.864746 
	C1785.520996,1086.305298 1787.024780,1086.161133 1789.260986,1086.231689 
z"/>
<path fill="#686663" opacity="1.000000" stroke="none" 
	d="
M1151.517578,1086.281494 
	C1151.478638,1086.605347 1150.926147,1086.783081 1150.173584,1086.686768 
	C1150.316895,1086.320312 1150.660645,1086.227783 1151.517578,1086.281494 
z"/>
<path fill="#686663" opacity="1.000000" stroke="none" 
	d="
M1939.517090,1086.287231 
	C1939.479004,1086.609619 1938.927124,1086.790161 1938.174683,1086.696533 
	C1938.317261,1086.330078 1938.660278,1086.237793 1939.517090,1086.287231 
z"/>
<path fill="#686663" opacity="1.000000" stroke="none" 
	d="
M1119.517456,1086.296875 
	C1119.478760,1086.619995 1118.926758,1086.798706 1118.174561,1086.703735 
	C1118.317627,1086.337402 1118.660889,1086.244873 1119.517456,1086.296875 
z"/>
<path fill="#686663" opacity="1.000000" stroke="none" 
	d="
M1125.516602,1086.317139 
	C1125.479248,1086.640015 1124.927490,1086.822021 1124.174805,1086.731079 
	C1124.316406,1086.364258 1124.659302,1086.270264 1125.516602,1086.317139 
z"/>
<path fill="#686663" opacity="1.000000" stroke="none" 
	d="
M1135.517456,1086.313721 
	C1135.478271,1086.635010 1134.925659,1086.813965 1134.173096,1086.718018 
	C1134.316895,1086.352661 1134.660400,1086.262085 1135.517456,1086.313721 
z"/>
<path fill="#686663" opacity="1.000000" stroke="none" 
	d="
M1955.517090,1086.288330 
	C1955.479370,1086.610229 1954.927490,1086.792236 1954.174805,1086.699951 
	C1954.316895,1086.333252 1954.659912,1086.240967 1955.517090,1086.288330 
z"/>
<path fill="#686663" opacity="1.000000" stroke="none" 
	d="
M1141.516113,1086.308960 
	C1141.480103,1086.631226 1140.928711,1086.816772 1140.175537,1086.729248 
	C1140.316040,1086.361572 1140.658569,1086.266846 1141.516113,1086.308960 
z"/>
<path fill="#686663" opacity="1.000000" stroke="none" 
	d="
M1915.516846,1086.290527 
	C1915.478760,1086.612549 1914.926758,1086.793213 1914.174316,1086.699463 
	C1914.316895,1086.333252 1914.659912,1086.241211 1915.516846,1086.290527 
z"/>
<path fill="#686663" opacity="1.000000" stroke="none" 
	d="
M1157.515625,1086.279297 
	C1157.481445,1086.602783 1156.931274,1086.792480 1156.177490,1086.710205 
	C1156.315918,1086.340698 1156.657715,1086.243042 1157.515625,1086.279297 
z"/>
<path fill="#686663" opacity="1.000000" stroke="none" 
	d="
M1761.517090,1086.289551 
	C1761.479126,1086.612305 1760.927246,1086.793213 1760.174561,1086.700317 
	C1760.316895,1086.333740 1760.659912,1086.240723 1761.517090,1086.289551 
z"/>
<path fill="#686663" opacity="1.000000" stroke="none" 
	d="
M1961.516846,1086.291016 
	C1961.479126,1086.613281 1960.927124,1086.794678 1960.174438,1086.702393 
	C1960.316772,1086.335693 1960.659790,1086.242920 1961.516846,1086.291016 
z"/>
<path fill="#686663" opacity="1.000000" stroke="none" 
	d="
M1795.515381,1086.281250 
	C1795.481689,1086.604004 1794.931641,1086.794800 1794.177979,1086.713867 
	C1794.315918,1086.344482 1794.657471,1086.246826 1795.515381,1086.281250 
z"/>
<path fill="#686663" opacity="1.000000" stroke="none" 
	d="
M1829.516968,1086.306641 
	C1829.479126,1086.627197 1828.927124,1086.809570 1828.174438,1086.717529 
	C1828.316772,1086.351562 1828.659790,1086.260010 1829.516968,1086.306641 
z"/>
<path fill="#686663" opacity="1.000000" stroke="none" 
	d="
M1849.515991,1086.283813 
	C1849.480225,1086.606567 1848.929321,1086.792114 1848.176270,1086.705078 
	C1848.316406,1086.337036 1848.658691,1086.241821 1849.515991,1086.283813 
z"/>
<path fill="#686663" opacity="1.000000" stroke="none" 
	d="
M1909.516357,1086.286865 
	C1909.480103,1086.609497 1908.929077,1086.794434 1908.176025,1086.706299 
	C1908.316528,1086.338623 1908.659058,1086.243896 1909.516357,1086.286865 
z"/>
<path fill="#D9DDE1" opacity="1.000000" stroke="none" 
	d="
M3060.171875,1095.185791 
	C3075.134766,1094.285278 3090.371826,1094.053711 3105.609375,1093.971558 
	C3122.187012,1093.882080 3138.765381,1093.945801 3155.343262,1093.911499 
	C3160.310547,1093.901245 3165.453125,1094.289062 3169.261230,1088.606079 
	C3170.470703,1088.336792 3171.111816,1088.728149 3171.672607,1090.018555 
	C3170.422607,1092.691406 3169.253174,1094.465332 3168.083984,1096.239380 
	C3168.048096,1098.302979 3168.012207,1100.366699 3168.216553,1103.733521 
	C3168.959229,1106.441528 3169.461670,1107.846436 3169.963867,1109.251343 
	C3167.798096,1110.842773 3165.632324,1112.434326 3162.812988,1114.210449 
	C3161.116699,1111.248413 3160.073975,1108.101685 3158.527100,1104.483887 
	C3157.196533,1097.223267 3152.019043,1098.054565 3147.423584,1098.044067 
	C3122.179443,1097.986328 3096.934570,1098.057617 3071.691895,1097.857788 
	C3067.938477,1097.828125 3064.194336,1096.596069 3060.171875,1095.185791 
z"/>
<path fill="#D9DDE1" opacity="1.000000" stroke="none" 
	d="
M2379.197998,1093.447998 
	C2388.821777,1093.375000 2397.535400,1093.577271 2407.152344,1094.036377 
	C2407.295166,1095.312622 2406.738037,1096.799561 2405.725586,1097.239868 
	C2404.277832,1097.869507 2402.499756,1097.871704 2400.858154,1097.904297 
	C2366.280762,1098.593628 2331.704346,1099.397583 2297.123291,1099.817505 
	C2287.281006,1099.937012 2277.427979,1098.654907 2267.573486,1098.526855 
	C2261.978271,1098.453979 2256.369629,1099.850098 2250.766846,1099.851807 
	C2019.222534,1099.923584 1787.678101,1099.952026 1556.133789,1099.828979 
	C1539.212158,1099.819946 1522.141235,1096.917969 1505.402222,1098.375122 
	C1475.109741,1101.011963 1444.874146,1099.344238 1414.625854,1099.766968 
	C1400.048340,1099.970581 1385.409790,1097.607666 1370.866211,1098.164185 
	C1265.002319,1102.213745 1159.109863,1099.197754 1053.235107,1099.792236 
	C947.294434,1100.387207 841.334351,1100.891113 735.410461,1099.428467 
	C693.507202,1098.849854 651.587097,1098.598389 609.681091,1097.817871 
	C607.262207,1097.772827 604.867432,1096.430420 602.209961,1094.945435 
	C615.802246,1093.999878 629.645508,1093.739990 643.489990,1093.617920 
	C657.682556,1093.492798 671.876282,1093.502563 686.987976,1093.274414 
	C691.869141,1093.385864 695.831848,1093.930176 699.794556,1093.930664 
	C1190.982056,1093.982300 1682.169678,1093.995483 2173.357178,1094.005737 
	C2237.338135,1094.007080 2301.319336,1093.987549 2365.300293,1093.959839 
	C2369.629639,1093.958008 2373.958740,1093.805664 2379.197998,1093.447998 
z"/>
<path fill="#4D473A" opacity="1.000000" stroke="none" 
	d="
M2452.288086,1089.327637 
	C2464.254639,1088.711914 2476.153076,1088.621948 2488.969727,1088.397949 
	C2495.209961,1088.381836 2500.531982,1088.602783 2505.854248,1088.603027 
	C2634.028809,1088.610229 2762.203369,1088.604126 2890.377930,1088.574463 
	C2924.318359,1088.566528 2958.258789,1088.473267 2993.137207,1088.301025 
	C2994.075195,1088.182739 2994.745117,1088.421021 2995.096191,1088.455811 
	C2995.554443,1089.673828 2995.661621,1090.857178 2995.735840,1092.649780 
	C2992.708984,1093.355347 2989.715088,1093.535645 2986.720947,1093.535522 
	C2810.476074,1093.528442 2634.231445,1093.506836 2457.986572,1093.482788 
	C2456.654297,1093.482666 2455.322266,1093.429321 2453.078613,1093.231201 
	C2452.184570,1091.992310 2452.202393,1090.922852 2452.288086,1089.327637 
z"/>
<path fill="#4D473A" opacity="1.000000" stroke="none" 
	d="
M509.052979,1088.449463 
	C513.847046,1088.755615 517.709595,1089.501099 521.565125,1089.466309 
	C536.319641,1089.333252 551.071838,1088.949463 566.720459,1088.800537 
	C567.670593,1089.968506 567.725220,1090.995361 567.804626,1092.546387 
	C565.840149,1093.210815 563.850769,1093.473511 561.861450,1093.473633 
	C386.569397,1093.482544 211.277344,1093.471313 35.069534,1093.310913 
	C34.164696,1092.062134 34.175610,1090.964111 34.232113,1089.323975 
	C71.593323,1088.713867 108.908928,1088.598145 146.224564,1088.586060 
	C266.855804,1088.547119 387.487030,1088.546143 509.052979,1088.449463 
z"/>
<path fill="#030303" opacity="1.000000" stroke="none" 
	d="
M746.063721,858.073914 
	C746.063965,851.797180 746.063965,846.510376 746.063965,840.071838 
	C764.158752,839.475098 782.140503,837.940186 797.703979,848.717712 
	C802.783325,852.235168 806.855469,858.521545 809.200806,864.412476 
	C814.937439,878.821472 815.784241,893.841248 812.319580,909.224792 
	C810.535278,917.147400 808.443909,924.551819 803.042358,930.814514 
	C796.419006,938.493774 787.566650,942.384705 778.107544,944.064453 
	C767.731750,945.906982 757.072144,946.000488 746.063416,944.223572 
	C746.063416,915.493958 746.063416,887.278870 746.063721,858.073914 
z"/>
<path fill="#030303" opacity="1.000000" stroke="none" 
	d="
M1425.231079,944.392029 
	C1414.151855,944.947144 1403.897461,946.343750 1393.065186,943.732300 
	C1393.065186,909.378723 1393.065186,875.280762 1393.065186,840.187195 
	C1409.659302,839.721619 1425.638428,838.411438 1441.009644,845.907837 
	C1449.451050,850.024658 1454.520264,856.799622 1457.489746,864.899902 
	C1463.983276,882.612793 1464.119995,900.779297 1457.953735,918.630310 
	C1454.064453,929.889709 1446.142944,937.737061 1434.659058,941.617493 
	C1431.828491,942.573975 1428.947510,943.380737 1425.231079,944.392029 
z"/>
<path fill="#DEDEDE" opacity="1.000000" stroke="none" 
	d="
M3170.619141,1109.498657 
	C3169.461670,1107.846436 3168.959229,1106.441528 3168.229004,1104.507568 
	C3170.144775,1103.974365 3172.288086,1103.970459 3174.997314,1104.475220 
	C3175.047852,1106.445679 3174.532227,1107.907593 3174.016602,1109.369507 
	C3173.102539,1109.494995 3172.188477,1109.620483 3170.619141,1109.498657 
z"/>
<path fill="#D9DDE1" opacity="1.000000" stroke="none" 
	d="
M3174.696289,1109.541260 
	C3174.532227,1107.907593 3175.047852,1106.445679 3175.800293,1104.431274 
	C3176.037109,1103.878784 3177.025635,1103.864746 3177.514648,1103.935303 
	C3177.127686,1105.908325 3176.251709,1107.810669 3174.696289,1109.541260 
z"/>
<path fill="#DEDEDE" opacity="1.000000" stroke="none" 
	d="
M3168.818848,1096.160645 
	C3169.253174,1094.465332 3170.422607,1092.691406 3171.898438,1090.342041 
	C3173.208008,1089.307861 3174.210938,1088.848999 3175.753906,1088.231201 
	C3176.022949,1092.404541 3174.633545,1095.795898 3168.818848,1096.160645 
z"/>
<path fill="#030303" opacity="1.000000" stroke="none" 
	d="
M869.368530,1007.798096 
	C870.446655,986.190613 899.176270,973.742615 915.531677,972.493958 
	C915.531677,985.362915 915.998291,998.187866 915.349426,1010.956055 
	C914.984314,1018.140259 903.834412,1026.581665 895.129150,1027.736450 
	C882.122131,1029.461792 874.985840,1024.150513 869.368530,1007.798096 
z"/>
<path fill="#030303" opacity="1.000000" stroke="none" 
	d="
M1940.508545,918.550842 
	C1951.291992,907.269592 1960.776978,904.713684 1971.000366,910.297302 
	C1973.562744,911.696838 1976.067383,913.599243 1977.921875,915.832520 
	C1988.784424,928.913940 1991.129761,944.821350 1993.547241,962.437622 
	C1970.766235,963.262817 1949.033813,962.668884 1926.116699,962.913818 
	C1925.977417,946.082153 1930.731934,931.904480 1940.508545,918.550842 
z"/>
<path fill="#030303" opacity="1.000000" stroke="none" 
	d="
M1694.956543,907.973267 
	C1710.957520,913.396912 1715.621582,926.784058 1719.717529,940.182312 
	C1721.778198,946.922974 1722.148438,954.180359 1723.438843,962.167603 
	C1700.098755,962.167603 1678.337769,962.167603 1656.632324,962.167603 
	C1652.689819,954.631287 1657.368896,948.095581 1658.745728,941.770569 
	C1660.827026,932.209351 1665.347290,923.117676 1672.709595,915.939270 
	C1678.718872,910.079956 1685.437622,906.376099 1694.956543,907.973267 
z"/>
</svg>