<svg version="1.1" id="Layer_1" xmlns="http://www.w3.org/2000/svg" xmlns:xlink="http://www.w3.org/1999/xlink" x="0px" y="0px"
	 width="100%" viewBox="0 0 4096 1801" enable-background="new 0 0 4096 1801" xml:space="preserve">
<path fill="#000000" opacity="1.000000" stroke="none" 
	d="
M2852.000000,1804.000000 
	C1901.333496,1804.000000 951.666992,1804.000000 2.000382,1804.000000 
	C2.000255,1203.333618 2.000255,602.667236 2.000127,2.000624 
	C1367.332886,2.000416 2732.665771,2.000416 4097.999023,2.000208 
	C4097.999023,602.666077 4097.999023,1203.332153 4097.999512,1803.999023 
	C3683.000000,1804.000000 3268.000000,1804.000000 2852.000000,1804.000000 
M1865.243164,640.738953 
	C1864.741333,641.063477 1864.342773,641.485535 1862.731323,642.359497 
	C1859.788086,646.772339 1856.531860,651.011047 1853.961670,655.631348 
	C1846.782227,668.537842 1845.324951,682.679016 1846.166016,697.085938 
	C1847.131958,713.635315 1853.326538,728.250305 1865.471191,739.517700 
	C1880.050415,753.043884 1898.039429,755.146362 1916.715332,751.370544 
	C1929.903076,748.704224 1940.441650,741.356018 1947.741943,729.762207 
	C1950.745850,724.991760 1951.378906,720.193726 1948.309204,713.614990 
	C1945.593384,716.439636 1943.616089,718.451965 1941.687744,720.510010 
	C1936.176147,726.392639 1930.172119,731.539307 1922.110840,733.588684 
	C1892.764771,741.049194 1872.122803,715.872009 1876.690918,689.450500 
	C1902.645874,689.450500 1928.788086,689.450500 1955.512085,689.450500 
	C1956.697388,672.925293 1953.872559,658.557800 1943.957031,644.658386 
	C1942.694092,643.586853 1941.431030,642.515381 1940.040771,640.526001 
	C1940.040771,640.526001 1939.320312,639.943298 1939.228149,639.283386 
	C1938.963989,638.841553 1938.580322,638.675049 1936.911499,638.117493 
	C1935.848877,637.420776 1934.786255,636.724121 1933.609741,634.638367 
	C1916.825317,622.251770 1884.936890,622.645691 1868.272705,637.817383 
	C1868.272705,637.817383 1867.963501,638.404053 1867.216431,638.704834 
	C1866.746826,639.042053 1866.494873,639.499207 1866.099487,640.105225 
	C1866.099487,640.105225 1866.076172,640.466797 1865.243164,640.738953 
M2614.911621,666.268555 
	C2614.911621,666.268555 2615.384521,666.247131 2616.344482,667.517822 
	C2619.031006,671.620972 2621.813721,675.665405 2624.369141,679.848450 
	C2625.986328,682.495911 2627.367432,685.155029 2632.305176,682.913696 
	C2632.305176,665.651184 2632.421387,647.896240 2632.192139,630.145813 
	C2632.153564,627.149963 2630.224365,624.632812 2625.798340,624.858154 
	C2624.773926,627.414307 2623.476562,629.981995 2622.707275,632.699341 
	C2620.532959,640.378174 2614.820312,644.581543 2608.193848,647.923523 
	C2606.142822,648.958008 2603.953369,649.719055 2600.007812,650.756042 
	C2592.076416,650.294495 2584.145264,649.832886 2576.373047,647.582764 
	C2576.212158,635.710693 2576.051270,623.838623 2576.311768,611.036011 
	C2576.164795,609.372192 2576.018066,607.708374 2576.179199,604.440186 
	C2576.059326,602.274841 2575.939453,600.109497 2576.299561,596.419739 
	C2576.299561,588.514038 2576.299561,580.608276 2576.299561,572.442017 
	C2591.496338,569.904541 2605.354004,571.449341 2618.879150,575.027527 
	C2635.846191,579.516174 2649.384521,588.310120 2653.485840,607.021362 
	C2653.769043,608.313232 2654.056641,609.782898 2654.855469,610.742554 
	C2656.193359,612.349976 2657.944824,613.613037 2659.522461,615.020996 
	C2660.538818,613.182434 2662.384277,611.365784 2662.433594,609.501709 
	C2662.697510,599.513794 2662.528564,589.514038 2662.481201,579.518433 
	C2662.409668,564.382507 2665.824219,562.594360 2644.486084,562.805786 
	C2611.871094,563.128967 2579.247070,562.448425 2546.626709,562.415649 
	C2541.590820,562.410583 2536.554199,563.587463 2529.186035,564.509521 
	C2532.454834,568.528137 2533.793945,571.201355 2535.955078,572.640686 
	C2542.745850,577.163757 2545.278809,583.278137 2545.145264,591.286438 
	C2544.807129,611.603699 2544.779785,631.927612 2544.795410,652.248779 
	C2544.805908,666.210510 2545.096680,680.171997 2544.792236,695.773071 
	C2544.810303,705.395996 2544.848389,715.018982 2544.839600,724.641907 
	C2544.833252,731.437378 2542.939941,737.009949 2535.805908,739.693176 
	C2534.071533,740.345520 2532.838135,742.329773 2531.025146,744.028748 
	C2540.479248,748.234619 2584.467041,748.411133 2595.565918,744.791382 
	C2593.524902,740.478882 2593.575928,739.996277 2590.056152,739.624817 
	C2582.720459,738.850708 2578.962891,734.664795 2577.748291,726.644165 
	C2577.252441,725.569031 2576.756348,724.493896 2576.342285,721.618652 
	C2576.273438,701.875610 2576.204346,682.132629 2576.636719,661.638123 
	C2576.858154,661.079773 2577.055908,660.513306 2577.677734,659.888123 
	C2577.677734,659.888123 2577.831055,659.464722 2579.673584,659.187195 
	C2590.784668,658.434692 2601.628418,659.616272 2612.090332,663.979004 
	C2612.090332,663.979004 2612.398438,663.951050 2612.731201,664.649414 
	C2613.059082,665.087402 2613.494141,665.342102 2614.329590,665.875244 
	C2614.329590,665.875244 2614.870850,665.952637 2614.911621,666.268555 
M1988.015015,631.925903 
	C1988.015015,631.925903 1987.864868,631.844604 1986.593872,631.947693 
	C1984.946289,633.247131 1983.298584,634.546570 1980.413696,636.381409 
	C1977.786499,640.942078 1974.160645,645.209656 1972.719482,650.118530 
	C1968.429932,664.730713 1973.906250,678.522461 1987.641235,688.110840 
	C1997.415283,694.934082 2007.690674,701.044678 2017.802124,707.378052 
	C2024.648926,711.666687 2030.991333,716.462830 2034.576660,723.961487 
	C2038.896973,732.997253 2034.802856,742.749451 2025.325073,743.942383 
	C2007.896729,746.136047 1989.545288,741.807190 1983.464844,719.448120 
	C1982.023804,714.149231 1980.365234,708.909607 1978.887085,703.914368 
	C1973.242188,703.119446 1972.785400,706.212341 1972.806519,709.921204 
	C1972.852173,717.906006 1973.284302,725.933838 1972.610352,733.863525 
	C1972.036743,740.615112 1974.394531,744.689880 1980.605103,746.786011 
	C1984.035645,747.943787 1987.499512,749.003418 1990.948853,750.105103 
	C2003.607056,754.147888 2016.731201,753.397705 2029.520630,752.329895 
	C2052.890625,750.378906 2065.613037,731.848694 2057.798584,709.588318 
	C2054.011230,698.799438 2046.399780,691.254150 2037.109619,685.120667 
	C2025.780640,677.641174 2013.499878,671.246155 2003.383423,662.381958 
	C1991.883179,652.305298 1991.871338,644.478821 2003.353638,636.372559 
	C2003.353638,636.372559 2003.983887,636.004517 2005.011230,636.044739 
	C2005.296875,635.855347 2005.582520,635.666016 2007.640991,634.987488 
	C2025.447266,631.578430 2043.733276,643.318359 2047.084229,663.953613 
	C2047.296875,665.263123 2047.404541,666.642700 2047.912598,667.840637 
	C2049.158691,670.778564 2052.468750,671.135559 2053.932617,668.312744 
	C2054.922607,666.404236 2055.359619,663.995361 2055.338135,661.817322 
	C2055.280518,655.991333 2054.802246,650.170776 2054.564453,644.345032 
	C2054.133057,633.768250 2052.090088,631.657104 2041.829590,629.015869 
	C2029.429810,625.823975 2016.831665,625.707825 2004.253296,626.260315 
	C1999.556274,626.466614 1994.953369,628.817383 1990.061768,630.142700 
	C1990.061768,630.142700 1990.046509,630.392578 1989.141357,630.603394 
	C1988.518555,630.834656 1988.089600,631.261047 1988.015015,631.925903 
M1722.003052,581.989807 
	C1722.003052,581.989807 1722.077148,581.882690 1721.486084,580.669861 
	C1720.485107,579.824158 1719.566162,578.849731 1718.470703,578.152222 
	C1702.416260,567.928650 1683.839600,567.500854 1665.945801,566.095032 
	C1647.512939,564.646912 1628.861816,565.963684 1610.306519,566.104797 
	C1607.056885,566.129517 1603.424805,565.583252 1602.246704,571.103699 
	C1607.255249,574.609436 1612.564575,578.325745 1617.941040,583.802063 
	C1618.227905,587.894592 1618.514771,591.987061 1618.527588,597.000427 
	C1618.527588,597.000427 1618.859253,597.902100 1618.542603,599.708923 
	C1618.589233,605.824829 1618.635986,611.940796 1618.253174,618.975586 
	C1618.276489,619.312866 1618.299683,619.650146 1617.973633,621.847778 
	C1618.501099,630.412781 1619.397949,638.974121 1619.483276,647.543518 
	C1619.698975,669.203064 1619.694702,690.867798 1619.459595,712.527039 
	C1619.388184,719.117371 1618.675903,725.767822 1617.514404,732.257751 
	C1616.612549,737.296875 1614.318970,741.847290 1607.943359,742.005798 
	C1604.250244,742.097534 1602.842896,744.347900 1602.720337,748.655518 
	C1610.534058,750.580750 1618.497803,749.605286 1626.338867,749.733032 
	C1634.666016,749.868713 1643.010498,749.834412 1651.327271,749.444824 
	C1659.002441,749.085266 1666.958008,750.851685 1674.984375,747.854980 
	C1672.894409,742.646973 1669.436279,742.325378 1665.702881,742.002441 
	C1654.851685,741.063721 1651.114502,737.476807 1650.423950,726.523010 
	C1649.838135,717.229248 1649.908569,707.890930 1649.801758,698.571106 
	C1649.711426,690.693848 1649.783203,682.814880 1649.783203,674.252563 
	C1654.624268,673.784668 1658.523438,673.088501 1662.422363,673.090515 
	C1674.404541,673.096741 1686.236938,672.479309 1698.118164,670.273132 
	C1719.561401,666.291382 1733.772583,653.806458 1737.163696,632.383789 
	C1739.969238,614.659851 1738.602295,597.355957 1723.940430,582.838745 
	C1723.326416,582.526611 1722.712280,582.214417 1722.003052,581.989807 
M1786.986450,661.042664 
	C1791.881714,654.474609 1795.974365,647.005615 1805.144775,644.663574 
	C1805.640381,646.160217 1805.953003,647.418274 1806.461792,648.591248 
	C1810.171631,657.144653 1816.075684,660.656128 1824.475830,659.359192 
	C1833.089966,658.029175 1837.301392,653.293701 1837.652466,644.543396 
	C1838.010254,635.620483 1833.603638,629.586731 1824.699097,627.135132 
	C1814.706299,624.383911 1806.630615,629.355530 1798.960815,634.429810 
	C1794.098755,637.646545 1790.110840,642.184692 1785.620239,644.365479 
	C1785.446777,640.266663 1785.273438,636.167908 1785.442993,630.615540 
	C1785.009277,627.535217 1783.366577,625.666138 1780.146606,626.361694 
	C1769.612183,628.637146 1759.116089,631.089905 1748.726440,633.446899 
	C1748.312744,634.187561 1747.816040,634.719238 1747.710571,635.319519 
	C1746.281494,643.449158 1753.255371,643.642090 1758.055298,647.663147 
	C1758.328003,649.811462 1758.600708,651.959717 1758.572876,654.999817 
	C1758.572876,654.999817 1758.896484,655.883484 1758.556030,657.721741 
	C1758.343262,664.368347 1757.835449,671.021118 1757.976074,677.660278 
	C1758.326294,694.197327 1759.242065,710.726379 1759.351318,727.262451 
	C1759.389404,733.007385 1759.139282,739.262085 1752.508179,742.629822 
	C1751.127441,743.331055 1750.860718,746.225830 1750.001953,748.299561 
	C1763.453125,751.011353 1789.072510,750.499390 1797.168457,747.089905 
	C1795.175659,745.023865 1793.457642,743.366089 1791.887329,741.578613 
	C1790.435425,739.925781 1788.422852,738.314941 1787.931396,736.364624 
	C1786.984131,732.603638 1786.621582,728.620605 1786.566772,724.721985 
	C1786.271973,703.773621 1786.146484,682.822998 1786.986450,661.042664 
M2812.254639,625.952332 
	C2809.931641,626.003113 2807.427246,625.534424 2805.340088,626.261841 
	C2803.528076,626.893372 2802.187988,628.878723 2800.639404,630.265808 
	C2802.210693,631.697144 2803.563477,633.809326 2805.404785,634.400513 
	C2808.177734,635.291199 2811.292725,635.118469 2814.436035,637.341675 
	C2814.470459,660.964844 2814.466064,684.588196 2814.572510,708.211060 
	C2814.593506,712.834900 2815.043213,717.456848 2815.148682,722.808228 
	C2815.239746,723.343994 2815.533203,723.723267 2816.565430,725.463623 
	C2819.838867,746.106445 2834.661865,755.278320 2855.646729,749.645874 
	C2869.765869,745.856140 2879.295898,733.517273 2875.464844,722.250427 
	C2873.037354,724.429382 2871.022461,726.340088 2868.900879,728.124268 
	C2861.665527,734.209167 2854.919922,734.835144 2848.253174,730.001038 
	C2842.793945,726.042603 2842.113770,719.789551 2842.014404,714.031555 
	C2841.596680,689.782654 2841.699463,665.524475 2841.698242,641.269653 
	C2841.697998,639.329834 2842.357178,637.390076 2842.761719,635.165894 
	C2850.481445,634.746826 2858.031006,634.336975 2867.078125,634.006958 
	C2868.481201,632.513489 2869.884033,631.020081 2871.286865,629.526672 
	C2869.468262,628.436462 2867.707031,626.531494 2865.820801,626.398193 
	C2857.957764,625.842712 2850.056641,625.820190 2842.147217,623.778564 
	C2841.064941,611.227905 2844.558105,598.230530 2839.381592,585.397400 
	C2830.404297,587.026245 2822.472168,588.465454 2813.901611,590.020508 
	C2813.901611,602.733032 2813.901611,614.333923 2812.254639,625.952332 
M2365.779785,623.968018 
	C2363.713623,611.475037 2368.178711,598.407898 2363.445312,585.557251 
	C2357.833008,586.490051 2353.308105,587.438171 2348.734863,587.961792 
	C2338.905029,589.087341 2338.774902,589.023254 2338.634277,598.646057 
	C2338.504150,607.544983 2338.606445,616.447266 2338.606445,625.657837 
	C2334.834473,625.925293 2332.073730,625.633118 2329.693848,626.450073 
	C2327.910156,627.062256 2326.616943,629.102173 2325.105225,630.506409 
	C2326.450684,631.744568 2327.608643,633.612366 2329.183105,634.081421 
	C2331.913330,634.894592 2334.901367,634.842041 2338.631592,635.244202 
	C2338.631592,639.576538 2338.632324,643.194824 2338.631592,646.813110 
	C2338.628662,665.786804 2338.805420,684.762939 2338.545898,703.733154 
	C2338.417969,713.081055 2339.163574,722.202026 2341.409668,731.303345 
	C2344.192627,742.579102 2352.250977,749.583923 2363.958008,750.014832 
	C2367.282227,750.137268 2370.622070,750.180908 2373.941895,750.012085 
	C2384.671631,749.466431 2392.852051,744.131531 2398.923096,735.667297 
	C2401.541260,732.017151 2403.388916,727.622314 2399.629150,722.491882 
	C2395.624756,725.515747 2392.302979,728.656067 2388.433838,730.816345 
	C2379.887939,735.588562 2371.714111,732.785461 2368.437256,723.766724 
	C2366.779785,719.205444 2365.816895,714.138245 2365.771240,709.288208 
	C2365.558838,686.656921 2365.761963,664.021484 2365.863281,641.387756 
	C2365.871826,639.449402 2366.224854,637.512634 2366.452881,635.225159 
	C2374.321045,634.767883 2381.857178,634.329956 2390.982422,633.933838 
	C2392.766602,632.889832 2394.550781,631.845764 2396.334961,630.801697 
	C2396.320801,630.079529 2396.306885,629.357361 2396.292725,628.635132 
	C2393.455078,627.838745 2390.649658,626.528748 2387.773193,626.346863 
	C2380.563232,625.890991 2373.320801,625.945923 2365.779785,623.968018 
M322.512115,1454.796143 
	C322.135193,1461.178223 323.555634,1466.817017 329.863983,1469.765503 
	C336.754150,1472.986084 342.479004,1471.161987 347.774597,1465.697998 
	C355.635162,1457.587280 363.988220,1449.953979 372.128174,1442.113892 
	C408.319031,1407.256348 444.524933,1372.414185 480.692078,1337.531982 
	C499.830048,1319.073853 518.899780,1300.545044 538.000427,1282.048340 
	C538.239807,1281.816406 538.478943,1281.584229 538.720276,1281.354614 
	C562.070740,1259.138672 585.464966,1236.968750 608.760071,1214.694946 
	C633.711487,1190.837402 658.560486,1166.872803 683.470459,1142.971802 
	C711.284546,1116.284546 739.209412,1089.711792 766.912537,1062.909912 
	C790.089783,1040.486572 813.016174,1017.804077 836.057251,995.240051 
	C838.437012,992.909546 840.823242,990.585144 843.236450,988.289490 
	C862.756042,969.721130 882.345764,951.225769 901.781799,932.570312 
	C911.875305,922.882263 921.581421,912.790649 931.673889,903.101379 
	C950.135620,885.377441 968.947388,868.013245 987.187500,850.066467 
	C992.549377,844.790955 997.794678,842.169312 1005.519226,842.181763 
	C1054.169067,842.260193 1102.819458,841.785461 1151.469971,841.590881 
	C1226.447754,841.290955 1301.425781,840.863586 1376.403687,840.866089 
	C1473.052246,840.869324 1569.700928,841.211304 1666.349365,841.467712 
	C1746.664673,841.680786 1826.979858,842.208191 1907.295044,842.193665 
	C2058.599609,842.166321 2209.904297,841.838989 2361.208740,841.658386 
	C2402.841309,841.608704 2444.474121,841.554932 2486.106445,841.648621 
	C2548.422363,841.788879 2610.737549,842.266357 2673.053223,842.231262 
	C2833.642334,842.140869 2994.231689,841.895813 3154.820801,841.619202 
	C3262.468018,841.433716 3370.114502,840.954346 3477.761719,840.847107 
	C3631.405029,840.694031 3785.048340,840.762939 3938.691650,840.724915 
	C3942.021484,840.724060 3945.374756,840.793884 3948.673584,840.433044 
	C3951.437988,840.130554 3954.002197,839.128784 3953.297363,833.872437 
	C3952.826904,829.900146 3952.356201,825.927795 3951.934082,820.901794 
	C3951.322021,820.709290 3950.709961,820.516785 3948.274414,820.048706 
	C3726.995117,820.069031 3505.716064,820.106934 3284.436768,820.106262 
	C2681.583740,820.104492 2078.730713,820.081665 1475.877808,820.087219 
	C1441.894165,820.087524 1407.910645,820.267517 1372.098755,820.028442 
	C1345.447021,820.028687 1318.795166,820.028992 1292.143433,820.029175 
	C1192.199951,820.029724 1092.256348,820.076660 992.313171,819.938416 
	C984.687195,819.927856 978.573486,821.360107 972.754456,827.082153 
	C946.463623,852.934631 919.682190,878.288025 893.090393,903.834656 
	C867.498169,928.420959 841.917908,953.019775 816.339478,977.620483 
	C790.966248,1002.023865 765.590210,1026.424316 740.237183,1050.848633 
	C719.891907,1070.448486 699.599915,1090.103638 679.247314,1109.695801 
	C645.087097,1142.579834 610.862244,1175.396484 576.730957,1208.310425 
	C545.876587,1238.064453 515.096802,1267.895874 484.310120,1297.720093 
	C451.366364,1329.633911 418.497314,1361.624878 385.500305,1393.483398 
	C375.259796,1403.370483 364.537476,1412.760254 354.346100,1422.696045 
	C343.907867,1432.872437 333.850220,1443.439331 322.512115,1454.796143 
M2233.757812,683.086548 
	C2233.752930,678.420227 2233.665283,673.752258 2233.759277,669.087891 
	C2234.019775,656.144592 2246.266602,643.704834 2258.476562,643.901855 
	C2271.440186,644.111084 2280.684570,653.920227 2280.800781,668.216614 
	C2280.965820,688.545654 2280.772217,708.877502 2280.740967,729.208191 
	C2280.732422,734.764832 2279.843262,739.772217 2274.293701,742.844543 
	C2272.881104,743.626587 2272.179443,745.693298 2271.053223,747.310120 
	C2279.192871,750.518616 2305.986816,751.112427 2318.658203,748.378723 
	C2317.884277,746.314819 2317.646973,743.173462 2316.361572,742.660889 
	C2308.084473,739.360535 2307.809326,732.493286 2307.805176,725.327332 
	C2307.792969,704.329895 2308.492188,683.299866 2307.541992,662.344666 
	C2306.672363,643.172241 2297.394287,630.784973 2281.044189,627.072571 
	C2272.506836,625.134033 2263.893311,625.099731 2255.685547,628.572388 
	C2247.817139,631.901550 2240.365234,636.000427 2234.664062,644.030090 
	C2233.740234,637.335938 2232.999023,631.965332 2232.186523,626.078552 
	C2229.019775,626.371155 2226.736816,626.374512 2224.544434,626.821838 
	C2216.439453,628.475525 2208.388916,630.403564 2200.265869,631.957031 
	C2197.112549,632.559998 2194.289062,633.230713 2193.626221,636.832214 
	C2192.910889,640.718201 2195.590576,642.083923 2198.648193,643.048218 
	C2204.670898,644.947693 2206.685059,649.316528 2206.653809,655.316650 
	C2206.525635,679.980164 2206.517822,704.644409 2206.517578,729.308350 
	C2206.517578,734.948059 2205.208984,739.671509 2199.881348,742.847229 
	C2198.459717,743.694580 2198.125977,746.367188 2196.777588,749.336609 
	C2213.501221,749.336609 2228.671387,749.336609 2243.809082,749.336609 
	C2245.613525,745.617981 2244.022705,743.252136 2240.945801,741.948547 
	C2234.586670,739.254578 2233.644043,734.120544 2233.712402,728.049683 
	C2233.874023,713.721741 2233.753906,699.390625 2233.757812,683.086548 
M2773.166016,623.647644 
	C2763.469482,625.152283 2753.772949,626.656860 2743.783203,628.206970 
	C2743.973877,631.385620 2744.105957,633.589050 2744.232666,635.700256 
	C2747.581787,636.553223 2750.428955,637.278381 2753.550537,638.073425 
	C2753.822266,640.587463 2754.236572,642.849060 2754.285400,645.118591 
	C2754.718506,665.319519 2754.874023,685.528992 2755.552979,705.721069 
	C2755.968262,718.070251 2749.230469,724.891296 2739.495361,730.942566 
	C2729.481445,737.166992 2710.171875,729.666931 2708.281982,717.592163 
	C2707.569580,713.039246 2706.601807,708.455872 2706.563721,703.879578 
	C2706.364746,679.915649 2706.447510,655.949463 2706.367676,631.984314 
	C2706.359131,629.432556 2705.930176,626.882202 2705.563965,622.888367 
	C2693.119141,624.717896 2681.367676,626.219666 2669.718262,628.294861 
	C2666.194824,628.922485 2665.447754,632.019958 2666.934082,635.127686 
	C2667.426025,635.505737 2667.655273,635.778320 2667.945801,635.887207 
	C2668.874512,636.235291 2669.807373,636.604126 2670.771240,636.820740 
	C2679.814697,638.853027 2679.876953,638.843872 2679.960449,647.688477 
	C2680.020020,654.011658 2679.606689,660.349792 2679.898438,666.658386 
	C2680.786865,685.876221 2677.994141,705.243591 2682.363281,724.324097 
	C2685.152100,736.503174 2691.064941,745.955750 2704.084229,748.755920 
	C2713.548096,750.791382 2723.345947,751.677673 2732.501465,747.932129 
	C2740.032959,744.851074 2747.000732,740.391846 2754.648682,736.314026 
	C2754.908447,737.687561 2755.303223,739.204346 2755.469482,740.745789 
	C2756.440674,749.752014 2756.742432,750.487366 2765.781006,749.888611 
	C2773.312500,749.389771 2780.721924,747.197083 2788.254150,746.522705 
	C2794.642090,745.950806 2794.931396,742.612305 2794.027100,737.950256 
	C2783.183105,734.250977 2781.784912,732.255493 2781.591064,720.632141 
	C2781.568848,719.301025 2781.587646,717.969299 2781.587402,716.637817 
	C2781.584717,699.994446 2781.567871,683.351135 2781.584229,666.707764 
	C2781.595947,654.725647 2781.512695,642.740784 2781.752686,630.762756 
	C2781.855469,625.652100 2779.839844,623.296082 2773.166016,623.647644 
M2894.362549,684.994934 
	C2894.399658,698.275940 2893.637207,711.536743 2896.947998,724.691345 
	C2899.918213,736.493530 2905.404785,745.903259 2917.908203,748.579956 
	C2933.238770,751.862061 2948.290283,751.496521 2961.366211,740.930115 
	C2963.988037,738.811523 2966.686523,736.787720 2970.234131,734.033691 
	C2970.234131,737.121704 2970.177490,738.777100 2970.243896,740.427612 
	C2970.599365,749.271912 2971.443848,750.507751 2980.136963,749.909851 
	C2987.700439,749.389648 2995.171143,747.603149 3002.705322,746.534851 
	C3005.452637,746.145325 3008.056396,745.944580 3008.703369,742.523804 
	C3009.432861,738.665283 3007.019775,736.877686 3003.969727,736.231934 
	C2999.179688,735.217773 2997.637939,731.822815 2996.910889,727.742554 
	C2996.333252,724.500549 2995.811035,721.195251 2995.793945,717.915405 
	C2995.680176,695.923279 2995.706055,673.930420 2995.690918,651.937805 
	C2995.684814,642.985413 2995.689941,634.033081 2995.689941,624.290039 
	C2982.403564,622.799255 2970.473877,626.662964 2958.350098,628.355835 
	C2958.776611,636.065430 2958.776611,636.065430 2968.667725,638.850098 
	C2968.915283,645.744812 2969.389648,652.985107 2969.392334,660.225525 
	C2969.398193,676.868286 2969.338379,693.514771 2968.981445,710.152710 
	C2968.775879,719.720276 2963.230713,725.852417 2955.105713,730.350647 
	C2946.492920,735.118835 2938.286865,734.380432 2930.762207,728.783203 
	C2922.877197,722.917908 2921.260986,714.101746 2921.315918,704.808167 
	C2921.453125,681.485901 2921.513184,658.163269 2921.614502,634.840759 
	C2921.623291,632.842712 2921.870117,630.833435 2921.725830,628.849731 
	C2921.470947,625.341614 2919.549316,623.099426 2915.918945,623.513916 
	C2906.383545,624.602661 2896.863281,625.860107 2887.369385,627.266785 
	C2882.674805,627.962402 2880.274902,630.562622 2882.015381,635.873169 
	C2885.674805,636.822205 2889.435791,637.797607 2894.382324,639.080505 
	C2894.382324,653.815125 2894.382324,668.406006 2894.362549,684.994934 
M3181.294434,748.888733 
	C3184.754639,747.704529 3188.273438,746.666016 3191.664307,745.308716 
	C3201.939697,741.195190 3209.672363,734.340332 3214.536621,724.236633 
	C3216.570312,720.012817 3216.568604,716.204834 3213.829590,710.613770 
	C3210.851807,713.609070 3208.447754,715.681396 3206.457275,718.094482 
	C3200.510986,725.303955 3193.121094,729.764893 3183.844482,731.441040 
	C3160.434082,735.670837 3138.853760,718.341614 3142.140381,686.787964 
	C3167.842773,686.787964 3193.681396,686.787964 3219.772461,686.787964 
	C3220.544434,683.673340 3221.764160,681.420288 3221.491211,679.365662 
	C3220.580811,672.513367 3219.729980,665.556213 3217.778076,658.958252 
	C3212.866943,642.360046 3202.739990,630.129822 3185.422607,625.840942 
	C3177.795898,623.952026 3169.538086,622.903564 3161.773438,623.642944 
	C3146.687012,625.079468 3133.807373,631.823242 3124.690430,644.389954 
	C3110.368652,664.130676 3108.242188,686.292358 3114.362305,708.995544 
	C3119.927246,729.638916 3132.906982,744.488220 3154.837646,748.728943 
	C3162.856689,750.279602 3171.367920,749.285950 3181.294434,748.888733 
M2077.308838,687.378174 
	C2078.162109,695.568604 2077.961670,704.044800 2080.089600,711.889465 
	C2084.422363,727.863342 2093.369873,740.754761 2109.050049,747.949890 
	C2118.355469,752.219788 2128.141357,753.169678 2138.227783,752.681396 
	C2156.184814,751.812012 2169.818115,743.528320 2179.684082,728.757874 
	C2182.746338,724.173706 2182.613037,719.510315 2178.683838,713.775818 
	C2164.730469,731.615784 2148.232666,741.637634 2125.997803,730.437134 
	C2109.858643,722.307251 2107.445068,706.957214 2105.971680,689.665100 
	C2133.073975,689.665100 2159.473633,689.665100 2185.649902,689.665100 
	C2189.351562,661.927246 2175.717285,632.117004 2146.626221,627.101868 
	C2128.337891,623.949097 2111.691162,627.112305 2097.429443,639.580139 
	C2083.528076,651.733215 2078.142578,667.679993 2077.308838,687.378174 
M3052.951172,722.931702 
	C3052.647217,703.658569 3052.203125,684.386230 3052.099365,665.112061 
	C3052.048096,655.597290 3059.539551,646.336365 3069.321045,642.891724 
	C3071.863281,646.333557 3073.998535,650.183533 3077.019287,653.123291 
	C3084.375977,660.281982 3099.197998,656.947754 3101.856201,647.275452 
	C3103.500488,641.292786 3104.049316,634.490601 3098.853271,629.449402 
	C3094.109131,624.846497 3088.369629,622.369751 3081.552002,624.199585 
	C3073.441895,626.376282 3065.833984,629.536560 3059.686523,635.554321 
	C3057.396484,637.795959 3054.902588,639.829468 3051.193115,643.117737 
	C3050.648438,635.729431 3050.226562,630.006042 3049.721924,623.159180 
	C3037.097900,625.791321 3025.236328,628.264404 3013.488525,630.713806 
	C3013.354004,637.852600 3013.354004,637.852600 3023.280273,644.507690 
	C3023.382080,644.817505 3023.571777,645.126770 3023.573730,645.437134 
	C3023.754150,673.393738 3023.930176,701.350281 3024.076172,729.307068 
	C3024.098389,733.524841 3022.863281,736.922302 3018.842529,739.316833 
	C3017.320312,740.223267 3016.905518,742.988342 3015.985840,744.906189 
	C3017.990479,745.730774 3019.979248,747.217834 3022.002441,747.266663 
	C3031.325439,747.491394 3040.659668,747.414001 3049.985840,747.235413 
	C3053.817139,747.162048 3057.638428,746.560791 3063.171875,746.038513 
	C3060.995361,742.707642 3060.248047,740.206360 3058.618896,739.312622 
	C3052.485352,735.948059 3051.821289,730.796448 3052.951172,722.931702 
M3264.944580,712.139404 
	C3263.304443,711.931274 3261.656738,711.496338 3260.025635,711.551880 
	C3249.066406,711.925049 3243.950684,717.252441 3243.783203,728.342285 
	C3243.758301,729.995300 3243.671387,731.665955 3243.857666,733.300598 
	C3244.871094,742.187378 3253.607666,748.576965 3262.382080,746.697510 
	C3268.865723,745.308777 3274.361816,742.090454 3276.136963,735.326965 
	C3278.663086,725.702820 3275.194580,718.450745 3264.944580,712.139404 
M2451.713867,729.735901 
	C2448.664551,725.164734 2446.561523,719.219910 2442.358154,716.323547 
	C2434.840820,711.143494 2426.143555,714.067749 2420.732422,721.786133 
	C2416.000244,728.535461 2417.289551,739.287231 2423.554199,745.321838 
	C2429.899658,751.434265 2437.630127,751.612183 2445.160889,745.992065 
	C2450.125488,742.287170 2451.822266,737.173645 2451.713867,729.735901 
z"/>
<path fill="#EBF3F3" opacity="1.000000" stroke="none" 
	d="
M3951.885498,821.955505 
	C3952.356201,825.927795 3952.826904,829.900146 3952.408691,834.801514 
	C3947.396973,836.617004 3943.297852,838.094604 3939.145264,838.265259 
	C3930.829834,838.606934 3922.484863,838.172241 3914.152100,838.164429 
	C3652.488037,837.919617 3390.824219,837.690613 3129.160156,837.430176 
	C3124.174805,837.425232 3119.190186,837.070007 3113.816650,836.247070 
	C3110.562256,835.123169 3107.696777,834.201355 3104.830566,834.199402 
	C2990.293701,834.120544 2875.756592,834.107849 2761.219727,834.210266 
	C2758.120117,834.213013 2755.021240,835.574097 2750.991699,836.373047 
	C2727.404297,836.411743 2704.747559,836.379150 2681.776367,835.864868 
	C2680.269531,835.770447 2679.077148,836.157898 2677.062500,836.625122 
	C2670.595947,836.936035 2664.951904,837.366577 2659.307617,837.368652 
	C2544.584717,837.411438 2429.861816,837.409668 2315.138916,837.383240 
	C2312.162598,837.382507 2309.186035,837.005493 2305.809082,836.185303 
	C2301.872314,835.090881 2298.336182,834.201111 2294.799805,834.199219 
	C2160.403320,834.127625 2026.006592,834.137085 1891.609985,834.140625 
	C1888.949463,834.140686 1886.238037,833.902039 1883.649048,834.348083 
	C1882.256104,834.588135 1881.073486,836.048218 1878.890869,837.134766 
	C1875.654175,837.370056 1873.322632,837.475769 1870.990967,837.480469 
	C1773.668579,837.675537 1676.346313,837.923096 1579.023804,838.024719 
	C1524.032227,838.082092 1469.040405,837.897583 1413.840576,837.545471 
	C1413.072388,837.451477 1412.512207,837.634094 1411.020996,837.898621 
	C1330.113403,837.766418 1250.136963,837.559631 1170.160645,837.312195 
	C1166.845093,837.301941 1163.530640,836.911743 1159.795898,836.097778 
	C1158.170044,835.060364 1156.966797,834.254150 1155.757080,834.244080 
	C1143.561157,834.142273 1131.362793,834.084656 1119.168579,834.259155 
	C1117.409058,834.284302 1115.668091,835.601868 1112.988525,836.395508 
	C1078.404785,836.328918 1044.750488,836.232544 1011.097351,835.999573 
	C1006.134094,835.965210 1001.175232,835.284485 996.036499,834.450562 
	C993.731018,831.568787 992.622131,832.827209 991.196716,835.489502 
	C985.748840,840.326050 980.817017,844.703308 976.070801,849.273376 
	C937.999023,885.932190 899.950684,922.615356 861.918945,959.315674 
	C836.043396,984.285461 810.216309,1009.305420 784.328491,1034.262451 
	C782.679199,1035.852417 780.691956,1037.092163 778.115601,1038.401489 
	C768.285828,1042.381836 762.910339,1050.492310 756.576904,1057.538818 
	C756.045776,1058.129883 756.322205,1059.446655 755.897522,1060.997314 
	C734.110962,1082.370972 712.700989,1103.226318 691.166321,1123.951904 
	C681.844727,1132.923218 672.265686,1141.627075 662.056641,1150.368164 
	C655.701538,1152.629395 651.021179,1155.809082 649.950806,1163.100708 
	C640.394043,1172.430176 631.173706,1181.197266 621.229248,1189.956787 
	C618.959778,1190.469849 617.006470,1190.562256 615.936401,1191.581787 
	C609.685974,1197.536865 603.564575,1203.634888 597.606323,1209.881836 
	C596.627258,1210.908325 596.672119,1212.911377 595.913574,1215.035400 
	C582.400513,1228.306152 569.208740,1240.995483 556.036987,1253.705566 
	C535.902649,1273.133789 515.871521,1292.670044 495.630157,1311.986206 
	C476.155579,1330.570679 456.316833,1348.775024 436.928406,1367.447876 
	C423.104980,1380.760986 409.811676,1394.623047 396.181091,1408.138550 
	C390.555084,1413.716919 384.727844,1419.097778 378.882507,1424.448730 
	C365.660553,1436.552612 352.578979,1448.823364 339.019043,1460.538818 
	C332.382965,1466.272217 331.957031,1465.779297 327.443115,1456.532471 
	C335.586853,1448.558594 343.358307,1441.322632 350.974640,1433.927124 
	C357.905334,1427.197510 364.545959,1420.165894 371.563354,1413.530518 
	C374.413330,1410.835693 377.887543,1408.787964 381.138763,1406.533813 
	C384.350983,1404.307007 388.227783,1402.724854 390.776367,1399.918457 
	C396.506775,1393.608276 401.082611,1386.208252 407.056000,1380.169312 
	C418.034058,1369.070557 429.759552,1358.714722 441.003296,1347.872925 
	C444.564148,1344.439453 447.302917,1340.146484 450.899323,1336.757935 
	C466.612579,1321.953491 482.597656,1307.437378 498.299835,1292.621338 
	C511.580719,1280.089966 523.403625,1266.015137 538.855347,1255.797607 
	C543.209534,1252.918457 546.586975,1248.493408 550.203430,1244.584106 
	C555.156616,1239.230225 559.560425,1233.326782 564.808411,1228.293701 
	C590.702209,1203.460571 616.882324,1178.926025 642.781738,1154.098755 
	C654.322937,1143.035156 665.429688,1131.518677 676.764038,1120.238525 
	C678.645874,1118.365356 680.389648,1115.856323 682.701050,1114.998657 
	C692.324585,1111.427856 697.579407,1102.957275 704.366089,1096.293335 
	C723.080200,1077.918213 741.406189,1059.148315 760.088440,1040.740356 
	C766.907715,1034.021118 774.370300,1027.958984 781.381836,1021.427917 
	C783.293213,1019.647461 784.392395,1017.005920 786.271790,1015.178528 
	C800.338989,1001.500244 814.488647,987.906372 828.665588,974.341614 
	C831.054504,972.055847 833.703491,970.042297 836.225769,967.895325 
	C842.262817,962.756531 849.409851,958.458618 854.091492,952.290161 
	C862.990540,940.564819 873.556335,930.757446 883.926208,920.456360 
	C910.602051,893.957031 938.233765,868.522034 965.948547,843.158752 
	C971.549683,838.032715 977.730652,833.405151 984.153137,829.354675 
	C989.260559,826.133545 995.194763,825.120300 1001.433228,826.686462 
	C1004.925903,827.563293 1008.660645,828.011658 1012.250488,827.851196 
	C1019.186768,827.541260 1026.091553,826.183655 1033.020142,826.093018 
	C1133.879517,824.774048 1234.774170,828.411133 1335.611328,823.948547 
	C1347.530762,823.421021 1359.435669,822.549866 1371.340820,821.741577 
	C1372.229980,821.681213 1373.066162,820.841431 1373.927002,820.363892 
	C1407.910645,820.267517 1441.894165,820.087524 1475.877808,820.087219 
	C2078.730713,820.081665 2681.583740,820.104492 3284.436768,820.106262 
	C3505.716064,820.106934 3726.995117,820.069031 3949.342285,820.590698 
	C3950.758301,821.664307 3951.250000,821.938599 3951.885498,821.955505 
z"/>
<path fill="#7D7076" opacity="1.000000" stroke="none" 
	d="
M621.953369,1189.964355 
	C631.173706,1181.197266 640.394043,1172.430176 650.615479,1162.938965 
	C655.345581,1158.294067 659.074585,1154.373169 662.803589,1150.452393 
	C672.265686,1141.627075 681.844727,1132.923218 691.166321,1123.951904 
	C712.700989,1103.226318 734.110962,1082.370972 756.568115,1060.854248 
	C764.663818,1052.924927 771.762878,1045.709839 778.861938,1038.494751 
	C780.691956,1037.092163 782.679199,1035.852417 784.328491,1034.262451 
	C810.216309,1009.305420 836.043396,984.285461 861.918945,959.315674 
	C899.950684,922.615356 937.999023,885.932190 976.070801,849.273376 
	C980.817017,844.703308 985.748840,840.326050 991.931885,835.718140 
	C994.250916,835.352234 995.232666,835.127563 996.214355,834.902832 
	C1001.175232,835.284485 1006.134094,835.965210 1011.097351,835.999573 
	C1044.750488,836.232544 1078.404785,836.328918 1113.703491,836.793823 
	C1130.304199,836.978271 1145.259888,836.838379 1160.215698,836.698486 
	C1163.530640,836.911743 1166.845093,837.301941 1170.160645,837.312195 
	C1250.136963,837.559631 1330.113403,837.766418 1411.544922,838.016113 
	C1413.349609,837.975159 1413.699219,837.898621 1414.048706,837.822083 
	C1469.040405,837.897583 1524.032227,838.082092 1579.023804,838.024719 
	C1676.346313,837.923096 1773.668579,837.675537 1870.990967,837.480469 
	C1873.322632,837.475769 1875.654175,837.370056 1879.802124,837.438660 
	C1883.280640,837.649048 1884.942749,837.805298 1886.604858,837.805298 
	C2023.519775,837.801636 2160.434570,837.791870 2297.349609,837.730530 
	C2300.303223,837.729248 2303.256348,837.126221 2306.209717,836.803894 
	C2309.186035,837.005493 2312.162598,837.382507 2315.138916,837.383240 
	C2429.861816,837.409668 2544.584717,837.411438 2659.307617,837.368652 
	C2664.951904,837.366577 2670.595947,836.936035 2677.427490,836.949341 
	C2679.773438,836.911316 2680.931885,836.629028 2682.090576,836.346680 
	C2704.747559,836.379150 2727.404297,836.411743 2751.694580,836.794922 
	C2755.642578,837.293518 2757.957520,837.569275 2760.272217,837.571045 
	C2875.298584,837.660217 2990.325195,837.732727 3105.351562,837.755432 
	C3108.302734,837.756042 3111.253906,837.183411 3114.205078,836.878174 
	C3119.190186,837.070007 3124.174805,837.425232 3129.160156,837.430176 
	C3390.824219,837.690613 3652.488037,837.919617 3914.152100,838.164429 
	C3922.484863,838.172241 3930.829834,838.606934 3939.145264,838.265259 
	C3943.297852,838.094604 3947.396973,836.617004 3952.308594,835.551392 
	C3954.002197,839.128784 3951.437988,840.130554 3948.673584,840.433044 
	C3945.374756,840.793884 3942.021484,840.724060 3938.691650,840.724915 
	C3785.048340,840.762939 3631.405029,840.694031 3477.761719,840.847107 
	C3370.114502,840.954346 3262.468018,841.433716 3154.820801,841.619202 
	C2994.231689,841.895813 2833.642334,842.140869 2673.053223,842.231262 
	C2610.737549,842.266357 2548.422363,841.788879 2486.106445,841.648621 
	C2444.474121,841.554932 2402.841309,841.608704 2361.208740,841.658386 
	C2209.904297,841.838989 2058.599609,842.166321 1907.295044,842.193665 
	C1826.979858,842.208191 1746.664673,841.680786 1666.349365,841.467712 
	C1569.700928,841.211304 1473.052246,840.869324 1376.403687,840.866089 
	C1301.425781,840.863586 1226.447754,841.290955 1151.469971,841.590881 
	C1102.819458,841.785461 1054.169067,842.260193 1005.519226,842.181763 
	C997.794678,842.169312 992.549377,844.790955 987.187500,850.066467 
	C968.947388,868.013245 950.135620,885.377441 931.673889,903.101379 
	C921.581421,912.790649 911.875305,922.882263 901.781799,932.570312 
	C882.345764,951.225769 862.756042,969.721130 843.236450,988.289490 
	C840.823242,990.585144 838.437012,992.909546 836.057251,995.240051 
	C813.016174,1017.804077 790.089783,1040.486572 766.912537,1062.909912 
	C739.209412,1089.711792 711.284546,1116.284546 683.470459,1142.971802 
	C658.560486,1166.872803 633.711487,1190.837402 608.760071,1214.694946 
	C585.464966,1236.968750 562.070740,1259.138672 538.720276,1281.354614 
	C538.478943,1281.584229 538.239807,1281.816406 538.000427,1282.048340 
	C518.899780,1300.545044 499.830048,1319.073853 480.692078,1337.531982 
	C444.524933,1372.414185 408.319031,1407.256348 372.128174,1442.113892 
	C363.988220,1449.953979 355.635162,1457.587280 347.774597,1465.697998 
	C342.479004,1471.161987 336.754150,1472.986084 329.863983,1469.765503 
	C323.555634,1466.817017 322.135193,1461.178223 323.303986,1454.891602 
	C325.065002,1455.725098 326.034119,1456.463013 327.003265,1457.200928 
	C331.957031,1465.779297 332.382965,1466.272217 339.019043,1460.538818 
	C352.578979,1448.823364 365.660553,1436.552612 378.882507,1424.448730 
	C384.727844,1419.097778 390.555084,1413.716919 396.181091,1408.138550 
	C409.811676,1394.623047 423.104980,1380.760986 436.928406,1367.447876 
	C456.316833,1348.775024 476.155579,1330.570679 495.630157,1311.986206 
	C515.871521,1292.670044 535.902649,1273.133789 556.036987,1253.705566 
	C569.208740,1240.995483 582.400513,1228.306152 596.586243,1214.893677 
	C605.710510,1206.108032 613.831970,1198.036133 621.953369,1189.964355 
z"/>
<path fill="#959696" opacity="1.000000" stroke="none" 
	d="
M1618.682617,618.056702 
	C1618.635986,611.940796 1618.589233,605.824829 1618.918213,598.615601 
	C1619.546875,596.914062 1619.382812,596.433167 1618.801514,596.079590 
	C1618.514771,591.987061 1618.227905,587.894592 1618.459961,582.522095 
	C1628.260254,569.119873 1632.296753,567.958130 1646.515625,573.327576 
	C1647.126587,573.558289 1647.714355,573.849915 1648.172363,575.033264 
	C1648.712646,590.134399 1649.685913,604.309143 1649.986694,618.498230 
	C1650.253784,631.088867 1649.767090,643.695190 1649.629639,656.294739 
	C1649.595337,659.444458 1649.624512,662.594849 1649.624512,666.305786 
	C1662.522217,665.311523 1674.117920,666.118713 1685.074585,661.761169 
	C1693.128784,658.557861 1698.927856,653.252747 1701.916504,644.738892 
	C1709.030151,624.473206 1707.225342,605.205811 1697.325684,586.543762 
	C1702.301880,585.488403 1707.072021,585.619934 1710.296753,583.452454 
	C1714.377808,580.709473 1717.989624,581.104187 1722.077148,581.882690 
	C1722.077148,581.882690 1722.003052,581.989807 1722.268188,582.407837 
	C1723.100952,583.176636 1723.668701,583.527405 1724.236328,583.878174 
	C1738.602295,597.355957 1739.969238,614.659851 1737.163696,632.383789 
	C1733.772583,653.806458 1719.561401,666.291382 1698.118164,670.273132 
	C1686.236938,672.479309 1674.404541,673.096741 1662.422363,673.090515 
	C1658.523438,673.088501 1654.624268,673.784668 1649.783203,674.252563 
	C1649.783203,682.814880 1649.711426,690.693848 1649.801758,698.571106 
	C1649.908569,707.890930 1649.838135,717.229248 1650.423950,726.523010 
	C1651.114502,737.476807 1654.851685,741.063721 1665.702881,742.002441 
	C1669.436279,742.325378 1672.894409,742.646973 1674.984375,747.854980 
	C1666.958008,750.851685 1659.002441,749.085266 1651.327271,749.444824 
	C1643.010498,749.834412 1634.666016,749.868713 1626.338867,749.733032 
	C1618.497803,749.605286 1610.534058,750.580750 1602.720337,748.655518 
	C1602.842896,744.347900 1604.250244,742.097534 1607.943359,742.005798 
	C1614.318970,741.847290 1616.612549,737.296875 1617.514404,732.257751 
	C1618.675903,725.767822 1619.388184,719.117371 1619.459595,712.527039 
	C1619.694702,690.867798 1619.698975,669.203064 1619.483276,647.543518 
	C1619.397949,638.974121 1618.501099,630.412781 1618.428223,620.756470 
	C1619.363403,619.081848 1619.296753,618.545654 1618.682617,618.056702 
z"/>
<path fill="#D8E2E2" opacity="1.000000" stroke="none" 
	d="
M327.443115,1456.532471 
	C326.034119,1456.463013 325.065002,1455.725098 323.860901,1454.411133 
	C333.850220,1443.439331 343.907867,1432.872437 354.346100,1422.696045 
	C364.537476,1412.760254 375.259796,1403.370483 385.500305,1393.483398 
	C418.497314,1361.624878 451.366364,1329.633911 484.310120,1297.720093 
	C515.096802,1267.895874 545.876587,1238.064453 576.730957,1208.310425 
	C610.862244,1175.396484 645.087097,1142.579834 679.247314,1109.695801 
	C699.599915,1090.103638 719.891907,1070.448486 740.237183,1050.848633 
	C765.590210,1026.424316 790.966248,1002.023865 816.339478,977.620483 
	C841.917908,953.019775 867.498169,928.420959 893.090393,903.834656 
	C919.682190,878.288025 946.463623,852.934631 972.754456,827.082153 
	C978.573486,821.360107 984.687195,819.927856 992.313171,819.938416 
	C1092.256348,820.076660 1192.199951,820.029724 1292.143433,820.029175 
	C1318.795166,820.028992 1345.447021,820.028687 1373.012939,820.196167 
	C1373.066162,820.841431 1372.229980,821.681213 1371.340820,821.741577 
	C1359.435669,822.549866 1347.530762,823.421021 1335.611328,823.948547 
	C1234.774170,828.411133 1133.879517,824.774048 1033.020142,826.093018 
	C1026.091553,826.183655 1019.186768,827.541260 1012.250488,827.851196 
	C1008.660645,828.011658 1004.925903,827.563293 1001.433228,826.686462 
	C995.194763,825.120300 989.260559,826.133545 984.153137,829.354675 
	C977.730652,833.405151 971.549683,838.032715 965.948547,843.158752 
	C938.233765,868.522034 910.602051,893.957031 883.926208,920.456360 
	C873.556335,930.757446 862.990540,940.564819 854.091492,952.290161 
	C849.409851,958.458618 842.262817,962.756531 836.225769,967.895325 
	C833.703491,970.042297 831.054504,972.055847 828.665588,974.341614 
	C814.488647,987.906372 800.338989,1001.500244 786.271790,1015.178528 
	C784.392395,1017.005920 783.293213,1019.647461 781.381836,1021.427917 
	C774.370300,1027.958984 766.907715,1034.021118 760.088440,1040.740356 
	C741.406189,1059.148315 723.080200,1077.918213 704.366089,1096.293335 
	C697.579407,1102.957275 692.324585,1111.427856 682.701050,1114.998657 
	C680.389648,1115.856323 678.645874,1118.365356 676.764038,1120.238525 
	C665.429688,1131.518677 654.322937,1143.035156 642.781738,1154.098755 
	C616.882324,1178.926025 590.702209,1203.460571 564.808411,1228.293701 
	C559.560425,1233.326782 555.156616,1239.230225 550.203430,1244.584106 
	C546.586975,1248.493408 543.209534,1252.918457 538.855347,1255.797607 
	C523.403625,1266.015137 511.580719,1280.089966 498.299835,1292.621338 
	C482.597656,1307.437378 466.612579,1321.953491 450.899323,1336.757935 
	C447.302917,1340.146484 444.564148,1344.439453 441.003296,1347.872925 
	C429.759552,1358.714722 418.034058,1369.070557 407.056000,1380.169312 
	C401.082611,1386.208252 396.506775,1393.608276 390.776367,1399.918457 
	C388.227783,1402.724854 384.350983,1404.307007 381.138763,1406.533813 
	C377.887543,1408.787964 374.413330,1410.835693 371.563354,1413.530518 
	C364.545959,1420.165894 357.905334,1427.197510 350.974640,1433.927124 
	C343.358307,1441.322632 335.586853,1448.558594 327.443115,1456.532471 
z"/>
<path fill="#939394" opacity="1.000000" stroke="none" 
	d="
M2233.752930,684.073669 
	C2233.753906,699.390625 2233.874023,713.721741 2233.712402,728.049683 
	C2233.644043,734.120544 2234.586670,739.254578 2240.945801,741.948547 
	C2244.022705,743.252136 2245.613525,745.617981 2243.809082,749.336609 
	C2228.671387,749.336609 2213.501221,749.336609 2196.777588,749.336609 
	C2198.125977,746.367188 2198.459717,743.694580 2199.881348,742.847229 
	C2205.208984,739.671509 2206.517578,734.948059 2206.517578,729.308350 
	C2206.517822,704.644409 2206.525635,679.980164 2206.653809,655.316650 
	C2206.685059,649.316528 2204.670898,644.947693 2198.648193,643.048218 
	C2195.590576,642.083923 2192.910889,640.718201 2193.626221,636.832214 
	C2194.289062,633.230713 2197.112549,632.559998 2200.265869,631.957031 
	C2208.388916,630.403564 2216.439453,628.475525 2224.544434,626.821838 
	C2226.736816,626.374512 2229.019775,626.371155 2232.186523,626.078552 
	C2232.999023,631.965332 2233.740234,637.335938 2234.664062,644.030090 
	C2240.365234,636.000427 2247.817139,631.901550 2255.685547,628.572388 
	C2263.893311,625.099731 2272.506836,625.134033 2281.044189,627.072571 
	C2297.394287,630.784973 2306.672363,643.172241 2307.541992,662.344666 
	C2308.492188,683.299866 2307.792969,704.329895 2307.805176,725.327332 
	C2307.809326,732.493286 2308.084473,739.360535 2316.361572,742.660889 
	C2317.646973,743.173462 2317.884277,746.314819 2318.658203,748.378723 
	C2305.986816,751.112427 2279.192871,750.518616 2271.053223,747.310120 
	C2272.179443,745.693298 2272.881104,743.626587 2274.293701,742.844543 
	C2279.843262,739.772217 2280.732422,734.764832 2280.740967,729.208191 
	C2280.772217,708.877502 2280.965820,688.545654 2280.800781,668.216614 
	C2280.684570,653.920227 2271.440186,644.111084 2258.476562,643.901855 
	C2246.266602,643.704834 2234.019775,656.144592 2233.759277,669.087891 
	C2233.665283,673.752258 2233.752930,678.420227 2233.752930,684.073669 
z"/>
<path fill="#949596" opacity="1.000000" stroke="none" 
	d="
M2773.958984,623.619141 
	C2779.839844,623.296082 2781.855469,625.652100 2781.752686,630.762756 
	C2781.512695,642.740784 2781.595947,654.725647 2781.584229,666.707764 
	C2781.567871,683.351135 2781.584717,699.994446 2781.587402,716.637817 
	C2781.587646,717.969299 2781.568848,719.301025 2781.591064,720.632141 
	C2781.784912,732.255493 2783.183105,734.250977 2794.027100,737.950256 
	C2794.931396,742.612305 2794.642090,745.950806 2788.254150,746.522705 
	C2780.721924,747.197083 2773.312500,749.389771 2765.781006,749.888611 
	C2756.742432,750.487366 2756.440674,749.752014 2755.469482,740.745789 
	C2755.303223,739.204346 2754.908447,737.687561 2754.648682,736.314026 
	C2747.000732,740.391846 2740.032959,744.851074 2732.501465,747.932129 
	C2723.345947,751.677673 2713.548096,750.791382 2704.084229,748.755920 
	C2691.064941,745.955750 2685.152100,736.503174 2682.363281,724.324097 
	C2677.994141,705.243591 2680.786865,685.876221 2679.898438,666.658386 
	C2679.606689,660.349792 2680.020020,654.011658 2679.960449,647.688477 
	C2679.876953,638.843872 2679.814697,638.853027 2670.771240,636.820740 
	C2669.807373,636.604126 2668.874512,636.235291 2667.945801,635.887207 
	C2667.655273,635.778320 2667.426025,635.505737 2666.934082,635.127686 
	C2665.447754,632.019958 2666.194824,628.922485 2669.718262,628.294861 
	C2681.367676,626.219666 2693.119141,624.717896 2705.563965,622.888367 
	C2705.930176,626.882202 2706.359131,629.432556 2706.367676,631.984314 
	C2706.447510,655.949463 2706.364746,679.915649 2706.563721,703.879578 
	C2706.601807,708.455872 2707.569580,713.039246 2708.281982,717.592163 
	C2710.171875,729.666931 2729.481445,737.166992 2739.495361,730.942566 
	C2749.230469,724.891296 2755.968262,718.070251 2755.552979,705.721069 
	C2754.874023,685.528992 2754.718506,665.319519 2754.285400,645.118591 
	C2754.236572,642.849060 2753.822266,640.587463 2753.550537,638.073425 
	C2750.428955,637.278381 2747.581787,636.553223 2744.232666,635.700256 
	C2744.105957,633.589050 2743.973877,631.385620 2743.783203,628.206970 
	C2753.772949,626.656860 2763.469482,625.152283 2773.958984,623.619141 
z"/>
<path fill="#939394" opacity="1.000000" stroke="none" 
	d="
M2894.372559,683.995972 
	C2894.382324,668.406006 2894.382324,653.815125 2894.382324,639.080505 
	C2889.435791,637.797607 2885.674805,636.822205 2882.015381,635.873169 
	C2880.274902,630.562622 2882.674805,627.962402 2887.369385,627.266785 
	C2896.863281,625.860107 2906.383545,624.602661 2915.918945,623.513916 
	C2919.549316,623.099426 2921.470947,625.341614 2921.725830,628.849731 
	C2921.870117,630.833435 2921.623291,632.842712 2921.614502,634.840759 
	C2921.513184,658.163269 2921.453125,681.485901 2921.315918,704.808167 
	C2921.260986,714.101746 2922.877197,722.917908 2930.762207,728.783203 
	C2938.286865,734.380432 2946.492920,735.118835 2955.105713,730.350647 
	C2963.230713,725.852417 2968.775879,719.720276 2968.981445,710.152710 
	C2969.338379,693.514771 2969.398193,676.868286 2969.392334,660.225525 
	C2969.389648,652.985107 2968.915283,645.744812 2968.667725,638.850098 
	C2958.776611,636.065430 2958.776611,636.065430 2958.350098,628.355835 
	C2970.473877,626.662964 2982.403564,622.799255 2995.689941,624.290039 
	C2995.689941,634.033081 2995.684814,642.985413 2995.690918,651.937805 
	C2995.706055,673.930420 2995.680176,695.923279 2995.793945,717.915405 
	C2995.811035,721.195251 2996.333252,724.500549 2996.910889,727.742554 
	C2997.637939,731.822815 2999.179688,735.217773 3003.969727,736.231934 
	C3007.019775,736.877686 3009.432861,738.665283 3008.703369,742.523804 
	C3008.056396,745.944580 3005.452637,746.145325 3002.705322,746.534851 
	C2995.171143,747.603149 2987.700439,749.389648 2980.136963,749.909851 
	C2971.443848,750.507751 2970.599365,749.271912 2970.243896,740.427612 
	C2970.177490,738.777100 2970.234131,737.121704 2970.234131,734.033691 
	C2966.686523,736.787720 2963.988037,738.811523 2961.366211,740.930115 
	C2948.290283,751.496521 2933.238770,751.862061 2917.908203,748.579956 
	C2905.404785,745.903259 2899.918213,736.493530 2896.947998,724.691345 
	C2893.637207,711.536743 2894.399658,698.275940 2894.372559,683.995972 
z"/>
<path fill="#929392" opacity="1.000000" stroke="none" 
	d="
M3180.474609,749.170898 
	C3171.367920,749.285950 3162.856689,750.279602 3154.837646,748.728943 
	C3132.906982,744.488220 3119.927246,729.638916 3114.362305,708.995544 
	C3108.242188,686.292358 3110.368652,664.130676 3124.690430,644.389954 
	C3133.807373,631.823242 3146.687012,625.079468 3161.773438,623.642944 
	C3169.538086,622.903564 3177.795898,623.952026 3185.422607,625.840942 
	C3202.739990,630.129822 3212.866943,642.360046 3217.778076,658.958252 
	C3219.729980,665.556213 3220.580811,672.513367 3221.491211,679.365662 
	C3221.764160,681.420288 3220.544434,683.673340 3219.772461,686.787964 
	C3193.681396,686.787964 3167.842773,686.787964 3142.140381,686.787964 
	C3138.853760,718.341614 3160.434082,735.670837 3183.844482,731.441040 
	C3193.121094,729.764893 3200.510986,725.303955 3206.457275,718.094482 
	C3208.447754,715.681396 3210.851807,713.609070 3213.829590,710.613770 
	C3216.568604,716.204834 3216.570312,720.012817 3214.536621,724.236633 
	C3209.672363,734.340332 3201.939697,741.195190 3191.664307,745.308716 
	C3188.273438,746.666016 3184.754639,747.704529 3180.474609,749.170898 
M3179.598877,637.157898 
	C3170.970215,628.435547 3159.830566,631.880127 3152.847412,640.447693 
	C3146.908203,647.734192 3143.216309,656.098633 3141.791260,665.387207 
	C3141.181396,669.361755 3140.978760,673.398804 3140.552490,677.809509 
	C3159.045654,677.809509 3176.145996,677.809509 3193.912842,677.809509 
	C3194.697510,662.372314 3190.343018,649.419739 3179.598877,637.157898 
z"/>
<path fill="#929392" opacity="1.000000" stroke="none" 
	d="
M2077.289062,686.476501 
	C2078.142578,667.679993 2083.528076,651.733215 2097.429443,639.580139 
	C2111.691162,627.112305 2128.337891,623.949097 2146.626221,627.101868 
	C2175.717285,632.117004 2189.351562,661.927246 2185.649902,689.665100 
	C2159.473633,689.665100 2133.073975,689.665100 2105.971680,689.665100 
	C2107.445068,706.957214 2109.858643,722.307251 2125.997803,730.437134 
	C2148.232666,741.637634 2164.730469,731.615784 2178.683838,713.775818 
	C2182.613037,719.510315 2182.746338,724.173706 2179.684082,728.757874 
	C2169.818115,743.528320 2156.184814,751.812012 2138.227783,752.681396 
	C2128.141357,753.169678 2118.355469,752.219788 2109.050049,747.949890 
	C2093.369873,740.754761 2084.422363,727.863342 2080.089600,711.889465 
	C2077.961670,704.044800 2078.162109,695.568604 2077.289062,686.476501 
M2142.850342,681.497192 
	C2148.352539,681.497192 2153.854980,681.497192 2159.991699,681.497192 
	C2160.007324,666.746277 2156.689453,654.573425 2148.937500,643.752136 
	C2147.429932,641.647705 2145.275635,639.890564 2143.134033,638.377502 
	C2135.903320,633.268555 2131.037109,633.097778 2124.188232,638.564697 
	C2110.803223,649.249023 2105.969727,663.606506 2106.625244,681.494202 
	C2118.496094,681.494202 2129.692383,681.494202 2142.850342,681.497192 
z"/>
<path fill="#929392" opacity="1.000000" stroke="none" 
	d="
M1939.320312,639.943298 
	C1939.320312,639.943298 1940.040771,640.526001 1940.212402,641.619507 
	C1941.618896,643.796082 1942.853638,644.879028 1944.088379,645.962036 
	C1953.872559,658.557800 1956.697388,672.925293 1955.512085,689.450500 
	C1928.788086,689.450500 1902.645874,689.450500 1876.690918,689.450500 
	C1872.122803,715.872009 1892.764771,741.049194 1922.110840,733.588684 
	C1930.172119,731.539307 1936.176147,726.392639 1941.687744,720.510010 
	C1943.616089,718.451965 1945.593384,716.439636 1948.309204,713.614990 
	C1951.378906,720.193726 1950.745850,724.991760 1947.741943,729.762207 
	C1940.441650,741.356018 1929.903076,748.704224 1916.715332,751.370544 
	C1898.039429,755.146362 1880.050415,753.043884 1865.471191,739.517700 
	C1853.326538,728.250305 1847.131958,713.635315 1846.166016,697.085938 
	C1845.324951,682.679016 1846.782227,668.537842 1853.961670,655.631348 
	C1856.531860,651.011047 1859.788086,646.772339 1863.804199,642.039124 
	C1865.406738,641.426025 1865.806396,641.008728 1866.076172,640.466797 
	C1866.076172,640.466797 1866.099487,640.105225 1866.610840,639.892090 
	C1867.531860,639.339172 1867.812256,638.914246 1867.963501,638.404053 
	C1867.963501,638.404053 1868.272705,637.817383 1869.502686,637.802307 
	C1874.193481,638.026672 1877.654297,638.266113 1880.300293,638.449219 
	C1883.159546,642.898010 1877.388794,647.392883 1882.407959,650.890015 
	C1877.141602,660.400635 1874.590576,669.764587 1875.718018,679.970581 
	C1883.949585,682.266174 1921.436523,682.124390 1928.408203,679.760681 
	C1929.859009,664.109924 1922.660645,645.847961 1910.596558,636.206421 
	C1918.843262,636.095764 1926.283447,636.061584 1933.723755,636.027466 
	C1934.786255,636.724121 1935.848877,637.420776 1937.638428,638.705444 
	C1938.616821,639.608276 1938.935181,639.824890 1939.320312,639.943298 
z"/>
<path fill="#929392" opacity="1.000000" stroke="none" 
	d="
M2389.393311,633.891968 
	C2381.857178,634.329956 2374.321045,634.767883 2366.452881,635.225159 
	C2366.224854,637.512634 2365.871826,639.449402 2365.863281,641.387756 
	C2365.761963,664.021484 2365.558838,686.656921 2365.771240,709.288208 
	C2365.816895,714.138245 2366.779785,719.205444 2368.437256,723.766724 
	C2371.714111,732.785461 2379.887939,735.588562 2388.433838,730.816345 
	C2392.302979,728.656067 2395.624756,725.515747 2399.629150,722.491882 
	C2403.388916,727.622314 2401.541260,732.017151 2398.923096,735.667297 
	C2392.852051,744.131531 2384.671631,749.466431 2373.941895,750.012085 
	C2370.622070,750.180908 2367.282227,750.137268 2363.958008,750.014832 
	C2352.250977,749.583923 2344.192627,742.579102 2341.409668,731.303345 
	C2339.163574,722.202026 2338.417969,713.081055 2338.545898,703.733154 
	C2338.805420,684.762939 2338.628662,665.786804 2338.631592,646.813110 
	C2338.632324,643.194824 2338.631592,639.576538 2338.631592,635.244202 
	C2334.901367,634.842041 2331.913330,634.894592 2329.183105,634.081421 
	C2327.608643,633.612366 2326.450684,631.744568 2325.105225,630.506470 
	C2326.616943,629.102173 2327.910156,627.062256 2329.693848,626.450073 
	C2332.073730,625.633118 2334.834473,625.925293 2338.606445,625.657837 
	C2338.606445,616.447266 2338.504150,607.544983 2338.634277,598.646057 
	C2338.774902,589.023254 2338.905029,589.087341 2348.734863,587.961792 
	C2353.308105,587.438171 2357.833008,586.490051 2363.445312,585.557251 
	C2368.178711,598.407898 2363.713623,611.475037 2365.916748,625.735291 
	C2365.785400,631.728027 2367.201660,634.333313 2371.996094,634.167480 
	C2377.791260,633.967041 2383.593994,633.974487 2389.393311,633.891968 
z"/>
<path fill="#979798" opacity="1.000000" stroke="none" 
	d="
M2575.890381,611.966553 
	C2576.051270,623.838623 2576.212158,635.710693 2576.451660,649.203308 
	C2576.963867,653.704102 2577.397461,656.584412 2577.831055,659.464722 
	C2577.831055,659.464722 2577.677734,659.888123 2577.133545,660.248047 
	C2576.231445,661.149109 2576.080322,661.742981 2576.135254,662.389587 
	C2576.204346,682.132629 2576.273438,701.875610 2576.252930,723.122803 
	C2576.565918,725.720581 2576.967773,726.814209 2577.369873,727.907837 
	C2578.962891,734.664795 2582.720459,738.850708 2590.056152,739.624817 
	C2593.575928,739.996277 2593.524902,740.478882 2595.565918,744.791382 
	C2584.467041,748.411133 2540.479248,748.234619 2531.025146,744.028748 
	C2532.838135,742.329773 2534.071533,740.345520 2535.805908,739.693176 
	C2542.939941,737.009949 2544.833252,731.437378 2544.839600,724.641907 
	C2544.848389,715.018982 2544.810303,705.395996 2545.760498,694.836426 
	C2551.833496,692.171021 2549.881104,687.804932 2549.896973,684.526489 
	C2550.043701,653.883179 2549.871094,623.237915 2550.091797,592.595459 
	C2550.134766,586.684570 2551.351807,580.759827 2552.338623,574.893921 
	C2552.579590,573.461670 2553.960938,571.177063 2554.968506,571.093201 
	C2560.179199,570.659363 2565.689209,569.814087 2570.610596,571.045959 
	C2575.395508,572.243713 2573.757080,577.636414 2574.121094,581.470032 
	C2574.642334,586.965698 2575.249268,592.453186 2575.819580,597.944092 
	C2575.939453,600.109497 2576.059326,602.274841 2575.568359,605.624512 
	C2575.268311,608.528076 2575.579346,610.247314 2575.890381,611.966553 
z"/>
<path fill="#939394" opacity="1.000000" stroke="none" 
	d="
M2815.295410,722.079651 
	C2815.043213,717.456848 2814.593506,712.834900 2814.572510,708.211060 
	C2814.466064,684.588196 2814.470459,660.964844 2814.298340,635.735474 
	C2812.798340,632.286499 2811.436035,630.443726 2810.135986,628.684998 
	C2811.369629,627.783997 2812.635498,626.859375 2813.901611,625.934814 
	C2813.901611,614.333923 2813.901611,602.733032 2813.901611,590.020508 
	C2822.472168,588.465454 2830.404297,587.026245 2839.381592,585.397400 
	C2844.558105,598.230530 2841.064941,611.227905 2842.118652,625.557007 
	C2841.782715,631.560303 2843.043213,634.336609 2847.965332,634.183289 
	C2853.833984,634.000488 2859.708496,634.004211 2865.580322,633.927124 
	C2858.031006,634.336975 2850.481445,634.746826 2842.761719,635.165894 
	C2842.357178,637.390076 2841.697998,639.329834 2841.698242,641.269653 
	C2841.699463,665.524475 2841.596680,689.782654 2842.014404,714.031555 
	C2842.113770,719.789551 2842.793945,726.042603 2848.253174,730.001038 
	C2854.919922,734.835144 2861.665527,734.209167 2868.900879,728.124268 
	C2871.022461,726.340088 2873.037354,724.429382 2875.464844,722.250427 
	C2879.295898,733.517273 2869.765869,745.856140 2855.646729,749.645874 
	C2834.661865,755.278320 2819.838867,746.106445 2816.283691,724.357178 
	C2815.908203,722.774658 2815.672607,722.384277 2815.295410,722.079651 
z"/>
<path fill="#939394" opacity="1.000000" stroke="none" 
	d="
M2002.625122,636.331970 
	C1991.871338,644.478821 1991.883179,652.305298 2003.383423,662.381958 
	C2013.499878,671.246155 2025.780640,677.641174 2037.109619,685.120667 
	C2046.399780,691.254150 2054.011230,698.799438 2057.798584,709.588318 
	C2065.613037,731.848694 2052.890625,750.378906 2029.520630,752.329895 
	C2016.731201,753.397705 2003.607056,754.147888 1990.948853,750.105103 
	C1987.499512,749.003418 1984.035645,747.943787 1980.605103,746.786011 
	C1974.394531,744.689880 1972.036743,740.615112 1972.610352,733.863525 
	C1973.284302,725.933838 1972.852173,717.906006 1972.806519,709.921204 
	C1972.785400,706.212341 1973.242188,703.119446 1978.887085,703.914368 
	C1980.365234,708.909607 1982.023804,714.149231 1983.464844,719.448120 
	C1989.545288,741.807190 2007.896729,746.136047 2025.325073,743.942383 
	C2034.802856,742.749451 2038.896973,732.997253 2034.576660,723.961487 
	C2030.991333,716.462830 2024.648926,711.666687 2017.802124,707.378052 
	C2007.690674,701.044678 1997.415283,694.934082 1987.641235,688.110840 
	C1973.906250,678.522461 1968.429932,664.730713 1972.719482,650.118530 
	C1974.160645,645.209656 1977.786499,640.942078 1981.768555,636.146362 
	C1985.947510,636.005737 1987.808472,634.977173 1987.864868,631.844604 
	C1987.864868,631.844604 1988.015015,631.925903 1988.385742,631.799927 
	C1989.341797,631.403137 1989.771729,630.976013 1990.046509,630.392578 
	C1990.046509,630.392578 1990.061768,630.142700 1990.711426,630.598083 
	C1995.115845,632.812988 1998.870483,634.572449 2002.625122,636.331970 
z"/>
<path fill="#929392" opacity="1.000000" stroke="none" 
	d="
M3052.932129,723.859375 
	C3051.821289,730.796448 3052.485352,735.948059 3058.618896,739.312622 
	C3060.248047,740.206360 3060.995361,742.707642 3063.171875,746.038513 
	C3057.638428,746.560791 3053.817139,747.162048 3049.985840,747.235413 
	C3040.659668,747.414001 3031.325439,747.491394 3022.002441,747.266663 
	C3019.979248,747.217834 3017.990479,745.730774 3015.985840,744.906189 
	C3016.905518,742.988342 3017.320312,740.223267 3018.842529,739.316833 
	C3022.863281,736.922302 3024.098389,733.524841 3024.076172,729.307068 
	C3023.930176,701.350281 3023.754150,673.393738 3023.573730,645.437134 
	C3023.571777,645.126770 3023.382080,644.817505 3023.280273,644.507690 
	C3013.354004,637.852600 3013.354004,637.852600 3013.488525,630.713806 
	C3025.236328,628.264404 3037.097900,625.791321 3049.721924,623.159180 
	C3050.226562,630.006042 3050.648438,635.729431 3051.193115,643.117737 
	C3054.902588,639.829468 3057.396484,637.795959 3059.686523,635.554321 
	C3065.833984,629.536560 3073.441895,626.376282 3081.552002,624.199585 
	C3088.369629,622.369751 3094.109131,624.846497 3098.853271,629.449402 
	C3104.049316,634.490601 3103.500488,641.292786 3101.856201,647.275452 
	C3099.197998,656.947754 3084.375977,660.281982 3077.019287,653.123291 
	C3073.998535,650.183533 3071.863281,646.333557 3069.321045,642.891724 
	C3059.539551,646.336365 3052.048096,655.597290 3052.099365,665.112061 
	C3052.203125,684.386230 3052.647217,703.658569 3052.932129,723.859375 
z"/>
<path fill="#979798" opacity="1.000000" stroke="none" 
	d="
M1785.099976,632.069092 
	C1785.273438,636.167908 1785.446777,640.266663 1785.173340,645.783020 
	C1785.138550,652.091431 1785.550537,656.982239 1785.962524,661.873108 
	C1786.146484,682.822998 1786.271973,703.773621 1786.566772,724.721985 
	C1786.621582,728.620605 1786.984131,732.603638 1787.931396,736.364624 
	C1788.422852,738.314941 1790.435425,739.925781 1791.887329,741.578613 
	C1793.457642,743.366089 1795.175659,745.023865 1797.168457,747.089905 
	C1789.072510,750.499390 1763.453125,751.011353 1750.001953,748.299561 
	C1750.860718,746.225830 1751.127441,743.331055 1752.508179,742.629822 
	C1759.139282,739.262085 1759.389404,733.007385 1759.351318,727.262451 
	C1759.242065,710.726379 1758.326294,694.197327 1757.976074,677.660278 
	C1757.835449,671.021118 1758.343262,664.368347 1758.934570,656.618713 
	C1759.563721,654.935486 1759.417114,654.466309 1758.873291,654.108032 
	C1758.600708,651.959717 1758.328003,649.811462 1758.675781,646.771484 
	C1761.609985,644.182434 1763.872559,642.409241 1766.247681,640.802612 
	C1772.053345,636.875488 1777.086792,631.241638 1785.099976,632.069092 
z"/>
<path fill="#878B8A" opacity="1.000000" stroke="none" 
	d="
M2576.059570,597.181885 
	C2575.249268,592.453186 2574.642334,586.965698 2574.121094,581.470032 
	C2573.757080,577.636414 2575.395508,572.243713 2570.610596,571.045959 
	C2565.689209,569.814087 2560.179199,570.659363 2554.968506,571.093201 
	C2553.960938,571.177063 2552.579590,573.461670 2552.338623,574.893921 
	C2551.351807,580.759827 2550.134766,586.684570 2550.091797,592.595459 
	C2549.871094,623.237915 2550.043701,653.883179 2549.896973,684.526489 
	C2549.881104,687.804932 2551.833496,692.171021 2545.995605,694.016724 
	C2545.096680,680.171997 2544.805908,666.210510 2544.795410,652.248779 
	C2544.779785,631.927612 2544.807129,611.603699 2545.145264,591.286438 
	C2545.278809,583.278137 2542.745850,577.163757 2535.955078,572.640686 
	C2533.793945,571.201355 2532.454834,568.528137 2529.186035,564.509521 
	C2536.554199,563.587463 2541.590820,562.410583 2546.626709,562.415649 
	C2579.247070,562.448425 2611.871094,563.128967 2644.486084,562.805786 
	C2665.824219,562.594360 2662.409668,564.382507 2662.481201,579.518433 
	C2662.528564,589.514038 2662.697510,599.513794 2662.433594,609.501709 
	C2662.384277,611.365784 2660.538818,613.182434 2659.522461,615.020996 
	C2657.944824,613.613037 2656.193359,612.349976 2654.855469,610.742554 
	C2654.056641,609.782898 2653.769043,608.313232 2653.485840,607.021362 
	C2649.384521,588.310120 2635.846191,579.516174 2618.879150,575.027527 
	C2605.354004,571.449341 2591.496338,569.904541 2576.299561,572.442017 
	C2576.299561,580.608276 2576.299561,588.514038 2576.059570,597.181885 
z"/>
<path fill="#8D8E8D" opacity="1.000000" stroke="none" 
	d="
M1786.474487,661.457886 
	C1785.550537,656.982239 1785.138550,652.091431 1785.228760,646.665405 
	C1790.110840,642.184692 1794.098755,637.646545 1798.960815,634.429810 
	C1806.630615,629.355530 1814.706299,624.383911 1824.699097,627.135132 
	C1833.603638,629.586731 1838.010254,635.620483 1837.652466,644.543396 
	C1837.301392,653.293701 1833.089966,658.029175 1824.475830,659.359192 
	C1816.075684,660.656128 1810.171631,657.144653 1806.461792,648.591248 
	C1805.953003,647.418274 1805.640381,646.160217 1805.144775,644.663574 
	C1795.974365,647.005615 1791.881714,654.474609 1786.474487,661.457886 
z"/>
<path fill="#878B8A" opacity="1.000000" stroke="none" 
	d="
M1648.312988,574.113159 
	C1647.714355,573.849915 1647.126587,573.558289 1646.515625,573.327576 
	C1632.296753,567.958130 1628.260254,569.119873 1618.426392,581.642090 
	C1612.564575,578.325745 1607.255249,574.609436 1602.246704,571.103699 
	C1603.424805,565.583252 1607.056885,566.129517 1610.306519,566.104797 
	C1628.861816,565.963684 1647.512939,564.646912 1665.945801,566.095032 
	C1683.839600,567.500854 1702.416260,567.928650 1718.470703,578.152222 
	C1719.566162,578.849731 1720.485107,579.824158 1721.781616,581.276245 
	C1717.989624,581.104187 1714.377808,580.709473 1710.296753,583.452454 
	C1707.072021,585.619934 1702.301880,585.488403 1696.765381,586.226135 
	C1690.661865,580.908630 1684.648560,577.801392 1678.017212,576.842041 
	C1668.189819,575.420288 1658.221436,574.974487 1648.312988,574.113159 
z"/>
<path fill="#8D8E8D" opacity="1.000000" stroke="none" 
	d="
M2601.827393,650.605225 
	C2603.953369,649.719055 2606.142822,648.958008 2608.193848,647.923523 
	C2614.820312,644.581543 2620.532959,640.378174 2622.707275,632.699341 
	C2623.476562,629.981995 2624.773926,627.414307 2625.798340,624.858154 
	C2630.224365,624.632812 2632.153564,627.149963 2632.192139,630.145813 
	C2632.421387,647.896240 2632.305176,665.651184 2632.305176,682.913696 
	C2627.367432,685.155029 2625.986328,682.495911 2624.369141,679.848450 
	C2621.813721,675.665405 2619.031006,671.620972 2615.777832,666.847656 
	C2615.210938,666.177490 2614.870850,665.952637 2614.870850,665.952637 
	C2614.870850,665.952637 2614.329590,665.875244 2613.967041,665.342041 
	C2613.265625,664.434265 2612.863525,664.148376 2612.398438,663.951050 
	C2612.398438,663.951050 2612.090332,663.979004 2611.901855,663.140991 
	C2608.575928,660.864136 2605.427979,659.446411 2602.303955,657.978638 
	C2600.272949,657.024597 2598.276611,655.997864 2595.132080,654.443970 
	C2598.496826,652.514771 2600.162109,651.559998 2601.827393,650.605225 
z"/>
<path fill="#878B8A" opacity="1.000000" stroke="none" 
	d="
M2002.989380,636.352295 
	C1998.870483,634.572449 1995.115845,632.812988 1990.834473,630.621948 
	C1994.953369,628.817383 1999.556274,626.466614 2004.253296,626.260315 
	C2016.831665,625.707825 2029.429810,625.823975 2041.829590,629.015869 
	C2052.090088,631.657104 2054.133057,633.768250 2054.564453,644.345032 
	C2054.802246,650.170776 2055.280518,655.991333 2055.338135,661.817322 
	C2055.359619,663.995361 2054.922607,666.404236 2053.932617,668.312744 
	C2052.468750,671.135559 2049.158691,670.778564 2047.912598,667.840637 
	C2047.404541,666.642700 2047.296875,665.263123 2047.084229,663.953613 
	C2043.733276,643.318359 2025.447266,631.578430 2006.513184,634.998413 
	C2004.918091,635.341064 2004.451050,635.672791 2003.983887,636.004517 
	C2003.983887,636.004517 2003.353638,636.372559 2002.989380,636.352295 
z"/>
<path fill="#929392" opacity="1.000000" stroke="none" 
	d="
M3265.593262,712.470825 
	C3275.194580,718.450745 3278.663086,725.702820 3276.136963,735.326965 
	C3274.361816,742.090454 3268.865723,745.308777 3262.382080,746.697510 
	C3253.607666,748.576965 3244.871094,742.187378 3243.857666,733.300598 
	C3243.671387,731.665955 3243.758301,729.995300 3243.783203,728.342285 
	C3243.950684,717.252441 3249.066406,711.925049 3260.025635,711.551880 
	C3261.656738,711.496338 3263.304443,711.931274 3265.593262,712.470825 
z"/>
<path fill="#929392" opacity="1.000000" stroke="none" 
	d="
M2451.869629,730.520020 
	C2451.822266,737.173645 2450.125488,742.287170 2445.160889,745.992065 
	C2437.630127,751.612183 2429.899658,751.434265 2423.554199,745.321838 
	C2417.289551,739.287231 2416.000244,728.535461 2420.732422,721.786133 
	C2426.143555,714.067749 2434.840820,711.143494 2442.358154,716.323547 
	C2446.561523,719.219910 2448.664551,725.164734 2451.869629,730.520020 
z"/>
<path fill="#878B8A" opacity="1.000000" stroke="none" 
	d="
M1933.666748,635.332886 
	C1926.283447,636.061584 1918.843262,636.095764 1910.627930,636.143372 
	C1909.852905,636.156799 1909.927246,636.274414 1909.572021,635.711853 
	C1907.955078,634.824097 1906.693481,634.498901 1904.722656,634.298889 
	C1893.651733,635.280334 1887.704224,642.119568 1882.658081,650.180420 
	C1877.388794,647.392883 1883.159546,642.898010 1880.300293,638.449219 
	C1877.654297,638.266113 1874.193481,638.026672 1869.817261,637.697266 
	C1884.936890,622.645691 1916.825317,622.251770 1933.666748,635.332886 
z"/>
<path fill="#8D8E8D" opacity="1.000000" stroke="none" 
	d="
M1785.271484,631.342285 
	C1777.086792,631.241638 1772.053345,636.875488 1766.247681,640.802612 
	C1763.872559,642.409241 1761.609985,644.182434 1758.594971,645.961304 
	C1753.255371,643.642090 1746.281494,643.449158 1747.710571,635.319519 
	C1747.816040,634.719238 1748.312744,634.187561 1748.726440,633.446899 
	C1759.116089,631.089905 1769.612183,628.637146 1780.146606,626.361694 
	C1783.366577,625.666138 1785.009277,627.535217 1785.271484,631.342285 
z"/>
<path fill="#878B8A" opacity="1.000000" stroke="none" 
	d="
M2600.917480,650.680603 
	C2600.162109,651.559998 2598.496826,652.514771 2595.132080,654.443970 
	C2598.276611,655.997864 2600.272949,657.024597 2602.303955,657.978638 
	C2605.427979,659.446411 2608.575928,660.864136 2611.894043,662.986572 
	C2601.628418,659.616272 2590.784668,658.434692 2578.752441,659.325928 
	C2577.397461,656.584412 2576.963867,653.704102 2576.372070,650.097534 
	C2584.145264,649.832886 2592.076416,650.294495 2600.917480,650.680603 
z"/>
<path fill="#878B8A" opacity="1.000000" stroke="none" 
	d="
M2390.187988,633.912964 
	C2383.593994,633.974487 2377.791260,633.967041 2371.996094,634.167480 
	C2367.201660,634.333313 2365.785400,631.728027 2366.072754,626.649231 
	C2373.320801,625.945923 2380.563232,625.890991 2387.773193,626.346863 
	C2390.649658,626.528748 2393.455078,627.838745 2396.292725,628.635132 
	C2396.306885,629.357361 2396.320801,630.079529 2396.334961,630.801697 
	C2394.550781,631.845764 2392.766602,632.889832 2390.187988,633.912964 
z"/>
<path fill="#878B8A" opacity="1.000000" stroke="none" 
	d="
M2866.329102,633.967041 
	C2859.708496,634.004211 2853.833984,634.000488 2847.965332,634.183289 
	C2843.043213,634.336609 2841.782715,631.560303 2842.129883,626.468811 
	C2850.056641,625.820190 2857.957764,625.842712 2865.820801,626.398193 
	C2867.707031,626.531494 2869.468262,628.436462 2871.286865,629.526672 
	C2869.884033,631.020081 2868.481201,632.513489 2866.329102,633.967041 
z"/>
<path fill="#7D7076" opacity="1.000000" stroke="none" 
	d="
M2813.078125,625.943604 
	C2812.635498,626.859375 2811.369629,627.783997 2810.135986,628.684998 
	C2811.436035,630.443726 2812.798340,632.286499 2814.211426,634.763550 
	C2811.292725,635.118469 2808.177734,635.291199 2805.404785,634.400513 
	C2803.563477,633.809326 2802.210693,631.697144 2800.639404,630.265747 
	C2802.187988,628.878723 2803.528076,626.893372 2805.340088,626.261841 
	C2807.427246,625.534424 2809.931641,626.003113 2813.078125,625.943604 
z"/>
<path fill="#878B8A" opacity="1.000000" stroke="none" 
	d="
M2576.101074,611.501282 
	C2575.579346,610.247314 2575.268311,608.528076 2575.414062,606.426697 
	C2576.018066,607.708374 2576.164795,609.372192 2576.101074,611.501282 
z"/>
<path fill="#878B8A" opacity="1.000000" stroke="none" 
	d="
M1987.229370,631.896118 
	C1987.808472,634.977173 1985.947510,636.005737 1982.387207,635.878662 
	C1983.298584,634.546570 1984.946289,633.247131 1987.229370,631.896118 
z"/>
<path fill="#878B8A" opacity="1.000000" stroke="none" 
	d="
M1944.022705,645.310181 
	C1942.853638,644.879028 1941.618896,643.796082 1940.276123,642.078491 
	C1941.431030,642.515381 1942.694092,643.586853 1944.022705,645.310181 
z"/>
<path fill="#8D8E8D" opacity="1.000000" stroke="none" 
	d="
M2577.559082,727.276001 
	C2576.967773,726.814209 2576.565918,725.720581 2576.212158,724.022827 
	C2576.756348,724.493896 2577.252441,725.569031 2577.559082,727.276001 
z"/>
<path fill="#878B8A" opacity="1.000000" stroke="none" 
	d="
M1724.088379,583.358459 
	C1723.668701,583.527405 1723.100952,583.176636 1722.315796,582.364014 
	C1722.712280,582.214417 1723.326416,582.526611 1724.088379,583.358459 
z"/>
<path fill="#878B8A" opacity="1.000000" stroke="none" 
	d="
M2612.564941,664.300232 
	C2612.863525,664.148376 2613.265625,664.434265 2613.820801,665.111206 
	C2613.494141,665.342102 2613.059082,665.087402 2612.564941,664.300232 
z"/>
<path fill="#878B8A" opacity="1.000000" stroke="none" 
	d="
M1618.664551,596.540039 
	C1619.382812,596.433167 1619.546875,596.914062 1619.076538,597.712219 
	C1618.859253,597.902100 1618.527588,597.000427 1618.664551,596.540039 
z"/>
<path fill="#878B8A" opacity="1.000000" stroke="none" 
	d="
M1618.467896,618.516113 
	C1619.296753,618.545654 1619.363403,619.081848 1618.602783,619.826294 
	C1618.299683,619.650146 1618.276489,619.312866 1618.467896,618.516113 
z"/>
<path fill="#7D7076" opacity="1.000000" stroke="none" 
	d="
M3951.909668,821.428650 
	C3951.250000,821.938599 3950.758301,821.664307 3950.253906,820.728516 
	C3950.709961,820.516785 3951.322021,820.709290 3951.909668,821.428650 
z"/>
<path fill="#878B8A" opacity="1.000000" stroke="none" 
	d="
M1989.593994,630.497986 
	C1989.771729,630.976013 1989.341797,631.403137 1988.305664,631.778320 
	C1988.089600,631.261047 1988.518555,630.834656 1989.593994,630.497986 
z"/>
<path fill="#939394" opacity="1.000000" stroke="none" 
	d="
M2004.497559,636.024658 
	C2004.451050,635.672791 2004.918091,635.341064 2005.626709,635.242981 
	C2005.582520,635.666016 2005.296875,635.855347 2004.497559,636.024658 
z"/>
<path fill="#7D7076" opacity="1.000000" stroke="none" 
	d="
M2815.221924,722.443970 
	C2815.672607,722.384277 2815.908203,722.774658 2816.015381,723.598389 
	C2815.533203,723.723267 2815.239746,723.343994 2815.221924,722.443970 
z"/>
<path fill="#878B8A" opacity="1.000000" stroke="none" 
	d="
M1867.589966,638.554443 
	C1867.812256,638.914246 1867.531860,639.339172 1866.791504,639.877625 
	C1866.494873,639.499207 1866.746826,639.042053 1867.589966,638.554443 
z"/>
<path fill="#878B8A" opacity="1.000000" stroke="none" 
	d="
M1939.274170,639.613342 
	C1938.935181,639.824890 1938.616821,639.608276 1938.221313,639.038696 
	C1938.580322,638.675049 1938.963989,638.841553 1939.274170,639.613342 
z"/>
<path fill="#878B8A" opacity="1.000000" stroke="none" 
	d="
M1865.659668,640.602905 
	C1865.806396,641.008728 1865.406738,641.426025 1864.462158,641.861938 
	C1864.342773,641.485535 1864.741333,641.063477 1865.659668,640.602905 
z"/>
<path fill="#8D8E8D" opacity="1.000000" stroke="none" 
	d="
M1758.723145,654.553955 
	C1759.417114,654.466309 1759.563721,654.935486 1759.104736,655.699585 
	C1758.896484,655.883484 1758.572876,654.999817 1758.723145,654.553955 
z"/>
<path fill="#8D8E8D" opacity="1.000000" stroke="none" 
	d="
M2576.386230,662.013855 
	C2576.080322,661.742981 2576.231445,661.149109 2576.909668,660.273315 
	C2577.055908,660.513306 2576.858154,661.079773 2576.386230,662.013855 
z"/>
<path fill="#878B8A" opacity="1.000000" stroke="none" 
	d="
M2614.891113,666.110596 
	C2614.870850,665.952637 2615.210938,666.177490 2615.297852,666.212280 
	C2615.384521,666.247131 2614.911621,666.268555 2614.891113,666.110596 
z"/>
<path fill="#D8D0D7" opacity="1.000000" stroke="none" 
	d="
M2305.809082,836.185303 
	C2303.256348,837.126221 2300.303223,837.729248 2297.349609,837.730530 
	C2160.434570,837.791870 2023.519775,837.801636 1886.604858,837.805298 
	C1884.942749,837.805298 1883.280640,837.649048 1880.707275,837.261841 
	C1881.073486,836.048218 1882.256104,834.588135 1883.649048,834.348083 
	C1886.238037,833.902039 1888.949463,834.140686 1891.609985,834.140625 
	C2026.006592,834.137085 2160.403320,834.127625 2294.799805,834.199219 
	C2298.336182,834.201111 2301.872314,835.090881 2305.809082,836.185303 
z"/>
<path fill="#D8D0D7" opacity="1.000000" stroke="none" 
	d="
M3113.816650,836.247070 
	C3111.253906,837.183411 3108.302734,837.756042 3105.351562,837.755432 
	C2990.325195,837.732727 2875.298584,837.660217 2760.272217,837.571045 
	C2757.957520,837.569275 2755.642578,837.293518 2752.625000,836.723694 
	C2755.021240,835.574097 2758.120117,834.213013 2761.219727,834.210266 
	C2875.756592,834.107849 2990.293701,834.120544 3104.830566,834.199402 
	C3107.696777,834.201355 3110.562256,835.123169 3113.816650,836.247070 
z"/>
<path fill="#D8D0D7" opacity="1.000000" stroke="none" 
	d="
M1159.795898,836.097778 
	C1145.259888,836.838379 1130.304199,836.978271 1114.633423,836.719788 
	C1115.668091,835.601868 1117.409058,834.284302 1119.168579,834.259155 
	C1131.362793,834.084656 1143.561157,834.142273 1155.757080,834.244080 
	C1156.966797,834.254150 1158.170044,835.060364 1159.795898,836.097778 
z"/>
<path fill="#DDD5D5" opacity="1.000000" stroke="none" 
	d="
M621.229248,1189.956787 
	C613.831970,1198.036133 605.710510,1206.108032 596.916382,1214.321533 
	C596.672119,1212.911377 596.627258,1210.908325 597.606323,1209.881836 
	C603.564575,1203.634888 609.685974,1197.536865 615.936401,1191.581787 
	C617.006470,1190.562256 618.959778,1190.469849 621.229248,1189.956787 
z"/>
<path fill="#DDD5D5" opacity="1.000000" stroke="none" 
	d="
M778.115601,1038.401489 
	C771.762878,1045.709839 764.663818,1052.924927 756.894165,1060.283203 
	C756.322205,1059.446655 756.045776,1058.129883 756.576904,1057.538818 
	C762.910339,1050.492310 768.285828,1042.381836 778.115601,1038.401489 
z"/>
<path fill="#DDD5D5" opacity="1.000000" stroke="none" 
	d="
M662.056519,1150.368164 
	C659.074585,1154.373169 655.345581,1158.294067 650.951904,1162.376709 
	C651.021179,1155.809082 655.701538,1152.629395 662.056519,1150.368164 
z"/>
<path fill="#D8D0D7" opacity="1.000000" stroke="none" 
	d="
M2681.776367,835.864868 
	C2680.931885,836.629028 2679.773438,836.911316 2678.249512,836.869446 
	C2679.077148,836.157898 2680.269531,835.770447 2681.776367,835.864868 
z"/>
<path fill="#D8D0D7" opacity="1.000000" stroke="none" 
	d="
M996.036499,834.450562 
	C995.232666,835.127563 994.250916,835.352234 992.534058,835.348267 
	C992.622131,832.827209 993.731018,831.568787 996.036499,834.450562 
z"/>
<path fill="#D8D0D7" opacity="1.000000" stroke="none" 
	d="
M1413.840576,837.545471 
	C1413.699219,837.898621 1413.349609,837.975159 1412.476074,837.934204 
	C1412.512207,837.634094 1413.072388,837.451477 1413.840576,837.545471 
z"/>
<path fill="#020202" opacity="1.000000" stroke="none" 
	d="
M1648.172363,575.033325 
	C1658.221436,574.974487 1668.189819,575.420288 1678.017212,576.842041 
	C1684.648560,577.801392 1690.661865,580.908630 1695.873047,586.392029 
	C1707.225342,605.205811 1709.030151,624.473206 1701.916504,644.738892 
	C1698.927856,653.252747 1693.128784,658.557861 1685.074585,661.761169 
	C1674.117920,666.118713 1662.522217,665.311523 1649.624512,666.305786 
	C1649.624512,662.594849 1649.595337,659.444458 1649.629639,656.294739 
	C1649.767090,643.695190 1650.253784,631.088867 1649.986694,618.498230 
	C1649.685913,604.309143 1648.712646,590.134399 1648.172363,575.033325 
z"/>
<path fill="#020202" opacity="1.000000" stroke="none" 
	d="
M3180.144531,637.664429 
	C3190.343018,649.419739 3194.697510,662.372314 3193.912842,677.809509 
	C3176.145996,677.809509 3159.045654,677.809509 3140.552490,677.809509 
	C3140.978760,673.398804 3141.181396,669.361755 3141.791260,665.387207 
	C3143.216309,656.098633 3146.908203,647.734192 3152.847412,640.447693 
	C3159.830566,631.880127 3170.970215,628.435547 3180.144531,637.664429 
z"/>
<path fill="#050505" opacity="1.000000" stroke="none" 
	d="
M2141.869629,681.495728 
	C2129.692383,681.494202 2118.496094,681.494202 2106.625244,681.494202 
	C2105.969727,663.606506 2110.803223,649.249023 2124.188232,638.564697 
	C2131.037109,633.097778 2135.903320,633.268555 2143.134033,638.377502 
	C2145.275635,639.890564 2147.429932,641.647705 2148.937500,643.752136 
	C2156.689453,654.573425 2160.007324,666.746277 2159.991699,681.497192 
	C2153.854980,681.497192 2148.352539,681.497192 2141.869629,681.495728 
z"/>
<path fill="#050505" opacity="1.000000" stroke="none" 
	d="
M1882.407959,650.890015 
	C1887.704224,642.119568 1893.651733,635.280334 1905.188721,634.733521 
	C1907.551636,635.453369 1908.739380,635.863892 1909.927246,636.274414 
	C1909.927246,636.274414 1909.852905,636.156799 1909.821533,636.219849 
	C1922.660645,645.847961 1929.859009,664.109924 1928.408203,679.760681 
	C1921.436523,682.124390 1883.949585,682.266174 1875.718018,679.970581 
	C1874.590576,669.764587 1877.141602,660.400635 1882.407959,650.890015 
z"/>
<path fill="#929392" opacity="1.000000" stroke="none" 
	d="
M1909.572021,635.711853 
	C1908.739380,635.863892 1907.551636,635.453369 1905.897827,634.608276 
	C1906.693481,634.498901 1907.955078,634.824097 1909.572021,635.711853 
z"/>
</svg>