<svg version="1.1" id="Layer_1" xmlns="http://www.w3.org/2000/svg" xmlns:xlink="http://www.w3.org/1999/xlink" x="0px" y="0px"
	 width="100%" viewBox="0 0 4096 1648" enable-background="new 0 0 4096 1648" xml:space="preserve">
<path fill="#000000" opacity="1.000000" stroke="none" 
	d="
M2538.000000,1650.000000 
	C1692.000122,1650.000000 847.000305,1650.000000 2.000340,1650.000000 
	C2.000227,1100.666870 2.000227,551.333862 2.000113,2.000561 
	C1367.332886,2.000374 2732.665771,2.000374 4097.999023,2.000187 
	C4097.999023,551.332703 4097.999023,1100.665405 4097.999512,1649.999023 
	C3578.333252,1650.000000 3058.666748,1650.000000 2538.000000,1650.000000 
M2010.296265,1089.281616 
	C2017.612915,1076.670898 2025.683838,1064.430176 2032.091553,1051.373413 
	C2046.176392,1022.672974 2055.818604,992.312927 2062.175537,961.030151 
	C2065.064941,946.811157 2064.954834,931.931580 2068.398193,917.889282 
	C2072.513184,901.106506 2071.752441,884.212280 2072.046143,867.423889 
	C2072.693359,830.456665 2071.296387,793.452881 2071.993652,756.487732 
	C2072.532471,727.928345 2070.874512,699.603455 2067.639648,671.300232 
	C2067.453613,669.671936 2066.945068,668.080078 2066.580078,666.472717 
	C2061.599365,644.533630 2057.431396,622.369263 2051.426025,600.714294 
	C2044.225098,574.747864 2033.329346,550.071960 2019.643921,526.846252 
	C2002.147827,497.153503 1979.962769,471.283356 1954.049194,448.481018 
	C1914.501587,413.681946 1869.895020,387.976685 1819.573853,372.348145 
	C1806.375488,368.249054 1792.953491,364.876343 1779.688843,360.983704 
	C1763.168579,356.135712 1746.448975,352.661377 1729.201782,351.538025 
	C1720.671509,350.982452 1712.242432,349.005585 1703.733887,347.941101 
	C1697.487671,347.159668 1691.183594,346.850525 1684.911011,346.268799 
	C1677.005859,345.535767 1669.112549,344.154938 1661.203857,344.076080 
	C1633.212280,343.796997 1605.215820,344.063477 1577.222412,343.902283 
	C1561.577393,343.812225 1545.988159,343.941589 1530.599365,347.288300 
	C1528.347046,347.778137 1525.956665,347.592316 1523.648804,347.873199 
	C1509.504150,349.594574 1495.229492,350.644257 1481.257446,353.288025 
	C1462.775879,356.785095 1444.401733,361.049011 1426.218750,365.877167 
	C1401.615967,372.409943 1377.746704,381.195862 1354.669678,391.999939 
	C1324.141479,406.292389 1296.246094,424.956329 1270.990356,446.962860 
	C1244.630737,469.931213 1222.343262,496.631073 1204.856079,527.350342 
	C1189.972290,553.496460 1178.065918,580.714783 1170.508423,609.719482 
	C1165.843872,627.621399 1162.208740,645.753540 1159.249512,664.129822 
	C1155.494385,687.448120 1153.116943,710.864136 1152.720459,734.216858 
	C1151.889771,783.135864 1152.593506,832.108887 1153.944946,881.024353 
	C1154.545898,902.776306 1156.874268,924.695679 1160.833252,946.092224 
	C1167.771362,983.590698 1178.848755,1019.946228 1195.828003,1054.382080 
	C1219.545532,1102.484009 1253.455444,1141.488892 1296.975952,1172.779541 
	C1329.066650,1195.852417 1363.589111,1213.496582 1401.019165,1225.954712 
	C1431.292480,1236.030884 1462.096924,1243.280762 1493.543335,1248.858887 
	C1521.752808,1253.862793 1550.121826,1255.996338 1578.502808,1257.302002 
	C1605.322510,1258.535767 1632.287231,1256.966309 1659.176025,1256.205566 
	C1673.091064,1255.812012 1687.072388,1255.210571 1700.858154,1253.424194 
	C1719.211426,1251.045898 1737.420532,1247.519287 1755.661011,1244.312256 
	C1797.446411,1236.965576 1836.948486,1222.803833 1874.985718,1204.241699 
	C1906.520020,1188.852905 1935.581787,1169.777222 1961.505859,1146.111572 
	C1979.701416,1129.501221 1995.661621,1110.873779 2010.296265,1089.281616 
M3650.026855,1201.071167 
	C3666.624512,1190.047241 3683.657471,1179.618896 3699.729492,1167.875977 
	C3733.853271,1142.944092 3759.794434,1110.913086 3779.176514,1073.424194 
	C3789.682861,1053.102051 3798.064697,1031.934570 3803.943604,1009.889160 
	C3809.136963,990.414612 3812.956787,970.651550 3812.414062,950.248474 
	C3811.929443,932.029846 3813.160400,913.756714 3809.669434,895.674316 
	C3807.542969,884.659668 3806.823242,873.271606 3803.680420,862.577759 
	C3798.305176,844.288818 3792.044922,826.212646 3785.198730,808.415466 
	C3776.944580,786.958191 3763.511230,768.982056 3745.060059,755.087524 
	C3731.021973,744.516357 3716.486816,734.601013 3702.527588,723.929810 
	C3679.265381,706.146729 3651.926270,698.708984 3624.149902,692.360168 
	C3611.248779,689.411377 3598.172607,687.238586 3585.218994,684.508850 
	C3569.997803,681.301208 3554.949951,677.011963 3539.146484,677.831665 
	C3537.826904,677.900146 3536.368164,678.007446 3535.184814,677.550598 
	C3523.662354,673.102966 3511.622559,674.208008 3499.691650,674.044006 
	C3493.036377,673.952576 3486.366455,673.945435 3479.733154,673.476379 
	C3469.523926,672.754395 3459.342773,670.895081 3449.145508,670.864075 
	C3391.174561,670.687744 3333.202148,670.938904 3275.230225,670.935059 
	C3271.411621,670.934814 3267.592773,670.025391 3263.521729,669.506653 
	C3264.026611,663.860046 3263.989258,659.159363 3264.975830,654.684509 
	C3265.966309,650.193054 3267.574463,645.727844 3269.612061,641.596497 
	C3278.224609,624.134644 3293.202637,617.308289 3311.860840,617.302734 
	C3445.852539,617.262939 3579.844482,617.281433 3713.836182,617.281433 
	C3718.435547,617.281433 3723.034912,617.281494 3728.177490,617.281494 
	C3729.938232,613.025085 3732.363281,609.231995 3733.033447,605.150635 
	C3734.958496,593.430481 3736.252686,581.603149 3737.646729,569.800415 
	C3739.275391,556.014221 3740.493164,542.175110 3742.354248,528.421936 
	C3744.521973,512.401855 3747.220703,496.453979 3749.628418,480.465698 
	C3750.364990,475.574280 3750.901855,470.652740 3751.531494,465.745178 
	C3753.132324,453.272614 3754.713135,440.797455 3756.343994,428.328827 
	C3757.112549,422.451050 3757.997559,416.588562 3758.793457,410.714172 
	C3760.431152,398.626801 3762.556152,386.576385 3763.512207,374.434418 
	C3764.336426,363.967499 3763.047119,363.263336 3752.362549,363.272644 
	C3695.721436,363.322021 3639.079834,363.450409 3582.438965,363.373444 
	C3471.786621,363.223083 3361.132812,363.161346 3250.482666,362.545990 
	C3230.435303,362.434509 3210.746338,364.734192 3191.205078,368.038574 
	C3165.724365,372.347321 3141.543701,381.451141 3118.405029,392.821930 
	C3081.891602,410.765350 3053.338135,438.315918 3029.128418,470.398438 
	C3014.932861,489.210541 3003.390869,509.730255 2993.019775,531.025452 
	C2979.058350,559.692383 2971.262207,590.017517 2966.397461,621.151367 
	C2963.850098,637.453674 2963.568604,654.114075 2962.355713,670.619507 
	C2961.701660,679.520081 2961.269531,688.436707 2960.687012,697.342834 
	C2959.778809,711.222961 2958.809814,725.099121 2957.907959,738.979736 
	C2957.692627,742.290833 2957.812012,745.629272 2957.486816,748.926514 
	C2956.512695,758.800781 2954.824219,768.638916 2954.443848,778.530701 
	C2953.448242,804.429443 2952.812988,830.346252 2952.394043,856.261597 
	C2952.082031,875.554443 2952.208740,894.857544 2952.406250,914.153381 
	C2952.467041,920.095642 2954.345459,926.121948 2953.769775,931.949524 
	C2951.811035,951.770508 2956.107178,971.100830 2959.093750,990.270569 
	C2962.486816,1012.051819 2967.943604,1033.621704 2975.527100,1054.609497 
	C2984.481934,1079.392456 2995.380371,1102.982788 3010.087158,1124.903198 
	C3031.239746,1156.430542 3058.954102,1180.620239 3091.506592,1199.653564 
	C3114.869629,1213.313843 3139.952393,1222.812256 3165.829346,1230.315796 
	C3194.513428,1238.633301 3223.456787,1245.774048 3253.326416,1248.471069 
	C3266.515869,1249.662109 3279.658936,1251.384399 3292.854980,1252.479004 
	C3315.619141,1254.367432 3338.383789,1256.637573 3361.194824,1257.448730 
	C3379.061279,1258.083984 3397.012939,1257.075684 3414.898926,1256.217529 
	C3436.759766,1255.168579 3458.672119,1254.269409 3480.416016,1251.939209 
	C3511.357422,1248.623535 3541.838867,1242.411621 3571.829102,1233.979736 
	C3598.784912,1226.400757 3624.844238,1216.673340 3650.026855,1201.071167 
M2124.462891,1223.759521 
	C2127.552246,1237.121704 2128.187256,1237.613770 2142.422607,1237.666870 
	C2143.422607,1237.670654 2144.422363,1237.667358 2145.422363,1237.667358 
	C2383.394531,1237.667358 2621.366943,1237.667358 2859.339111,1237.667358 
	C2861.338867,1237.667358 2863.353760,1237.827515 2865.335938,1237.641724 
	C2883.538330,1235.934937 2882.307129,1235.211426 2882.319824,1220.403320 
	C2882.363525,1169.742554 2882.336670,1119.081787 2882.336670,1068.421021 
	C2882.336670,1038.424561 2882.388916,1008.427856 2882.307373,978.431519 
	C2882.279541,968.215088 2881.254639,967.257080 2871.732666,967.242371 
	C2785.745361,967.109558 2699.758301,966.988037 2613.770996,966.871460 
	C2589.778320,966.838928 2565.785645,966.889526 2541.793701,966.749634 
	C2538.538086,966.730652 2534.697266,968.034851 2530.911865,963.288940 
	C2550.878662,953.969788 2569.786377,944.280945 2589.373291,936.247925 
	C2608.667725,928.334900 2628.836914,922.577820 2648.282227,915.001953 
	C2670.529785,906.334290 2692.446777,896.807861 2714.427979,887.467773 
	C2746.346436,873.905273 2775.881104,856.673279 2802.543213,834.088745 
	C2832.189209,808.976562 2857.254395,780.887329 2871.237061,744.079102 
	C2878.075439,726.076660 2883.247070,707.670349 2887.214600,688.753845 
	C2891.277588,669.381836 2890.406494,649.828979 2892.072266,630.393677 
	C2892.571045,624.575378 2890.093018,618.545776 2890.246582,612.645996 
	C2890.803955,591.236816 2886.922363,570.443787 2882.300537,549.742432 
	C2873.251221,509.208374 2856.027344,472.708374 2828.412598,441.369934 
	C2816.955078,428.367523 2804.459717,416.336578 2790.197510,406.653931 
	C2768.566650,391.968628 2745.687988,379.212128 2720.631592,371.222748 
	C2701.423828,365.098297 2682.115723,358.890564 2662.419189,354.807556 
	C2641.728516,350.518494 2620.527832,348.675629 2599.538330,345.850281 
	C2593.639893,345.056305 2587.702637,344.049194 2581.779297,344.022675 
	C2546.120605,343.863098 2510.457031,344.261047 2474.802002,343.864960 
	C2451.433350,343.605408 2428.515869,347.020477 2405.540771,350.394775 
	C2394.714600,351.984833 2383.637451,352.458862 2373.059082,355.026062 
	C2348.032471,361.099457 2323.074463,367.257202 2299.034668,377.095490 
	C2253.199463,395.853668 2216.455566,425.113281 2188.952881,466.348022 
	C2176.315674,485.294525 2166.298340,505.568085 2158.919922,526.843262 
	C2148.179443,557.813354 2141.265137,589.844299 2138.294922,622.611694 
	C2137.817627,627.879761 2136.762451,633.107727 2136.495605,638.380493 
	C2135.575195,656.591492 2135.050049,674.823120 2134.055664,693.029480 
	C2133.261230,707.576294 2135.496582,710.269653 2149.720703,710.330017 
	C2150.053955,710.331421 2150.387451,710.330200 2150.720703,710.330200 
	C2223.712158,710.330200 2296.703613,710.330933 2369.695068,710.326843 
	C2372.026855,710.326721 2374.369873,710.415100 2376.687988,710.224243 
	C2383.951904,709.626221 2385.274902,708.704407 2386.240479,701.477112 
	C2387.203125,694.270325 2386.938477,686.885498 2388.095215,679.721375 
	C2391.977539,655.677185 2406.079834,639.696289 2428.177490,630.292175 
	C2449.952148,621.025513 2472.562256,615.111206 2496.231934,613.807190 
	C2510.146240,613.040588 2524.173096,611.662231 2537.999268,612.653381 
	C2553.423584,613.758972 2568.918213,613.905090 2584.327393,617.179321 
	C2599.654541,620.435974 2613.685303,625.811646 2625.945801,635.003418 
	C2640.594971,645.986145 2642.756592,663.775330 2631.370361,677.892151 
	C2626.269043,684.216858 2619.952148,690.305786 2612.907471,694.170044 
	C2596.119629,703.378784 2578.832031,711.803650 2561.254639,719.409058 
	C2544.277588,726.754700 2526.731689,732.804810 2509.350586,739.191895 
	C2490.456299,746.135071 2471.440186,752.746094 2452.520020,759.619934 
	C2430.500732,767.619751 2408.313721,775.215515 2386.590088,783.957092 
	C2360.548828,794.436157 2334.971436,805.952026 2310.218018,819.385376 
	C2274.639893,838.693176 2239.512939,858.370789 2210.790039,887.660095 
	C2192.393066,906.419800 2174.214844,925.233154 2160.640137,948.013306 
	C2144.109131,975.754333 2133.571533,1005.853882 2128.819580,1037.437744 
	C2125.277832,1060.978516 2124.923096,1085.099976 2124.507812,1108.986450 
	C2123.853271,1146.637207 2124.339844,1184.307983 2124.462891,1223.759521 
M534.713379,365.990387 
	C531.490479,366.789948 528.194336,367.371002 525.056030,368.422913 
	C493.869324,378.876465 464.822418,393.113342 438.978119,413.971222 
	C411.268860,436.334259 390.773041,463.998566 375.029724,495.522736 
	C364.023071,517.562195 356.049805,540.778442 350.685791,564.751404 
	C346.499573,583.460632 343.385498,602.375061 340.840302,621.468140 
	C337.296021,648.056091 338.282959,674.541809 338.087219,701.092773 
	C338.037811,707.798462 340.528259,709.830811 347.199768,710.301331 
	C349.189972,710.441711 351.198181,710.329834 353.198120,710.329834 
	C426.529999,710.330261 499.861847,710.330322 573.193726,710.329712 
	C575.193665,710.329712 577.201416,710.435730 579.192139,710.298645 
	C586.814514,709.773682 587.884766,708.404236 588.906921,700.591919 
	C590.065125,691.739929 591.561523,682.926453 593.127502,674.134827 
	C596.846558,653.255676 610.253357,640.584778 628.583008,631.683289 
	C664.338013,614.319336 702.786621,612.672424 741.303589,612.649231 
	C757.061279,612.639709 772.847290,615.689331 788.571533,617.725159 
	C801.627441,619.415710 813.509460,624.608398 824.376038,631.860107 
	C831.678162,636.733154 837.627991,643.133362 840.021606,651.870056 
	C843.671753,665.192932 838.734070,675.946045 828.827759,684.612793 
	C818.812317,693.375000 807.548889,700.153137 795.245361,705.441650 
	C775.257507,714.033142 755.803406,723.914795 735.615173,731.977661 
	C716.602051,739.570984 696.929565,745.512390 677.551697,752.193787 
	C674.137817,753.370911 670.766357,754.672852 667.341492,755.815674 
	C651.022827,761.260559 634.452576,766.046936 618.414734,772.218506 
	C581.706482,786.344177 545.301331,801.299805 510.868286,820.468689 
	C491.223145,831.405334 471.763123,842.757507 452.847443,854.900269 
	C429.788574,869.702820 410.642578,889.204529 392.309143,909.346863 
	C378.006897,925.060364 365.093903,942.038330 355.843048,961.253967 
	C345.623108,982.482544 337.811493,1004.540771 333.533051,1027.974121 
	C329.939606,1047.655762 327.956360,1067.377075 327.783447,1087.243408 
	C327.397614,1131.572388 327.662292,1175.907227 327.664368,1220.239624 
	C327.664490,1222.905884 327.576843,1225.578247 327.721985,1228.237183 
	C327.965790,1232.704102 329.770416,1235.895020 334.764038,1236.325562 
	C339.366821,1236.722168 343.961090,1237.609741 348.559265,1237.610962 
	C586.887878,1237.674927 825.216431,1237.667480 1063.545044,1237.667358 
	C1065.211670,1237.667358 1066.895874,1237.825073 1068.542236,1237.642334 
	C1086.496338,1235.650513 1084.843750,1235.402344 1084.852661,1220.908936 
	C1084.902344,1139.910645 1084.914795,1058.912476 1084.951660,977.914246 
	C1084.956055,968.147583 1084.155640,967.304810 1074.078979,967.265381 
	C1050.747437,967.174072 1027.415771,967.068237 1004.084229,967.043396 
	C917.758667,966.951294 831.433044,966.894226 745.107483,966.799194 
	C741.962463,966.795776 738.817627,966.533997 733.470947,966.293640 
	C736.146362,964.053284 736.968323,963.146118 737.975464,962.553894 
	C758.633606,950.406006 780.282776,940.270325 802.742493,932.023499 
	C819.230042,925.969543 836.414124,921.743652 852.709290,915.251160 
	C877.648560,905.314697 902.177673,894.325378 926.702026,883.382263 
	C937.914978,878.378967 948.836670,872.671082 959.653809,866.843506 
	C982.055969,854.774719 1001.164062,838.223083 1019.997192,821.400085 
	C1042.876709,800.962463 1061.098511,777.075928 1072.543091,748.370605 
	C1082.895752,722.403809 1090.530029,696.016418 1092.534668,667.702942 
	C1093.772461,650.216553 1096.348511,632.943970 1094.378540,615.363037 
	C1092.979736,602.879944 1092.487183,590.278564 1090.687134,577.860901 
	C1087.491211,555.815308 1082.200439,534.259766 1074.308838,513.338684 
	C1064.480957,487.284302 1050.606812,463.664948 1032.156982,442.897034 
	C1024.472534,434.247131 1015.769470,426.451294 1007.134583,418.707458 
	C990.014893,403.354309 970.593079,391.301941 949.634094,382.122589 
	C933.324402,374.979492 916.446777,369.019867 899.528625,363.419281 
	C888.288147,359.698273 876.642212,356.921509 864.979858,354.820679 
	C847.070984,351.594574 829.007141,349.204681 810.978455,346.678497 
	C802.453430,345.483948 793.862427,344.062164 785.292664,344.003326 
	C744.302124,343.721954 703.302368,343.457611 662.319580,344.084656 
	C647.124512,344.317169 631.929749,346.713623 616.804260,348.662048 
	C605.304749,350.143372 593.825867,352.066772 582.498169,354.530762 
	C567.025452,357.896362 551.705078,361.962006 534.713379,365.990387 
z"/>
<path fill="#FEFEFE" opacity="1.000000" stroke="none" 
	d="
M2009.947998,1089.909546 
	C1995.661621,1110.873779 1979.701416,1129.501221 1961.505859,1146.111572 
	C1935.581787,1169.777222 1906.520020,1188.852905 1874.985718,1204.241699 
	C1836.948486,1222.803833 1797.446411,1236.965576 1755.661011,1244.312256 
	C1737.420532,1247.519287 1719.211426,1251.045898 1700.858154,1253.424194 
	C1687.072388,1255.210571 1673.091064,1255.812012 1659.176025,1256.205566 
	C1632.287231,1256.966309 1605.322510,1258.535767 1578.502808,1257.302002 
	C1550.121826,1255.996338 1521.752808,1253.862793 1493.543335,1248.858887 
	C1462.096924,1243.280762 1431.292480,1236.030884 1401.019165,1225.954712 
	C1363.589111,1213.496582 1329.066650,1195.852417 1296.975952,1172.779541 
	C1253.455444,1141.488892 1219.545532,1102.484009 1195.828003,1054.382080 
	C1178.848755,1019.946228 1167.771362,983.590698 1160.833252,946.092224 
	C1156.874268,924.695679 1154.545898,902.776306 1153.944946,881.024353 
	C1152.593506,832.108887 1151.889771,783.135864 1152.720459,734.216858 
	C1153.116943,710.864136 1155.494385,687.448120 1159.249512,664.129822 
	C1162.208740,645.753540 1165.843872,627.621399 1170.508423,609.719482 
	C1178.065918,580.714783 1189.972290,553.496460 1204.856079,527.350342 
	C1222.343262,496.631073 1244.630737,469.931213 1270.990356,446.962860 
	C1296.246094,424.956329 1324.141479,406.292389 1354.669678,391.999939 
	C1377.746704,381.195862 1401.615967,372.409943 1426.218750,365.877167 
	C1444.401733,361.049011 1462.775879,356.785095 1481.257446,353.288025 
	C1495.229492,350.644257 1509.504150,349.594574 1523.648804,347.873199 
	C1525.956665,347.592316 1528.347046,347.778137 1530.599365,347.288300 
	C1545.988159,343.941589 1561.577393,343.812225 1577.222412,343.902283 
	C1605.215820,344.063477 1633.212280,343.796997 1661.203857,344.076080 
	C1669.112549,344.154938 1677.005859,345.535767 1684.911011,346.268799 
	C1691.183594,346.850525 1697.487671,347.159668 1703.733887,347.941101 
	C1712.242432,349.005585 1720.671509,350.982452 1729.201782,351.538025 
	C1746.448975,352.661377 1763.168579,356.135712 1779.688843,360.983704 
	C1792.953491,364.876343 1806.375488,368.249054 1819.573853,372.348145 
	C1869.895020,387.976685 1914.501587,413.681946 1954.049194,448.481018 
	C1979.962769,471.283356 2002.147827,497.153503 2019.643921,526.846252 
	C2033.329346,550.071960 2044.225098,574.747864 2051.426025,600.714294 
	C2057.431396,622.369263 2061.599365,644.533630 2066.580078,666.472717 
	C2066.945068,668.080078 2067.453613,669.671936 2067.639648,671.300232 
	C2070.874512,699.603455 2072.532471,727.928345 2071.993652,756.487732 
	C2071.296387,793.452881 2072.693359,830.456665 2072.046143,867.423889 
	C2071.752441,884.212280 2072.513184,901.106506 2068.398193,917.889282 
	C2064.954834,931.931580 2065.064941,946.811157 2062.175537,961.030151 
	C2055.818604,992.312927 2046.176392,1022.672974 2032.091553,1051.373413 
	C2025.683838,1064.430176 2017.612915,1076.670898 2009.947998,1089.909546 
M1770.179932,747.419495 
	C1769.567993,744.500305 1768.495117,741.592651 1768.421753,738.659973 
	C1768.051270,723.828003 1763.902588,709.796265 1758.664673,696.212402 
	C1750.380737,674.729004 1738.168579,655.941956 1717.323242,644.373840 
	C1701.052979,635.344727 1684.301392,627.291748 1665.603394,624.743652 
	C1647.607788,622.291260 1629.555298,618.763489 1611.506348,618.631531 
	C1594.457886,618.506836 1577.238281,621.372498 1560.346802,624.355225 
	C1522.217651,631.088196 1491.252075,649.136353 1472.094971,684.086914 
	C1459.052124,707.882751 1454.386353,733.963074 1453.593506,760.629333 
	C1452.831543,786.258179 1453.301514,811.935730 1453.721558,837.583801 
	C1454.047485,857.484863 1456.244629,877.178162 1462.404663,896.294739 
	C1473.273438,930.023315 1495.529663,952.655701 1527.952637,966.535278 
	C1539.648926,971.542297 1551.706055,974.502075 1563.837036,977.396606 
	C1577.043213,980.547729 1590.412964,982.984436 1604.234497,982.054810 
	C1614.185547,981.385498 1624.232300,982.246948 1634.205444,981.774414 
	C1658.089233,980.642883 1681.257202,976.548035 1703.100464,965.933716 
	C1727.782715,953.939819 1745.240723,935.612427 1756.146851,910.468384 
	C1767.871338,883.438049 1770.838501,854.748047 1771.790527,825.968079 
	C1772.635132,800.439697 1770.911621,774.826355 1770.179932,747.419495 
z"/>
<path fill="#FEFEFE" opacity="1.000000" stroke="none" 
	d="
M3649.373047,1201.406250 
	C3624.844238,1216.673340 3598.784912,1226.400757 3571.829102,1233.979736 
	C3541.838867,1242.411621 3511.357422,1248.623535 3480.416016,1251.939209 
	C3458.672119,1254.269409 3436.759766,1255.168579 3414.898926,1256.217529 
	C3397.012939,1257.075684 3379.061279,1258.083984 3361.194824,1257.448730 
	C3338.383789,1256.637573 3315.619141,1254.367432 3292.854980,1252.479004 
	C3279.658936,1251.384399 3266.515869,1249.662109 3253.326416,1248.471069 
	C3223.456787,1245.774048 3194.513428,1238.633301 3165.829346,1230.315796 
	C3139.952393,1222.812256 3114.869629,1213.313843 3091.506592,1199.653564 
	C3058.954102,1180.620239 3031.239746,1156.430542 3010.087158,1124.903198 
	C2995.380371,1102.982788 2984.481934,1079.392456 2975.527100,1054.609497 
	C2967.943604,1033.621704 2962.486816,1012.051819 2959.093750,990.270569 
	C2956.107178,971.100830 2951.811035,951.770508 2953.769775,931.949524 
	C2954.345459,926.121948 2952.467041,920.095642 2952.406250,914.153381 
	C2952.208740,894.857544 2952.082031,875.554443 2952.394043,856.261597 
	C2952.812988,830.346252 2953.448242,804.429443 2954.443848,778.530701 
	C2954.824219,768.638916 2956.512695,758.800781 2957.486816,748.926514 
	C2957.812012,745.629272 2957.692627,742.290833 2957.907959,738.979736 
	C2958.809814,725.099121 2959.778809,711.222961 2960.687012,697.342834 
	C2961.269531,688.436707 2961.701660,679.520081 2962.355713,670.619507 
	C2963.568604,654.114075 2963.850098,637.453674 2966.397461,621.151367 
	C2971.262207,590.017517 2979.058350,559.692383 2993.019775,531.025452 
	C3003.390869,509.730255 3014.932861,489.210541 3029.128418,470.398438 
	C3053.338135,438.315918 3081.891602,410.765350 3118.405029,392.821930 
	C3141.543701,381.451141 3165.724365,372.347321 3191.205078,368.038574 
	C3210.746338,364.734192 3230.435303,362.434509 3250.482666,362.545990 
	C3361.132812,363.161346 3471.786621,363.223083 3582.438965,363.373444 
	C3639.079834,363.450409 3695.721436,363.322021 3752.362549,363.272644 
	C3763.047119,363.263336 3764.336426,363.967499 3763.512207,374.434418 
	C3762.556152,386.576385 3760.431152,398.626801 3758.793457,410.714172 
	C3757.997559,416.588562 3757.112549,422.451050 3756.343994,428.328827 
	C3754.713135,440.797455 3753.132324,453.272614 3751.531494,465.745178 
	C3750.901855,470.652740 3750.364990,475.574280 3749.628418,480.465698 
	C3747.220703,496.453979 3744.521973,512.401855 3742.354248,528.421936 
	C3740.493164,542.175110 3739.275391,556.014221 3737.646729,569.800415 
	C3736.252686,581.603149 3734.958496,593.430481 3733.033447,605.150635 
	C3732.363281,609.231995 3729.938232,613.025085 3728.177490,617.281494 
	C3723.034912,617.281494 3718.435547,617.281433 3713.836182,617.281433 
	C3579.844482,617.281433 3445.852539,617.262939 3311.860840,617.302734 
	C3293.202637,617.308289 3278.224609,624.134644 3269.612061,641.596497 
	C3267.574463,645.727844 3265.966309,650.193054 3264.975830,654.684509 
	C3263.989258,659.159363 3264.026611,663.860046 3263.521729,669.506653 
	C3267.592773,670.025391 3271.411621,670.934814 3275.230225,670.935059 
	C3333.202148,670.938904 3391.174561,670.687744 3449.145508,670.864075 
	C3459.342773,670.895081 3469.523926,672.754395 3479.733154,673.476379 
	C3486.366455,673.945435 3493.036377,673.952576 3499.691650,674.044006 
	C3511.622559,674.208008 3523.662354,673.102966 3535.184814,677.550598 
	C3536.368164,678.007446 3537.826904,677.900146 3539.146484,677.831665 
	C3554.949951,677.011963 3569.997803,681.301208 3585.218994,684.508850 
	C3598.172607,687.238586 3611.248779,689.411377 3624.149902,692.360168 
	C3651.926270,698.708984 3679.265381,706.146729 3702.527588,723.929810 
	C3716.486816,734.601013 3731.021973,744.516357 3745.060059,755.087524 
	C3763.511230,768.982056 3776.944580,786.958191 3785.198730,808.415466 
	C3792.044922,826.212646 3798.305176,844.288818 3803.680420,862.577759 
	C3806.823242,873.271606 3807.542969,884.659668 3809.669434,895.674316 
	C3813.160400,913.756714 3811.929443,932.029846 3812.414062,950.248474 
	C3812.956787,970.651550 3809.136963,990.414612 3803.943604,1009.889160 
	C3798.064697,1031.934570 3789.682861,1053.102051 3779.176514,1073.424194 
	C3759.794434,1110.913086 3733.853271,1142.944092 3699.729492,1167.875977 
	C3683.657471,1179.618896 3666.624512,1190.047241 3649.373047,1201.406250 
M3372.361084,848.342773 
	C3355.491211,847.615112 3338.626709,846.487549 3321.750000,846.252014 
	C3295.425049,845.884705 3269.091553,846.046021 3242.762207,846.152039 
	C3235.164795,846.182678 3234.403564,847.102722 3234.360107,855.035034 
	C3234.264893,872.365723 3233.906982,889.710510 3234.447510,907.024841 
	C3235.003174,924.816467 3242.463135,939.695679 3257.112305,949.985840 
	C3264.589600,955.238281 3272.463867,959.999695 3281.511963,962.997009 
	C3290.260986,965.895264 3298.806641,968.991028 3307.853027,971.217529 
	C3324.334229,975.273926 3341.002197,978.223083 3357.762695,978.295471 
	C3387.288086,978.422974 3416.788330,979.871460 3446.385986,975.307617 
	C3463.594971,972.654053 3480.218018,968.929504 3496.397949,963.162231 
	C3507.096191,959.349182 3516.760498,952.978882 3523.432129,943.422363 
	C3534.851807,927.065369 3532.632080,900.410583 3521.038330,885.534729 
	C3520.030518,884.241455 3518.994873,882.926880 3517.770508,881.852051 
	C3509.978760,875.011963 3501.487305,869.407532 3491.773682,865.449280 
	C3465.837891,854.880859 3438.286377,853.236389 3410.969971,850.433594 
	C3398.781738,849.182922 3386.471191,849.127625 3372.361084,848.342773 
z"/>
<path fill="#FEFEFE" opacity="1.000000" stroke="none" 
	d="
M2124.403320,1222.864868 
	C2124.339844,1184.307983 2123.853271,1146.637207 2124.507812,1108.986450 
	C2124.923096,1085.099976 2125.277832,1060.978516 2128.819580,1037.437744 
	C2133.571533,1005.853882 2144.109131,975.754333 2160.640137,948.013306 
	C2174.214844,925.233154 2192.393066,906.419800 2210.790039,887.660095 
	C2239.512939,858.370789 2274.639893,838.693176 2310.218018,819.385376 
	C2334.971436,805.952026 2360.548828,794.436157 2386.590088,783.957092 
	C2408.313721,775.215515 2430.500732,767.619751 2452.520020,759.619934 
	C2471.440186,752.746094 2490.456299,746.135071 2509.350586,739.191895 
	C2526.731689,732.804810 2544.277588,726.754700 2561.254639,719.409058 
	C2578.832031,711.803650 2596.119629,703.378784 2612.907471,694.170044 
	C2619.952148,690.305786 2626.269043,684.216858 2631.370361,677.892151 
	C2642.756592,663.775330 2640.594971,645.986145 2625.945801,635.003418 
	C2613.685303,625.811646 2599.654541,620.435974 2584.327393,617.179321 
	C2568.918213,613.905090 2553.423584,613.758972 2537.999268,612.653381 
	C2524.173096,611.662231 2510.146240,613.040588 2496.231934,613.807190 
	C2472.562256,615.111206 2449.952148,621.025513 2428.177490,630.292175 
	C2406.079834,639.696289 2391.977539,655.677185 2388.095215,679.721375 
	C2386.938477,686.885498 2387.203125,694.270325 2386.240479,701.477112 
	C2385.274902,708.704407 2383.951904,709.626221 2376.687988,710.224243 
	C2374.369873,710.415100 2372.026855,710.326721 2369.695068,710.326843 
	C2296.703613,710.330933 2223.712158,710.330200 2150.720703,710.330200 
	C2150.387451,710.330200 2150.053955,710.331421 2149.720703,710.330017 
	C2135.496582,710.269653 2133.261230,707.576294 2134.055664,693.029480 
	C2135.050049,674.823120 2135.575195,656.591492 2136.495605,638.380493 
	C2136.762451,633.107727 2137.817627,627.879761 2138.294922,622.611694 
	C2141.265137,589.844299 2148.179443,557.813354 2158.919922,526.843262 
	C2166.298340,505.568085 2176.315674,485.294525 2188.952881,466.348022 
	C2216.455566,425.113281 2253.199463,395.853668 2299.034668,377.095490 
	C2323.074463,367.257202 2348.032471,361.099457 2373.059082,355.026062 
	C2383.637451,352.458862 2394.714600,351.984833 2405.540771,350.394775 
	C2428.515869,347.020477 2451.433350,343.605408 2474.802002,343.864960 
	C2510.457031,344.261047 2546.120605,343.863098 2581.779297,344.022675 
	C2587.702637,344.049194 2593.639893,345.056305 2599.538330,345.850281 
	C2620.527832,348.675629 2641.728516,350.518494 2662.419189,354.807556 
	C2682.115723,358.890564 2701.423828,365.098297 2720.631592,371.222748 
	C2745.687988,379.212128 2768.566650,391.968628 2790.197510,406.653931 
	C2804.459717,416.336578 2816.955078,428.367523 2828.412598,441.369934 
	C2856.027344,472.708374 2873.251221,509.208374 2882.300537,549.742432 
	C2886.922363,570.443787 2890.803955,591.236816 2890.246582,612.645996 
	C2890.093018,618.545776 2892.571045,624.575378 2892.072266,630.393677 
	C2890.406494,649.828979 2891.277588,669.381836 2887.214600,688.753845 
	C2883.247070,707.670349 2878.075439,726.076660 2871.237061,744.079102 
	C2857.254395,780.887329 2832.189209,808.976562 2802.543213,834.088745 
	C2775.881104,856.673279 2746.346436,873.905273 2714.427979,887.467773 
	C2692.446777,896.807861 2670.529785,906.334290 2648.282227,915.001953 
	C2628.836914,922.577820 2608.667725,928.334900 2589.373291,936.247925 
	C2569.786377,944.280945 2550.878662,953.969788 2530.911865,963.288940 
	C2534.697266,968.034851 2538.538086,966.730652 2541.793701,966.749634 
	C2565.785645,966.889526 2589.778320,966.838928 2613.770996,966.871460 
	C2699.758301,966.988037 2785.745361,967.109558 2871.732666,967.242371 
	C2881.254639,967.257080 2882.279541,968.215088 2882.307373,978.431519 
	C2882.388916,1008.427856 2882.336670,1038.424561 2882.336670,1068.421021 
	C2882.336670,1119.081787 2882.363525,1169.742554 2882.319824,1220.403320 
	C2882.307129,1235.211426 2883.538330,1235.934937 2865.335938,1237.641724 
	C2863.353760,1237.827515 2861.338867,1237.667358 2859.339111,1237.667358 
	C2621.366943,1237.667358 2383.394531,1237.667358 2145.422363,1237.667358 
	C2144.422363,1237.667358 2143.422607,1237.670654 2142.422607,1237.666870 
	C2128.187256,1237.613770 2127.552246,1237.121704 2124.403320,1222.864868 
z"/>
<path fill="#FEFEFE" opacity="1.000000" stroke="none" 
	d="
M535.516357,365.858948 
	C551.705078,361.962006 567.025452,357.896362 582.498169,354.530762 
	C593.825867,352.066772 605.304749,350.143372 616.804260,348.662048 
	C631.929749,346.713623 647.124512,344.317169 662.319580,344.084656 
	C703.302368,343.457611 744.302124,343.721954 785.292664,344.003326 
	C793.862427,344.062164 802.453430,345.483948 810.978455,346.678497 
	C829.007141,349.204681 847.070984,351.594574 864.979858,354.820679 
	C876.642212,356.921509 888.288147,359.698273 899.528625,363.419281 
	C916.446777,369.019867 933.324402,374.979492 949.634094,382.122589 
	C970.593079,391.301941 990.014893,403.354309 1007.134583,418.707458 
	C1015.769470,426.451294 1024.472534,434.247131 1032.156982,442.897034 
	C1050.606812,463.664948 1064.480957,487.284302 1074.308838,513.338684 
	C1082.200439,534.259766 1087.491211,555.815308 1090.687134,577.860901 
	C1092.487183,590.278564 1092.979736,602.879944 1094.378540,615.363037 
	C1096.348511,632.943970 1093.772461,650.216553 1092.534668,667.702942 
	C1090.530029,696.016418 1082.895752,722.403809 1072.543091,748.370605 
	C1061.098511,777.075928 1042.876709,800.962463 1019.997192,821.400085 
	C1001.164062,838.223083 982.055969,854.774719 959.653809,866.843506 
	C948.836670,872.671082 937.914978,878.378967 926.702026,883.382263 
	C902.177673,894.325378 877.648560,905.314697 852.709290,915.251160 
	C836.414124,921.743652 819.230042,925.969543 802.742493,932.023499 
	C780.282776,940.270325 758.633606,950.406006 737.975464,962.553894 
	C736.968323,963.146118 736.146362,964.053284 733.470947,966.293640 
	C738.817627,966.533997 741.962463,966.795776 745.107483,966.799194 
	C831.433044,966.894226 917.758667,966.951294 1004.084229,967.043396 
	C1027.415771,967.068237 1050.747437,967.174072 1074.078979,967.265381 
	C1084.155640,967.304810 1084.956055,968.147583 1084.951660,977.914246 
	C1084.914795,1058.912476 1084.902344,1139.910645 1084.852661,1220.908936 
	C1084.843750,1235.402344 1086.496338,1235.650513 1068.542236,1237.642334 
	C1066.895874,1237.825073 1065.211670,1237.667358 1063.545044,1237.667358 
	C825.216431,1237.667480 586.887878,1237.674927 348.559265,1237.610962 
	C343.961090,1237.609741 339.366821,1236.722168 334.764038,1236.325562 
	C329.770416,1235.895020 327.965790,1232.704102 327.721985,1228.237183 
	C327.576843,1225.578247 327.664490,1222.905884 327.664368,1220.239624 
	C327.662292,1175.907227 327.397614,1131.572388 327.783447,1087.243408 
	C327.956360,1067.377075 329.939606,1047.655762 333.533051,1027.974121 
	C337.811493,1004.540771 345.623108,982.482544 355.843048,961.253967 
	C365.093903,942.038330 378.006897,925.060364 392.309143,909.346863 
	C410.642578,889.204529 429.788574,869.702820 452.847443,854.900269 
	C471.763123,842.757507 491.223145,831.405334 510.868286,820.468689 
	C545.301331,801.299805 581.706482,786.344177 618.414734,772.218506 
	C634.452576,766.046936 651.022827,761.260559 667.341492,755.815674 
	C670.766357,754.672852 674.137817,753.370911 677.551697,752.193787 
	C696.929565,745.512390 716.602051,739.570984 735.615173,731.977661 
	C755.803406,723.914795 775.257507,714.033142 795.245361,705.441650 
	C807.548889,700.153137 818.812317,693.375000 828.827759,684.612793 
	C838.734070,675.946045 843.671753,665.192932 840.021606,651.870056 
	C837.627991,643.133362 831.678162,636.733154 824.376038,631.860107 
	C813.509460,624.608398 801.627441,619.415710 788.571533,617.725159 
	C772.847290,615.689331 757.061279,612.639709 741.303589,612.649231 
	C702.786621,612.672424 664.338013,614.319336 628.583008,631.683289 
	C610.253357,640.584778 596.846558,653.255676 593.127502,674.134827 
	C591.561523,682.926453 590.065125,691.739929 588.906921,700.591919 
	C587.884766,708.404236 586.814514,709.773682 579.192139,710.298645 
	C577.201416,710.435730 575.193665,710.329712 573.193726,710.329712 
	C499.861847,710.330322 426.529999,710.330261 353.198120,710.329834 
	C351.198181,710.329834 349.189972,710.441711 347.199768,710.301331 
	C340.528259,709.830811 338.037811,707.798462 338.087219,701.092773 
	C338.282959,674.541809 337.296021,648.056091 340.840302,621.468140 
	C343.385498,602.375061 346.499573,583.460632 350.685791,564.751404 
	C356.049805,540.778442 364.023071,517.562195 375.029724,495.522736 
	C390.773041,463.998566 411.268860,436.334259 438.978119,413.971222 
	C464.822418,393.113342 493.869324,378.876465 525.056030,368.422913 
	C528.194336,367.371002 531.490479,366.789948 535.516357,365.858948 
z"/>
<path fill="#010101" opacity="1.000000" stroke="none" 
	d="
M1770.250977,748.335022 
	C1770.911621,774.826355 1772.635132,800.439697 1771.790527,825.968079 
	C1770.838501,854.748047 1767.871338,883.438049 1756.146851,910.468384 
	C1745.240723,935.612427 1727.782715,953.939819 1703.100464,965.933716 
	C1681.257202,976.548035 1658.089233,980.642883 1634.205444,981.774414 
	C1624.232300,982.246948 1614.185547,981.385498 1604.234497,982.054810 
	C1590.412964,982.984436 1577.043213,980.547729 1563.837036,977.396606 
	C1551.706055,974.502075 1539.648926,971.542297 1527.952637,966.535278 
	C1495.529663,952.655701 1473.273438,930.023315 1462.404663,896.294739 
	C1456.244629,877.178162 1454.047485,857.484863 1453.721558,837.583801 
	C1453.301514,811.935730 1452.831543,786.258179 1453.593506,760.629333 
	C1454.386353,733.963074 1459.052124,707.882751 1472.094971,684.086914 
	C1491.252075,649.136353 1522.217651,631.088196 1560.346802,624.355225 
	C1577.238281,621.372498 1594.457886,618.506836 1611.506348,618.631531 
	C1629.555298,618.763489 1647.607788,622.291260 1665.603394,624.743652 
	C1684.301392,627.291748 1701.052979,635.344727 1717.323242,644.373840 
	C1738.168579,655.941956 1750.380737,674.729004 1758.664673,696.212402 
	C1763.902588,709.796265 1768.051270,723.828003 1768.421753,738.659973 
	C1768.495117,741.592651 1769.567993,744.500305 1770.250977,748.335022 
z"/>
<path fill="#020202" opacity="1.000000" stroke="none" 
	d="
M3373.288574,848.436279 
	C3386.471191,849.127625 3398.781738,849.182922 3410.969971,850.433594 
	C3438.286377,853.236389 3465.837891,854.880859 3491.773682,865.449280 
	C3501.487305,869.407532 3509.978760,875.011963 3517.770508,881.852051 
	C3518.994873,882.926880 3520.030518,884.241455 3521.038330,885.534729 
	C3532.632080,900.410583 3534.851807,927.065369 3523.432129,943.422363 
	C3516.760498,952.978882 3507.096191,959.349182 3496.397949,963.162231 
	C3480.218018,968.929504 3463.594971,972.654053 3446.385986,975.307617 
	C3416.788330,979.871460 3387.288086,978.422974 3357.762695,978.295471 
	C3341.002197,978.223083 3324.334229,975.273926 3307.853027,971.217529 
	C3298.806641,968.991028 3290.260986,965.895264 3281.511963,962.997009 
	C3272.463867,959.999695 3264.589600,955.238281 3257.112305,949.985840 
	C3242.463135,939.695679 3235.003174,924.816467 3234.447510,907.024841 
	C3233.906982,889.710510 3234.264893,872.365723 3234.360107,855.035034 
	C3234.403564,847.102722 3235.164795,846.182678 3242.762207,846.152039 
	C3269.091553,846.046021 3295.425049,845.884705 3321.750000,846.252014 
	C3338.626709,846.487549 3355.491211,847.615112 3373.288574,848.436279 
z"/>
</svg>